<svg width="174" height="209" viewBox="0 0 174 209" fill="none" xmlns="http://www.w3.org/2000/svg">
<g clip-path="url(#clip0_17_721)">
<path d="M1.98675 99.9618C2.62241 101.026 3.48311 101.938 4.50821 102.633C5.53331 103.328 6.69789 103.789 7.91991 103.984C9.14192 104.179 10.3917 104.102 11.5811 103.76C12.7705 103.418 13.8707 102.819 14.8041 102.004L40.895 117.01L39.9226 101.367L15.2954 89.5157C13.8269 88.0339 11.8675 87.1437 9.78826 87.0138C7.70905 86.884 5.65457 87.5234 4.01411 88.811C2.37365 90.0987 1.26119 91.945 0.887533 94.0001C0.51388 96.0553 0.904991 98.1765 1.98675 99.9618Z" fill="#FFB8B8"/>
<path d="M77.5224 160.075C69.783 170.937 70.0598 189.11 72.2191 209H108.811L110.402 205.277L112.524 209H146.995C146.995 209 144.343 158.479 139.57 156.884C134.797 155.288 77.5224 160.075 77.5224 160.075Z" fill="#2F2E41"/>
<path d="M108.811 46.5848C119.063 46.5848 127.373 38.2515 127.373 27.9718C127.373 17.6922 119.063 9.35889 108.811 9.35889C98.5603 9.35889 90.2501 17.6922 90.2501 27.9718C90.2501 38.2515 98.5603 46.5848 108.811 46.5848Z" fill="#FFB8B8"/>
<path d="M122.227 51.4138L125.857 58.3902L150.962 69.6131L144.363 133.655L141.585 140.287L143.086 146.046L139.468 150.297C143.1 153.592 143.561 157.041 141.585 160.61L130.024 163.265C130.024 163.265 65.741 168.997 71.1585 159.011C77.078 148.099 78.5853 115.874 65.5176 98.6536C54.4235 84.0339 62.9409 65.0633 62.9409 65.0633L89.2566 57.1769L98.9359 51.4138L122.227 51.4138Z" fill="#3F3D56"/>
<path d="M117.052 0.706777C117.139 0.521715 117.279 0.367021 117.455 0.26256C117.63 0.1581 117.833 0.108642 118.037 0.12054C109.539 -0.389182 100.588 0.604005 93.4793 5.29985C91.7569 6.4375 90.1331 7.79445 88.2589 8.61972C88.1705 8.65958 88.0938 8.72171 88.0364 8.80006C87.9789 8.87841 87.9427 8.97032 87.9311 9.06688C87.9196 9.16343 87.9331 9.26134 87.9704 9.3511C88.0077 9.44085 88.0676 9.51941 88.1441 9.57913L88.3499 9.741C88.4312 9.80487 88.4934 9.88985 88.5298 9.98669C88.5662 10.0835 88.5754 10.1885 88.5565 10.2903C88.5376 10.392 88.4911 10.4866 88.4223 10.5637C88.3535 10.6409 88.265 10.6976 88.1662 10.7278C88.0633 10.7593 87.9715 10.8196 87.9016 10.9016C87.8317 10.9836 87.7867 11.084 87.7718 11.1908C87.7569 11.2977 87.7728 11.4066 87.8175 11.5047C87.8623 11.6028 87.9341 11.686 88.0244 11.7446L89.6019 12.767C89.6814 12.8176 89.7469 12.8874 89.7924 12.97C89.838 13.0526 89.8622 13.1453 89.8627 13.2397C89.8632 13.334 89.8401 13.427 89.7954 13.5101C89.7507 13.5932 89.686 13.6637 89.6071 13.7151C89.4735 13.7979 89.3332 13.8692 89.1876 13.9284C89.0971 13.9625 89.0168 14.0195 88.9545 14.0937C88.8923 14.168 88.8502 14.2571 88.8322 14.3524C88.8143 14.4477 88.8212 14.5461 88.8521 14.638C88.8831 14.7299 88.9372 14.8122 89.0091 14.8771C89.6923 15.4869 90.2163 16.2551 90.5354 17.1145C91.0612 18.4855 91.1557 19.9786 91.2445 21.4447C91.7879 19.3292 94.0902 18.084 96.265 17.9574C98.4398 17.8309 100.561 18.5505 102.677 19.0677C107.287 20.1911 112.075 20.3758 116.757 19.6109C115.167 22.8105 116.508 26.6271 117.858 29.9359L122.227 28.0581C128.227 24.6619 124.047 39.0286 121.804 41.0009C126.384 42.5931 138.372 24.9207 134.515 18.2171C132.509 14.73 133.933 10.2325 129.989 6.9252C128.056 4.88471 124.197 5.79163 122.227 4.09574C121.451 3.42827 122.633 1.64254 121.567 1.25337C121.213 1.12411 117.11 0.5765 117.052 0.706777Z" fill="#2F2E41"/>
<path d="M85.6117 58.9786C82.2058 74.1417 73.4702 109.545 64.6075 116.949C64.0455 117.482 63.3715 117.881 62.6354 118.117C31.483 125.728 21.5012 106.315 21.5012 106.315C21.5012 106.315 29.8497 102.235 30.0614 94.261L46.8974 99.4994L61.5737 66.3797L63.7334 64.3596L63.7455 64.3474L85.6117 58.9786Z" fill="#3F3D56"/>
<path d="M152.034 199.002C152.926 198.142 153.619 197.096 154.064 195.939C154.51 194.781 154.697 193.54 154.612 192.302C154.527 191.064 154.173 189.86 153.574 188.774C152.975 187.688 152.146 186.748 151.145 186.018L159.878 157.156L144.894 161.614L138.898 188.338C137.787 190.105 137.361 192.22 137.701 194.281C138.041 196.342 139.123 198.206 140.742 199.521C142.361 200.835 144.405 201.508 146.486 201.413C148.567 201.317 150.541 200.459 152.034 199.002Z" fill="#FFB8B8"/>
<path d="M144.04 67.9985L150.962 69.6132C150.962 69.6132 179.572 125.433 172.678 136.069C165.784 146.705 157.338 181.918 157.338 181.918C157.338 181.918 144.846 179.427 140.073 173.046L148.813 131.283L139.798 96.1839L144.04 67.9985Z" fill="#3F3D56"/>
<path d="M12.7219 150.889L12.9705 60.988C12.9776 59.1684 13.7041 57.4259 14.9908 56.1428C16.2774 54.8597 18.019 54.1408 19.8336 54.1438L87.5403 54.332C89.3548 54.3392 91.0925 55.0677 92.372 56.3579C93.6515 57.6482 94.3684 59.3946 94.3654 61.2142L94.1168 151.115C94.1098 152.935 93.3832 154.677 92.0966 155.96C90.81 157.243 89.0683 157.962 87.2538 157.959L19.5471 157.771C17.7325 157.764 15.9949 157.035 14.7154 155.745C13.4359 154.455 12.719 152.709 12.7219 150.889Z" fill="#E6E6E6"/>
<path d="M17.9906 123.749L18.1504 65.953C18.157 64.2489 18.8375 62.617 20.0424 61.4153C21.2474 60.2137 22.8785 59.5404 24.5779 59.5432L82.7661 59.705C84.4655 59.7116 86.0929 60.3939 87.2913 61.6022C88.4897 62.8106 89.1612 64.4462 89.1584 66.1504L88.9372 146.15C88.9306 147.854 88.2501 149.486 87.045 150.688C85.84 151.889 84.2088 152.563 82.5094 152.56L46.463 152.46C38.8934 152.43 31.6445 149.391 26.3067 144.008C20.969 138.626 17.9782 131.34 17.9906 123.749Z" fill="white"/>
<path d="M76.0987 84.9309H30.7268C30.0048 84.9309 29.3124 84.6432 28.8019 84.1313C28.2913 83.6193 28.0045 82.925 28.0045 82.201C28.0045 81.4769 28.2913 80.7826 28.8019 80.2706C29.3124 79.7587 30.0048 79.4711 30.7268 79.4711H76.0987C76.8207 79.4711 77.5131 79.7587 78.0237 80.2706C78.5342 80.7826 78.821 81.4769 78.821 82.201C78.821 82.925 78.5342 83.6193 78.0237 84.1313C77.5131 84.6432 76.8207 84.9309 76.0987 84.9309Z" fill="#E85C43"/>
<path d="M40.7086 72.3431H30.7268C30.0048 72.3431 29.3124 72.0555 28.8019 71.5435C28.2913 71.0316 28.0045 70.3372 28.0045 69.6132C28.0045 68.8892 28.2913 68.1948 28.8019 67.6829C29.3124 67.1709 30.0048 66.8833 30.7268 66.8833H40.7086C41.4306 66.8833 42.1231 67.1709 42.6336 67.6829C43.1441 68.1948 43.431 68.8892 43.431 69.6132C43.431 70.3372 43.1441 71.0316 42.6336 71.5435C42.1231 72.0555 41.4306 72.3431 40.7086 72.3431Z" fill="#E85C43"/>
<path d="M76.0987 97.5187H30.7268C30.0048 97.5187 29.3124 97.2311 28.8019 96.7192C28.2913 96.2072 28.0045 95.5129 28.0045 94.7889C28.0045 94.0648 28.2913 93.3705 28.8019 92.8585C29.3124 92.3466 30.0048 92.059 30.7268 92.059H76.0987C76.8207 92.059 77.5131 92.3466 78.0237 92.8585C78.5342 93.3705 78.821 94.0648 78.821 94.7889C78.821 95.5129 78.5342 96.2072 78.0237 96.7192C77.5131 97.2311 76.8207 97.5187 76.0987 97.5187Z" fill="#E85C43"/>
<path d="M76.0987 110.107H30.7268C30.0048 110.107 29.3124 109.819 28.8019 109.307C28.2913 108.795 28.0045 108.101 28.0045 107.377C28.0045 106.653 28.2913 105.958 28.8019 105.446C29.3124 104.934 30.0048 104.647 30.7268 104.647H76.0987C76.8207 104.647 77.5131 104.934 78.0237 105.446C78.5342 105.958 78.821 106.653 78.821 107.377C78.821 108.101 78.5342 108.795 78.0237 109.307C77.5131 109.819 76.8207 110.107 76.0987 110.107Z" fill="#E85C43"/>
<path d="M72.4274 143.275C78.4098 143.275 83.2595 138.412 83.2595 132.413C83.2595 126.414 78.4098 121.551 72.4274 121.551C66.445 121.551 61.5953 126.414 61.5953 132.413C61.5953 138.412 66.445 143.275 72.4274 143.275Z" fill="#E85C43"/>
<path d="M70.9498 138.066C70.7627 138.066 70.5782 138.022 70.411 137.938C70.2437 137.855 70.0981 137.733 69.9859 137.583L67.0308 133.631C66.9356 133.504 66.8663 133.36 66.8269 133.206C66.7875 133.052 66.7787 132.892 66.801 132.735C66.8233 132.578 66.8762 132.427 66.9569 132.29C67.0375 132.153 67.1442 132.034 67.2709 131.939C67.3976 131.843 67.5418 131.774 67.6952 131.735C67.8486 131.695 68.0083 131.687 68.165 131.709C68.3218 131.732 68.4725 131.785 68.6087 131.866C68.7449 131.947 68.8638 132.054 68.9586 132.182L70.892 134.766L75.8576 127.297C75.9452 127.165 76.0579 127.051 76.1895 126.962C76.321 126.873 76.4687 126.811 76.6241 126.78C76.7796 126.749 76.9396 126.748 77.0952 126.779C77.2508 126.81 77.3987 126.871 77.5307 126.959C77.6626 127.047 77.7758 127.161 77.864 127.293C77.9521 127.425 78.0133 127.573 78.0442 127.729C78.075 127.885 78.0749 128.046 78.0438 128.202C78.0126 128.358 77.9511 128.506 77.8628 128.638L71.9524 137.528C71.8455 137.689 71.7017 137.821 71.5331 137.915C71.3645 138.009 71.1759 138.06 70.9833 138.066C70.9721 138.066 70.961 138.066 70.9498 138.066Z" fill="white"/>
<path d="M49.3293 33.2145C52.1692 33.2145 54.4714 30.9059 54.4714 28.0581C54.4714 25.2102 52.1692 22.9016 49.3293 22.9016C46.4894 22.9016 44.1871 25.2102 44.1871 28.0581C44.1871 30.9059 46.4894 33.2145 49.3293 33.2145Z" fill="#F2F2F2"/>
<path d="M30.5755 181.539C33.4154 181.539 35.7176 179.23 35.7176 176.382C35.7176 173.534 33.4154 171.226 30.5755 171.226C27.7356 171.226 25.4333 173.534 25.4333 176.382C25.4333 179.23 27.7356 181.539 30.5755 181.539Z" fill="#F2F2F2"/>
<path d="M148.845 53.2338C151.685 53.2338 153.987 50.9252 153.987 48.0774C153.987 45.2295 151.685 42.9209 148.845 42.9209C146.005 42.9209 143.703 45.2295 143.703 48.0774C143.703 50.9252 146.005 53.2338 148.845 53.2338Z" fill="#F2F2F2"/>
</g>
<defs>
<clipPath id="clip0_17_721">
<rect width="173" height="209" fill="white" transform="translate(0.75)"/>
</clipPath>
</defs>
</svg>
