<svg width="259" height="191" viewBox="0 0 259 191" fill="none" xmlns="http://www.w3.org/2000/svg">
<g clip-path="url(#clip0_17_764)">
<path d="M160.304 153.562H8.15678C6.48139 153.561 4.87517 152.893 3.69049 151.705C2.50581 150.518 1.83943 148.908 1.83752 147.229V37.8258C1.83943 36.1467 2.50581 34.5368 3.69049 33.3495C4.87517 32.1621 6.48139 31.4942 8.15678 31.4923H160.304C161.98 31.4942 163.586 32.1621 164.771 33.3495C165.955 34.5368 166.622 36.1467 166.624 37.8258V147.229C166.622 148.908 165.955 150.518 164.771 151.705C163.586 152.893 161.98 153.561 160.304 153.562ZM8.15678 34.8257C7.36318 34.8267 6.60235 35.143 6.04119 35.7055C5.48003 36.2679 5.16437 37.0304 5.16345 37.8258V147.229C5.16435 148.024 5.48 148.787 6.04117 149.349C6.60233 149.912 7.36317 150.228 8.15678 150.229H160.304C161.098 150.228 161.859 149.912 162.42 149.349C162.981 148.787 163.297 148.024 163.298 147.229V37.8258C163.297 37.0304 162.981 36.2679 162.42 35.7055C161.859 35.143 161.098 34.8267 160.304 34.8257H8.15678Z" fill="#E6E6E6"/>
<path d="M80.9969 191C87.7577 191 93.2384 185.507 93.2384 178.731C93.2384 171.955 87.7577 166.462 80.9969 166.462C74.2362 166.462 68.7555 171.955 68.7555 178.731C68.7555 185.507 74.2362 191 80.9969 191Z" fill="#E6E6E6"/>
<path d="M80.9969 188.137C86.1802 188.137 90.382 183.926 90.382 178.731C90.382 173.536 86.1802 169.325 80.9969 169.325C75.8137 169.325 71.6118 173.536 71.6118 178.731C71.6118 183.926 75.8137 188.137 80.9969 188.137Z" fill="white"/>
<path d="M85.6986 183.868C85.6425 183.868 85.5869 183.857 85.535 183.836C85.4831 183.814 85.4361 183.783 85.3964 183.743L75.992 174.317C75.9153 174.236 75.8732 174.128 75.8747 174.017C75.8761 173.905 75.921 173.798 75.9998 173.719C76.0786 173.64 76.1851 173.595 76.2965 173.594C76.4079 173.592 76.5155 173.635 76.5964 173.711L86.0008 183.137C86.0605 183.197 86.1012 183.273 86.1177 183.356C86.1342 183.439 86.1257 183.526 86.0934 183.604C86.061 183.682 86.0063 183.749 85.936 183.796C85.8658 183.843 85.7831 183.868 85.6986 183.868Z" fill="#E85C43"/>
<path d="M86.3048 179.638C86.3933 179.498 86.44 179.337 86.4395 179.172C86.4391 179.007 86.3914 178.845 86.3021 178.707C85.6165 177.633 84.7128 176.715 83.6499 176.015C82.5726 175.297 81.3114 174.906 80.0177 174.888C79.3653 174.889 78.7173 174.996 78.0989 175.204C78.0816 175.21 78.066 175.22 78.0537 175.233C78.0414 175.247 78.0328 175.263 78.0286 175.281C78.0244 175.299 78.0249 175.317 78.0299 175.335C78.0349 175.353 78.0443 175.369 78.0572 175.382L79.3193 176.647C79.3326 176.66 79.349 176.669 79.367 176.674C79.385 176.679 79.404 176.679 79.4221 176.674C80.0829 176.513 80.7805 176.622 81.3616 176.976C81.9427 177.33 82.3596 177.901 82.5206 178.564L82.5236 178.576C82.7418 179.6 83.2398 180.544 83.962 181.3L84.3641 181.704C84.383 181.723 84.4084 181.734 84.4352 181.735C84.462 181.736 84.4882 181.727 84.5087 181.71C85.2074 181.113 85.8128 180.414 86.3048 179.638Z" fill="#E85C43"/>
<path d="M81.9262 180.717C81.5893 180.717 81.2558 180.65 80.9446 180.521C80.6334 180.392 80.3507 180.203 80.1125 179.964C79.8743 179.725 79.6854 179.442 79.5565 179.13C79.4275 178.818 79.3612 178.484 79.3612 178.146C79.3612 178.144 79.3612 178.142 79.3612 178.139C79.3667 177.915 79.3278 177.691 79.2466 177.482C79.1654 177.273 79.0436 177.081 78.8882 176.919L77.6196 175.647C77.6005 175.628 77.575 175.617 77.548 175.616C77.5211 175.615 77.4948 175.624 77.4743 175.642C76.7884 176.238 76.1812 176.919 75.6671 177.669C75.5705 177.808 75.5172 177.973 75.5142 178.142C75.5111 178.311 75.5584 178.478 75.65 178.62C76.3245 179.696 77.2196 180.614 78.2758 181.316C79.3546 182.037 80.6209 182.424 81.9176 182.43C82.5766 182.429 83.2313 182.324 83.8583 182.121C83.8758 182.115 83.8915 182.106 83.904 182.092C83.9165 182.079 83.9254 182.062 83.9297 182.044C83.934 182.026 83.9337 182.008 83.9287 181.99C83.9237 181.972 83.9143 181.956 83.9013 181.943L82.6331 180.672C82.6199 180.659 82.6036 180.65 82.5857 180.645C82.5678 180.64 82.549 180.64 82.531 180.644C82.3329 180.692 82.1299 180.717 81.9262 180.717Z" fill="#E85C43"/>
<path d="M34.5515 191C41.3123 191 46.793 185.507 46.793 178.731C46.793 171.955 41.3123 166.462 34.5515 166.462C27.7907 166.462 22.3101 171.955 22.3101 178.731C22.3101 185.507 27.7907 191 34.5515 191Z" fill="#E6E6E6"/>
<path d="M34.5515 188.137C39.7347 188.137 43.9366 183.926 43.9366 178.731C43.9366 173.536 39.7347 169.325 34.5515 169.325C29.3682 169.325 25.1664 173.536 25.1664 178.731C25.1664 183.926 29.3682 188.137 34.5515 188.137Z" fill="white"/>
<path d="M38.1568 184.729C37.6353 184.729 36.9027 184.54 35.8057 183.926C34.4423 183.195 33.1973 182.262 32.1131 181.157C30.9911 180.086 30.054 178.836 29.3402 177.458C28.3559 175.663 28.5237 174.723 28.7112 174.321C28.9278 173.882 29.2682 173.516 29.6904 173.268C29.9325 173.109 30.1886 172.973 30.4556 172.861C30.4823 172.85 30.5072 172.839 30.5294 172.829C30.6177 172.779 30.7157 172.748 30.8168 172.739C30.9179 172.729 31.0199 172.742 31.1158 172.775C31.329 172.878 31.5188 173.024 31.6731 173.204C32.2288 173.829 32.6976 174.526 33.0667 175.277C33.2184 175.537 33.3117 175.827 33.34 176.126C33.3179 176.423 33.198 176.704 32.9994 176.924C32.9644 176.972 32.9296 177.018 32.896 177.063C32.6927 177.33 32.648 177.408 32.6774 177.546C32.737 177.824 33.6399 178.065 34.37 178.795C35.1002 179.525 35.4427 180.528 35.7208 180.587C35.8645 180.618 35.9433 180.571 36.219 180.36C36.2586 180.33 36.2992 180.299 36.3417 180.268C36.5626 180.059 36.8476 179.931 37.1501 179.905H37.1517C37.455 179.936 37.7467 180.039 38.0029 180.204C38.7437 180.581 39.4358 181.046 40.0639 181.591C40.2436 181.745 40.3896 181.935 40.4927 182.148C40.5258 182.245 40.5381 182.347 40.5289 182.448C40.5197 182.55 40.4891 182.648 40.4393 182.737C40.4294 182.759 40.4184 182.784 40.4069 182.811C40.2945 183.078 40.1577 183.334 39.9984 183.576C39.7509 183.999 39.3851 184.339 38.9463 184.556C38.6996 184.673 38.4297 184.732 38.1568 184.729Z" fill="#E85C43"/>
<path d="M127.802 191C134.563 191 140.044 185.507 140.044 178.731C140.044 171.955 134.563 166.462 127.802 166.462C121.042 166.462 115.561 171.955 115.561 178.731C115.561 185.507 121.042 191 127.802 191Z" fill="#E6E6E6"/>
<path d="M127.802 188.137C132.986 188.137 137.188 183.926 137.188 178.731C137.188 173.536 132.986 169.325 127.802 169.325C122.619 169.325 118.417 173.536 118.417 178.731C118.417 183.926 122.619 188.137 127.802 188.137Z" fill="white"/>
<path d="M131.222 176.974C131.109 176.974 131 177.02 130.92 177.1C130.84 177.18 130.795 177.289 130.795 177.403V178.26C130.795 179.916 129.455 180.402 127.802 180.402C126.15 180.402 124.81 179.916 124.81 178.26V177.403C124.81 177.289 124.765 177.18 124.685 177.1C124.605 177.02 124.496 176.974 124.383 176.974C124.269 176.974 124.161 177.02 124.08 177.1C124 177.18 123.955 177.289 123.955 177.403V178.26C123.956 179.208 124.306 180.122 124.936 180.828C125.567 181.535 126.435 181.984 127.375 182.09V183.829C127.375 183.943 127.42 184.052 127.5 184.132C127.58 184.213 127.689 184.258 127.802 184.258C127.916 184.258 128.025 184.213 128.105 184.132C128.185 184.052 128.23 183.943 128.23 183.829V182.09C129.17 181.984 130.038 181.535 130.669 180.828C131.299 180.122 131.648 179.208 131.65 178.26V177.403C131.65 177.289 131.605 177.18 131.525 177.1C131.444 177.02 131.336 176.974 131.222 176.974Z" fill="#E85C43"/>
<path d="M127.803 179.19C127.278 179.2 126.759 179.081 126.292 178.843C126.124 178.776 125.977 178.665 125.866 178.521C125.756 178.377 125.687 178.206 125.665 178.026V176.432C125.661 175.799 126.61 175.285 127.786 175.282C127.791 175.282 127.797 175.282 127.803 175.282C128.97 175.276 129.927 175.779 129.94 176.407C129.94 176.415 129.94 176.423 129.94 176.432V178.026C129.946 178.664 128.99 179.185 127.803 179.19Z" fill="#E85C43"/>
<path d="M160.304 152.062H8.15681C6.87823 152.061 5.65244 151.551 4.74835 150.645C3.84426 149.739 3.3357 148.51 3.33423 147.229V37.8258C3.3357 36.5443 3.84426 35.3158 4.74835 34.4096C5.65244 33.5035 6.87823 32.9938 8.15681 32.9923H160.304C161.583 32.9938 162.809 33.5035 163.713 34.4096C164.617 35.3158 165.125 36.5443 165.127 37.8258V147.229C165.125 148.51 164.617 149.739 163.713 150.645C162.809 151.551 161.583 152.061 160.304 152.062Z" fill="white"/>
<path d="M83.4858 100.793C92.38 100.793 99.5902 93.5665 99.5902 84.6521C99.5902 75.7378 92.38 68.5114 83.4858 68.5114C74.5915 68.5114 67.3813 75.7378 67.3813 84.6521C67.3813 93.5665 74.5915 100.793 83.4858 100.793Z" fill="#FFB8B8"/>
<path d="M65.5208 69.1246C65.6425 67.2711 66.8656 65.3743 70.7513 64.3832C70.7513 64.3832 77.4198 55.8366 86.4816 60.3186C86.4816 60.3186 90.8747 59.5611 94.1323 64.1294C94.1323 64.1294 97.362 62.2202 98.7247 65.6042C98.7247 65.6042 102.513 72.5066 101.118 79.5471C99.7235 86.5876 99.0097 87.4663 99.0097 87.4663C99.0097 87.4663 100.787 72.9031 90.549 73.9129C80.3108 74.9228 72.068 71.3142 69.7494 79.2151C67.8242 85.7756 68.0667 89.1829 68.0667 89.1829C68.0667 89.1829 61.6287 82.6382 63.8176 77.4847C64.9372 74.8489 65.333 71.9831 65.5208 69.1246Z" fill="#2F2E41"/>
<path d="M39.6915 151.896H128.77C128.174 145.085 127.785 140.019 127.785 138.305C127.785 130.748 121.616 122.501 121.616 122.501L119.407 121.278L100.965 115.511L96.1923 109.298C95.6925 108.645 95.0485 108.118 94.311 107.757C93.5734 107.396 92.7625 107.211 91.9417 107.218L76.8653 107.331C75.5386 107.341 74.2635 107.848 73.29 108.751L63.9541 117.431L50.2613 123.985L50.238 123.962L50.095 124.068L48.0628 125.535L46.7558 126.482C46.7558 126.482 43.3267 130.605 40.5862 142.972C40.1738 144.832 39.8844 147.946 39.6915 151.896Z" fill="#E85C43"/>
<path d="M258.625 13.8253H0.374765C0.274592 13.8231 0.179261 13.7817 0.10919 13.7099C0.0391182 13.6381 -0.00012207 13.5417 -0.00012207 13.4413C-0.00012207 13.3409 0.0391182 13.2444 0.10919 13.1727C0.179261 13.1009 0.274592 13.0594 0.374765 13.0573H258.625C258.725 13.0594 258.821 13.1009 258.891 13.1727C258.961 13.2444 259 13.3409 259 13.4413C259 13.5417 258.961 13.6381 258.891 13.7099C258.821 13.7817 258.725 13.8231 258.625 13.8253Z" fill="#CACACA"/>
<path d="M8.81124 8.44881C11.0883 8.44881 12.9343 6.55748 12.9343 4.22441C12.9343 1.89133 11.0883 0 8.81124 0C6.53417 0 4.68823 1.89133 4.68823 4.22441C4.68823 6.55748 6.53417 8.44881 8.81124 8.44881Z" fill="#3F3D56"/>
<path d="M23.0543 8.44881C25.3314 8.44881 27.1773 6.55748 27.1773 4.22441C27.1773 1.89133 25.3314 0 23.0543 0C20.7772 0 18.9313 1.89133 18.9313 4.22441C18.9313 6.55748 20.7772 8.44881 23.0543 8.44881Z" fill="#3F3D56"/>
<path d="M37.2974 8.44881C39.5745 8.44881 41.4205 6.55748 41.4205 4.22441C41.4205 1.89133 39.5745 0 37.2974 0C35.0204 0 33.1744 1.89133 33.1744 4.22441C33.1744 6.55748 35.0204 8.44881 37.2974 8.44881Z" fill="#3F3D56"/>
<path d="M250.091 2.58388H239.971C239.771 2.57947 239.58 2.49661 239.44 2.35304C239.3 2.20948 239.222 2.01663 239.222 1.8158C239.222 1.61497 239.3 1.42212 239.44 1.27856C239.58 1.135 239.771 1.05214 239.971 1.04773H250.091C250.292 1.05214 250.482 1.135 250.622 1.27856C250.763 1.42212 250.841 1.61497 250.841 1.8158C250.841 2.01663 250.763 2.20948 250.622 2.35304C250.482 2.49661 250.292 2.57947 250.091 2.58388Z" fill="#3F3D56"/>
<path d="M250.091 5.46424H239.971C239.771 5.45983 239.58 5.37698 239.44 5.23342C239.3 5.08985 239.222 4.897 239.222 4.69617C239.222 4.49534 239.3 4.30249 239.44 4.15893C239.58 4.01537 239.771 3.93251 239.971 3.9281H250.091C250.292 3.93251 250.482 4.01537 250.622 4.15893C250.763 4.30249 250.841 4.49534 250.841 4.69617C250.841 4.897 250.763 5.08985 250.622 5.23342C250.482 5.37698 250.292 5.45983 250.091 5.46424Z" fill="#3F3D56"/>
<path d="M250.091 8.3445H239.971C239.771 8.34009 239.58 8.25723 239.44 8.11366C239.3 7.9701 239.222 7.77725 239.222 7.57642C239.222 7.37559 239.3 7.18274 239.44 7.03918C239.58 6.89562 239.771 6.81276 239.971 6.80835H250.091C250.292 6.81276 250.482 6.89562 250.622 7.03918C250.763 7.18274 250.841 7.37559 250.841 7.57642C250.841 7.77725 250.763 7.9701 250.622 8.11366C250.482 8.25723 250.292 8.34009 250.091 8.3445Z" fill="#3F3D56"/>
<path d="M243.036 158.984H192.263C190.588 158.982 188.982 158.314 187.797 157.127C186.612 155.939 185.946 154.329 185.944 152.65V117.797C185.946 116.118 186.612 114.508 187.797 113.321C188.982 112.133 190.588 111.466 192.263 111.464H243.036C244.711 111.466 246.317 112.133 247.502 113.321C248.687 114.508 249.353 116.118 249.355 117.797V152.65C249.353 154.329 248.687 155.939 247.502 157.127C246.317 158.314 244.711 158.982 243.036 158.984ZM192.263 114.797C191.47 114.798 190.709 115.114 190.148 115.677C189.586 116.239 189.271 117.002 189.27 117.797V152.65C189.271 153.446 189.586 154.208 190.148 154.771C190.709 155.333 191.47 155.649 192.263 155.65H243.036C243.829 155.649 244.59 155.333 245.151 154.771C245.712 154.208 246.028 153.446 246.029 152.65V117.797C246.028 117.002 245.712 116.239 245.151 115.677C244.59 115.114 243.829 114.798 243.036 114.797H192.263Z" fill="#E6E6E6"/>
<path d="M243.036 157.484H192.263C190.985 157.482 189.759 156.972 188.855 156.066C187.951 155.16 187.442 153.932 187.441 152.65V117.797C187.442 116.516 187.951 115.287 188.855 114.381C189.759 113.475 190.985 112.965 192.263 112.964H243.036C244.314 112.965 245.54 113.475 246.444 114.381C247.348 115.287 247.857 116.516 247.858 117.797V152.65C247.857 153.932 247.348 155.16 246.444 156.066C245.54 156.972 244.314 157.482 243.036 157.484Z" fill="white"/>
<path d="M222.41 124.309C222.704 122.474 221.874 121.122 219.672 120.36C217.481 118.455 214.244 117.998 212.301 121.049C211.516 121.002 210.744 121.261 210.145 121.771C209.546 122.281 209.167 123.003 209.087 123.786C207.302 125.865 209.284 133.497 209.871 136.405L213.004 136.374L219.258 136.312L222.41 136.281L223.612 129.462C224.342 127.48 224.045 125.742 222.41 124.309Z" fill="#E6E6E6"/>
<path d="M233.787 153.014C234.606 152.491 235.472 152.047 236.376 151.69L227.467 141.089L221.58 139.579C221.532 139.552 221.484 139.524 221.437 139.496L211.505 139.877L211.462 139.835L205.2 142.905L196.292 153.227C197.171 153.573 198.016 154.001 198.815 154.505L197.895 158.009H204.269L205.965 155.539H206.05C206.05 155.496 206.054 155.454 206.054 155.411L207.244 153.677C207.271 155.078 207.232 156.522 207.136 158.009H226.961C226.93 156.774 226.923 155.547 226.923 154.327L229.14 157.552C229.306 157.308 229.484 157.08 229.662 156.848L230.098 158.009H235.174L233.957 153.371C233.923 153.243 233.865 153.122 233.787 153.014Z" fill="#E6E6E6"/>
<path d="M243.036 78.6615H192.263C190.588 78.6596 188.982 77.9917 187.797 76.8044C186.612 75.617 185.946 74.0072 185.944 72.328V37.475C185.946 35.7958 186.612 34.186 187.797 32.9986C188.982 31.8113 190.588 31.1434 192.263 31.1415H243.036C244.711 31.1434 246.317 31.8113 247.502 32.9986C248.687 34.186 249.353 35.7958 249.355 37.475V72.328C249.353 74.0072 248.687 75.617 247.502 76.8044C246.317 77.9917 244.711 78.6596 243.036 78.6615ZM192.263 34.4749C191.47 34.4758 190.709 34.7922 190.148 35.3546C189.586 35.9171 189.271 36.6796 189.27 37.475V72.328C189.271 73.1234 189.586 73.886 190.148 74.4484C190.709 75.0108 191.47 75.3272 192.263 75.3281H243.036C243.829 75.3272 244.59 75.0108 245.151 74.4484C245.712 73.886 246.028 73.1234 246.029 72.328V37.475C246.028 36.6796 245.712 35.9171 245.151 35.3546C244.59 34.7922 243.829 34.4758 243.036 34.4749H192.263Z" fill="#E6E6E6"/>
<path d="M243.036 77.1614H192.263C190.985 77.16 189.759 76.6503 188.855 75.7441C187.951 74.838 187.442 73.6094 187.441 72.328V37.4749C187.442 36.1935 187.951 34.9649 188.855 34.0588C189.759 33.1527 190.985 32.643 192.263 32.6415H243.036C244.314 32.643 245.54 33.1527 246.444 34.0588C247.348 34.9649 247.857 36.1935 247.858 37.4749V72.328C247.857 73.6094 247.348 74.838 246.444 75.7441C245.54 76.6503 244.314 77.16 243.036 77.1614Z" fill="white"/>
<path d="M211.237 49.8261C211.389 51.3754 212.075 52.8232 213.176 53.9205C214.278 55.0178 215.727 55.696 217.274 55.8385C218.821 55.981 220.369 55.579 221.652 54.7014C222.935 53.8239 223.873 52.5257 224.304 51.0302C224.52 50.8042 226.918 48.236 226.05 46.1928C225.622 45.0843 225.383 43.9112 225.344 42.723C225.293 41.9538 224.785 41.1665 223.173 40.7552C223.173 40.7552 220.405 37.208 216.644 39.0682C216.644 39.0682 214.821 38.7538 213.469 40.6498C213.469 40.6498 212.128 39.8575 211.563 41.2619C211.563 41.2619 209.99 44.1267 210.569 47.0488C210.739 47.9865 210.962 48.9137 211.237 49.8261Z" fill="#E6E6E6"/>
<path d="M235.692 74.0653C234.555 68.9326 233.132 67.2212 233.132 67.2212L232.589 66.8282L231.746 66.2195L231.686 66.1752L231.677 66.1849L225.994 63.465L222.119 59.8623C221.715 59.4874 221.186 59.2772 220.635 59.273L214.378 59.2259C214.037 59.2233 213.701 59.2999 213.394 59.4497C213.088 59.5995 212.821 59.8184 212.614 60.0892L210.633 62.6681L202.979 65.0615L202.062 65.5693C202.062 65.5693 199.501 68.992 199.501 72.1284C199.501 72.8396 199.34 74.9425 199.093 77.769H236.064C236.031 76.527 235.907 75.2891 235.692 74.0653Z" fill="#E6E6E6"/>
<path d="M211.343 125.729H144.964C142.773 125.727 140.673 124.853 139.124 123.301C137.576 121.749 136.704 119.644 136.702 117.449V71.8819C136.704 69.6865 137.576 67.5818 139.124 66.0295C140.673 64.4772 142.773 63.6039 144.964 63.6014H211.343C213.534 63.6039 215.634 64.4771 217.183 66.0295C218.732 67.5818 219.603 69.6865 219.605 71.8819V117.449C219.603 119.644 218.732 121.749 217.183 123.301C215.634 124.853 213.534 125.727 211.343 125.729ZM144.964 67.9596C143.926 67.9608 142.931 68.3744 142.198 69.1097C141.464 69.845 141.051 70.842 141.05 71.8819V117.449C141.051 118.489 141.464 119.486 142.198 120.221C142.931 120.956 143.926 121.37 144.964 121.371H211.343C212.381 121.37 213.376 120.956 214.109 120.221C214.843 119.486 215.256 118.489 215.257 117.449V71.8819C215.256 70.842 214.843 69.845 214.109 69.1097C213.376 68.3744 212.381 67.9608 211.343 67.9596H144.964Z" fill="#E6E6E6"/>
<path d="M211.343 65.5621H144.964C143.292 65.5644 141.689 66.2311 140.507 67.416C139.324 68.6009 138.659 70.2074 138.657 71.8832V117.45C138.659 119.126 139.325 120.732 140.507 121.916C141.689 123.1 143.292 123.766 144.964 123.768H211.343C213.014 123.766 214.617 123.1 215.799 121.916C216.982 120.732 217.647 119.126 217.649 117.45V71.8832C217.647 70.2074 216.982 68.6009 215.8 67.416C214.617 66.2311 213.015 65.5644 211.343 65.5621Z" fill="white"/>
<path d="M189.831 84.6113C192.694 84.6113 195.015 82.2853 195.015 79.416C195.015 76.5466 192.694 74.2206 189.831 74.2206C186.968 74.2206 184.647 76.5466 184.647 79.416C184.647 82.2853 186.968 84.6113 189.831 84.6113Z" fill="#2F2E41"/>
<path d="M179.182 102.266C186.434 102.266 192.314 96.3732 192.314 89.1043C192.314 81.8353 186.434 75.9426 179.182 75.9426C171.929 75.9426 166.05 81.8353 166.05 89.1043C166.05 96.3732 171.929 102.266 179.182 102.266Z" fill="#2F2E41"/>
<path d="M176.9 103.066C182.794 103.066 187.571 98.2778 187.571 92.371C187.571 86.4641 182.794 81.6757 176.9 81.6757C171.007 81.6757 166.229 86.4641 166.229 92.371C166.229 98.2778 171.007 103.066 176.9 103.066Z" fill="#9E616A"/>
<path d="M172.877 79.0516C174.95 78.3436 177.175 78.2069 179.319 78.6556C181.462 79.1043 183.447 80.122 185.064 81.6023C186.681 83.0826 187.871 84.9711 188.511 87.0704C189.15 89.1697 189.215 91.4027 188.699 93.5358C183.095 93.6871 177.292 93.465 172.084 90.1638L171.476 86.5867L169.959 89.6921C168.078 90.0136 166.218 90.2254 164.781 88.5294C165.184 86.3776 166.145 84.3697 167.566 82.7065C168.987 81.0433 170.818 79.783 172.877 79.0516Z" fill="#2F2E41"/>
<path d="M197.6 66.7007C201.456 65.8735 205.678 67.6076 208.032 70.7789C210.385 73.9502 210.858 78.3627 209.448 82.0535C208.01 85.8188 204.903 88.6445 201.999 91.4342C199.095 94.2239 196.171 97.3385 195.299 101.275C194.671 104.11 195.191 107.078 196.743 109.53C198.296 111.982 200.756 113.716 203.583 114.353C199.946 115.044 196.157 115.731 192.584 114.756C189.012 113.781 185.745 110.611 185.95 106.906C186.098 104.236 187.916 102.006 189.498 99.8534C192.074 96.3449 194.219 92.5376 195.885 88.5141C196.681 86.5937 197.376 84.5434 197.153 82.4764C196.951 80.9365 196.262 79.5023 195.185 78.3853C194.109 77.2682 192.703 76.5273 191.174 76.2719L190.221 74.9303C190.539 70.9909 193.744 67.5279 197.6 66.7007Z" fill="#2F2E41"/>
<path d="M201.383 123.473C200.692 116.415 196.787 116.692 196.787 116.692L186.475 114.672L181.958 107.156L170.62 106.713L166.583 113.807L158.289 114.846L158.282 114.963C157.46 115.026 154.495 115.677 153.9 121.742C153.845 122.299 153.769 122.982 153.672 123.768H201.414C201.404 123.664 201.393 123.567 201.383 123.473Z" fill="#2F2E41"/>
</g>
<defs>
<clipPath id="clip0_17_764">
<rect width="259" height="191" fill="white"/>
</clipPath>
</defs>
</svg>
