<svg width="259" height="198" viewBox="0 0 259 198" fill="none" xmlns="http://www.w3.org/2000/svg">
<g clip-path="url(#clip0_17_382)">
<path d="M0 179.466C0 179.684 0.174053 179.859 0.390797 179.859H258.609C258.826 179.859 259 179.684 259 179.466C259 179.249 258.826 179.074 258.609 179.074H0.390797C0.174053 179.074 0 179.249 0 179.466Z" fill="#3F3D56"/>
<path d="M141.889 68.5123L144.555 51.8011L126.569 44.449L123.906 69.8469L141.889 68.5123Z" fill="#A0616A"/>
<path d="M137.344 57.1726C147.473 57.1726 155.685 48.9324 155.685 38.7676C155.685 28.6028 147.473 20.3625 137.344 20.3625C127.214 20.3625 119.003 28.6028 119.003 38.7676C119.003 48.9324 127.214 57.1726 137.344 57.1726Z" fill="#A0616A"/>
<path d="M135.883 14.0254C136.415 14.3352 137.124 13.8673 137.295 13.2741C137.465 12.6809 137.265 12.0515 137.071 11.4682C136.743 10.4894 136.411 9.5074 136.083 8.52865C135.38 6.44264 134.635 4.28413 133.117 2.69572C130.822 0.299937 127.177 -0.30972 123.896 0.131869C119.683 0.698685 115.522 2.98902 113.564 6.77548C111.604 10.5619 112.438 15.8478 115.981 18.2107C110.934 24.0139 109.174 30.4862 109.453 38.1843C109.732 45.8825 118.09 52.9677 123.545 58.392C124.763 57.6505 125.87 54.1804 125.2 52.9183C124.53 51.6561 125.489 50.1962 124.661 49.0362C123.834 47.8762 123.137 49.725 123.978 48.5683C124.507 47.84 122.441 46.1626 123.229 45.7276C127.032 43.6185 128.296 38.8599 130.687 35.2184C133.567 30.8256 138.5 27.8498 143.718 27.3555C146.592 27.082 149.629 27.5763 151.984 29.2504C154.339 30.9245 155.866 33.9167 155.321 36.764C156.736 35.3206 157.439 33.2082 157.173 31.2046C156.907 29.201 155.679 27.3423 153.935 26.324C154.992 22.8111 154.086 18.7709 151.629 16.0521C149.173 13.3334 139.203 13.7981 135.617 14.5132" fill="#2F2E41"/>
<path d="M135.324 27.4576C130.572 27.9717 127.14 32.1042 124.244 35.917C122.576 38.1151 120.825 40.5438 120.868 43.3087C120.911 46.1032 122.773 48.499 123.663 51.1486C125.117 55.4788 123.699 60.6263 120.237 63.5922C123.659 64.2447 127.357 61.6709 127.948 58.2272C128.635 54.2199 125.607 50.3511 125.965 46.2977C126.28 42.7287 129.085 39.9803 131.465 37.311C133.846 34.6417 136.086 31.0991 134.989 27.6883" fill="#2F2E41"/>
<path d="M136.234 196.023C136.234 196.023 96.4974 199.977 93.5417 195.364C90.5861 190.75 133.866 186.136 133.866 186.136L136.234 196.023Z" fill="#A0616A"/>
<path d="M110.898 122.093L110.077 126.466C112.313 129.778 112.527 133.278 111.226 136.922L156.546 137.252C156.059 132.325 155.524 127.046 157.39 122.205L110.898 122.093Z" fill="#A0616A"/>
<path d="M185.129 154.609L168.693 141.414C166.509 139.661 165.094 137.054 164.815 134.263L162.283 109.129L177.373 104.08L181.011 128.967L190.078 149.646L185.133 154.609H185.129Z" fill="#A0616A"/>
<path d="M122.228 66.8941L144.23 65.9055L167.547 77.0507L158.023 122.587L109.748 126.212L103.18 75.7918L122.228 66.8941Z" fill="#E85C43"/>
<path d="M157.389 133.08C160.696 137.453 162.082 147.982 163.488 158.455C163.488 158.455 102.405 158.125 102.077 158.125C101.749 158.125 111.413 136.046 111.413 136.046L157.389 133.08Z" fill="#2F2E41"/>
<path d="M159.386 155.66L163.491 158.455C163.491 158.455 221.618 154.5 216.692 172.955C211.766 191.409 196.331 194.375 196.331 194.375L133.935 198L133.278 187.784C133.278 187.784 73.1809 201.295 67.5981 173.614C62.0152 145.932 102.08 158.125 102.08 158.125L159.386 155.66Z" fill="#2F2E41"/>
<path d="M134.858 177.568C134.858 177.568 136.234 170.318 146.086 173.284C155.938 176.25 161.521 180.205 161.521 180.205L137.876 186.136L134.858 177.568Z" fill="#A0616A"/>
<path d="M159.501 76.2862C159.501 76.2862 170.667 72.3316 174.936 85.1839C179.205 98.0361 178.22 108.582 178.22 108.582L161.8 113.854L159.501 76.2862Z" fill="#E85C43"/>
<path d="M82.9344 156.616L79.3516 150.282L87.092 130.948L90.7307 106.057L105.821 111.106L103.256 136.547C102.993 139.147 101.676 141.572 99.6435 143.203L82.9344 156.619V156.616Z" fill="#A0616A"/>
<path d="M108.599 76.2862C108.599 76.2862 97.4333 72.3316 93.1641 85.1839C88.8949 98.0361 89.8801 108.582 89.8801 108.582L106.3 113.854L108.599 76.2862Z" fill="#E85C43"/>
<path d="M189.878 157.519C194.231 157.519 197.76 152.281 197.76 145.82C197.76 139.359 194.231 134.121 189.878 134.121C185.525 134.121 181.997 139.359 181.997 145.82C181.997 152.281 185.525 157.519 189.878 157.519Z" fill="#A0616A"/>
<path d="M79.2071 159.496C83.56 159.496 87.0887 154.258 87.0887 147.797C87.0887 141.336 83.56 136.098 79.2071 136.098C74.8542 136.098 71.3254 141.336 71.3254 147.797C71.3254 154.258 74.8542 159.496 79.2071 159.496Z" fill="#A0616A"/>
<path d="M109.305 167.352L137.876 175.591L143.459 185.477L132.782 187.784" fill="#2F2E41"/>
</g>
<defs>
<clipPath id="clip0_17_382">
<rect width="259" height="198" fill="white"/>
</clipPath>
</defs>
</svg>
