<svg width="208" height="242" viewBox="0 0 208 242" fill="none" xmlns="http://www.w3.org/2000/svg">
<g clip-path="url(#clip0_17_664)">
<path d="M200.81 89.1948H7.01305C5.28628 89.1928 3.63079 88.5043 2.40978 87.2805C1.18877 86.0567 0.501933 84.3974 0.499939 82.6666V6.52818C0.501933 4.79741 1.18877 3.1381 2.40978 1.91426C3.63079 0.690426 5.28628 0.00199848 7.01305 0H200.81C202.536 0.00199848 204.192 0.690426 205.413 1.91426C206.634 3.1381 207.321 4.79741 207.323 6.52818V82.6666C207.321 84.3974 206.634 86.0567 205.413 87.2805C204.192 88.5043 202.536 89.1928 200.81 89.1948Z" fill="#F2F2F2"/>
<path d="M155.612 85.0313H37.7753C28.9943 85.0213 20.5758 81.5206 14.3666 75.2971C8.15751 69.0736 4.66488 60.6356 4.65497 51.8342V37.3642C4.66487 28.5629 8.15749 20.1248 14.3666 13.9013C20.5757 7.67775 28.9943 4.17698 37.7753 4.16699H170.048C178.83 4.17698 187.248 7.67775 193.457 13.9013C199.666 20.1248 203.159 28.5629 203.169 37.3642C203.155 50.0019 198.14 62.1179 189.224 71.0541C180.308 79.9903 168.22 85.017 155.612 85.0313Z" fill="white"/>
<path d="M125.215 25.9628H47.3234C46.8779 25.9628 46.4507 25.7854 46.1357 25.4697C45.8206 25.154 45.6437 24.7257 45.6437 24.2792C45.6437 23.8327 45.8206 23.4044 46.1357 23.0887C46.4507 22.773 46.8779 22.5956 47.3234 22.5956H125.215C125.66 22.5956 126.088 22.773 126.403 23.0887C126.718 23.4044 126.895 23.8327 126.895 24.2792C126.895 24.7257 126.718 25.154 126.403 25.4697C126.088 25.7854 125.66 25.9628 125.215 25.9628Z" fill="#E6E6E6"/>
<path d="M164.645 43.926H47.3234C46.8779 43.926 46.4507 43.7486 46.1357 43.4328C45.8206 43.1171 45.6437 42.6889 45.6437 42.2423C45.6437 41.7958 45.8206 41.3676 46.1357 41.0518C46.4507 40.7361 46.8779 40.5587 47.3234 40.5587H164.645C165.09 40.5587 165.518 40.7361 165.833 41.0518C166.148 41.3676 166.325 41.7958 166.325 42.2423C166.325 42.6889 166.148 43.1171 165.833 43.4328C165.518 43.7486 165.09 43.926 164.645 43.926Z" fill="#E6E6E6"/>
<path d="M164.645 61.8891H47.3234C46.8779 61.8891 46.4507 61.7117 46.1357 61.396C45.8206 61.0802 45.6437 60.652 45.6437 60.2055C45.6437 59.7589 45.8206 59.3307 46.1357 59.015C46.4507 58.6992 46.8779 58.5219 47.3234 58.5219H164.645C165.09 58.5219 165.518 58.6992 165.833 59.015C166.148 59.3307 166.325 59.7589 166.325 60.2055C166.325 60.652 166.148 61.0802 165.833 61.396C165.518 61.7117 165.09 61.8891 164.645 61.8891Z" fill="#E6E6E6"/>
<path d="M164.645 61.8891H47.3234C46.8779 61.8891 46.4507 61.7117 46.1357 61.396C45.8206 61.0802 45.6437 60.652 45.6437 60.2055C45.6437 59.7589 45.8206 59.3307 46.1357 59.015C46.4507 58.6992 46.8779 58.5219 47.3234 58.5219H164.645C165.09 58.5219 165.518 58.6992 165.833 59.015C166.148 59.3307 166.325 59.7589 166.325 60.2055C166.325 60.652 166.148 61.0802 165.833 61.396C165.518 61.7117 165.09 61.8891 164.645 61.8891Z" fill="#E6E6E6"/>
<path d="M116.995 45.9877C117.014 46.4948 117.143 46.9917 117.374 47.4433C117.605 47.8949 117.932 48.2902 118.332 48.6015C118.732 48.9127 119.195 49.1323 119.689 49.2447C120.183 49.3572 120.695 49.3597 121.19 49.2522L127.596 59.7854L130.322 53.9866L123.821 44.8732C123.586 44.052 123.058 43.3458 122.338 42.8884C121.618 42.4311 120.756 42.2544 119.914 42.3917C119.073 42.5291 118.311 42.971 117.773 43.6338C117.235 44.2966 116.958 45.1341 116.995 45.9877Z" fill="#FFB6B6"/>
<path d="M165.067 76.175L142.991 64.1729L136.028 57.6249C136.028 57.6249 133.001 56.8126 134.115 55.8261C135.229 54.8395 132.054 53.8881 132.054 53.8881L128.316 50.3729L123.005 54.1399L124.542 56.5284C124.542 56.5284 124.436 60.4823 126.597 59.7216C128.758 58.961 128.218 62.2402 128.218 62.2402L141.117 82.2814L165.067 76.175Z" fill="#3F3D56"/>
<path d="M99.9017 64.8673C111.811 64.8673 121.464 55.191 121.464 43.2546C121.464 31.3183 111.811 21.642 99.9017 21.642C87.993 21.642 78.339 31.3183 78.339 43.2546C78.339 55.191 87.993 64.8673 99.9017 64.8673Z" fill="#E85C43"/>
<path d="M165.135 233.597H160.652L158.518 216.264H165.135V233.597Z" fill="#FFB6B6"/>
<path d="M167.502 241.383H164.287L163.713 238.341L162.243 241.383H153.715C153.306 241.383 152.908 241.252 152.579 241.01C152.25 240.767 152.007 240.425 151.885 240.034C151.763 239.643 151.77 239.223 151.903 238.835C152.036 238.448 152.289 238.114 152.626 237.881L159.436 233.167V230.091L166.599 230.519L167.502 241.383Z" fill="#2F2E41"/>
<path d="M129.277 233.597H124.793L122.66 216.264H129.277V233.597Z" fill="#FFB6B6"/>
<path d="M131.643 241.383H128.428L127.854 238.341L126.384 241.383H117.856C117.448 241.383 117.05 241.252 116.72 241.01C116.391 240.767 116.148 240.425 116.026 240.034C115.905 239.643 115.911 239.223 116.044 238.835C116.177 238.448 116.431 238.114 116.767 237.881L123.577 233.167V230.091L130.74 230.519L131.643 241.383Z" fill="#2F2E41"/>
<path d="M160.378 102.506H137.749V128.329H160.378V102.506Z" fill="#FFB6B6"/>
<path d="M138.271 115.243L134.441 119.78L127.827 133.737L111.159 173.486L107.634 181.892L110.481 196.753C110.481 196.753 110.942 207.222 110.942 208.936C110.942 212.425 113.854 214.359 113.854 214.359L115.99 225.511L136.704 224.639C136.704 224.639 135.982 212.346 131.643 209.245C127.305 206.144 125.31 189.984 125.31 189.984L122.953 182.814L145.93 155.514L146.078 165.057L146.15 169.676C146.15 169.676 142.785 199.718 146.708 205.548C150.63 211.379 146.788 210.693 146.788 210.693L146.975 222.719L171.519 222.894L166.104 188.268C166.104 188.268 163.354 186.092 164.825 183.905C166.296 181.718 163.4 179.039 163.4 179.039L164.699 152.008C164.699 152.008 163.26 147.339 164.952 146.732C166.645 146.125 165.175 142.11 165.175 142.11L165.426 136.878L160.378 120.652L138.271 115.243Z" fill="#2F2E41"/>
<path d="M160.726 102.507L163.163 95.1786L164.904 92.736L165.6 85.757C165.6 66.9138 161.407 70.0515 161.407 70.0515L158.986 63.4243L147.845 63.0753L140.708 69.8798L134.79 71.9735L132.472 84.0437L136.704 96.9234L137.749 103.902C135.756 107.589 135.925 105.845 137.575 108.613L157.245 114.022C164.208 116.464 164.208 110.183 162.811 108.613C161.415 107.043 160.726 102.507 160.726 102.507Z" fill="#3F3D56"/>
<path d="M151.976 60.7329C157.68 60.7329 162.304 56.0983 162.304 50.3813C162.304 44.6642 157.68 40.0297 151.976 40.0297C146.272 40.0297 141.648 44.6642 141.648 50.3813C141.648 56.0983 146.272 60.7329 151.976 60.7329Z" fill="#FFB6B6"/>
<path d="M165.764 64.1988C165.861 64.3634 165.92 64.5479 165.936 64.7385C165.953 64.9291 165.926 65.1209 165.858 65.2996C165.79 65.4784 165.683 65.6395 165.544 65.7709C165.405 65.9024 165.239 66.0007 165.057 66.0587C163.672 66.5194 162.819 67.8628 161.823 68.9376C160.831 70.0089 159.233 70.8987 157.965 70.1693C156.702 69.4436 156.615 67.5906 155.556 66.5857C154.526 65.6086 152.813 65.7272 151.601 66.4705L151.565 66.4928C151.356 66.6295 151.112 66.7017 150.862 66.7006C150.612 66.6994 150.368 66.625 150.161 66.4864C149.953 66.3479 149.79 66.1513 149.692 65.921C149.595 65.6907 149.567 65.4367 149.611 65.1906C150.036 62.9277 150.46 60.6651 150.884 58.4028C149.77 61.0933 148.152 63.5452 146.118 65.6261C145.558 66.2741 144.848 66.7749 144.05 67.0847C143.326 67.315 142.623 66.5647 141.92 66.7008C143.667 65.1689 149.544 55.3495 148.492 48.7858C147.257 48.9253 146.021 49.0649 144.785 49.2045C144.651 48.6183 144.365 48.0778 143.956 47.6377C144.006 48.2083 143.934 48.783 143.744 49.3231C143.229 49.3825 142.71 49.4383 142.195 49.4976C141.477 49.5779 140.698 49.6477 140.081 49.2708C139.054 48.6427 139.023 47.1562 139.315 45.9837C140.172 42.5745 142.769 39.7236 145.948 38.2301C149.126 36.7401 150.066 40.0586 153.415 38.9978C160.03 36.9041 165.099 40.4843 166.885 47.1283C168.385 52.701 167.296 58.6157 165.764 64.1988Z" fill="#2F2E41"/>
<path d="M194.356 241.608H181.71L181.655 241.51C181.494 241.216 181.338 240.904 181.192 240.584C179.889 237.789 179.338 234.592 178.853 231.772L178.487 229.646C178.443 229.388 178.476 229.123 178.583 228.885C178.689 228.646 178.865 228.445 179.086 228.307C179.308 228.17 179.565 228.101 179.825 228.111C180.086 228.12 180.338 228.207 180.548 228.361C182.47 229.763 184.393 231.163 186.316 232.562C187.045 233.093 187.876 233.708 188.673 234.372C188.75 233.998 188.83 233.623 188.91 233.253C188.966 232.998 189.096 232.765 189.284 232.584C189.473 232.403 189.711 232.282 189.968 232.238C190.225 232.193 190.489 232.227 190.727 232.334C190.965 232.441 191.166 232.616 191.304 232.838L192.783 235.221C193.862 236.961 194.815 238.676 194.621 240.525C194.622 240.547 194.62 240.57 194.616 240.592C194.577 240.896 194.505 241.194 194.401 241.482L194.356 241.608Z" fill="#F0F0F0"/>
<path d="M207.049 241.883L86.878 242C86.7581 241.999 86.6433 241.951 86.5587 241.866C86.4741 241.781 86.4266 241.666 86.4266 241.545C86.4266 241.425 86.4741 241.31 86.5587 241.225C86.6433 241.139 86.7581 241.091 86.878 241.091L207.049 240.973C207.169 240.974 207.283 241.022 207.368 241.107C207.453 241.192 207.5 241.308 207.5 241.428C207.5 241.548 207.453 241.663 207.368 241.749C207.283 241.834 207.169 241.882 207.049 241.883Z" fill="#CACACA"/>
<path d="M97.9416 72.3436L84.7234 61.1551C84.2716 60.7718 83.9899 60.2245 83.9402 59.6333C83.8904 59.0421 84.0767 58.4552 84.4581 58.0015L86.891 55.114C87.2734 54.6611 87.8194 54.3788 88.4093 54.329C88.9991 54.2791 89.5846 54.4658 90.0372 54.8481L103.255 66.0367C103.707 66.42 103.989 66.9673 104.039 67.5585C104.088 68.1497 103.902 68.7366 103.521 69.1903L101.088 72.0778C100.705 72.5306 100.159 72.813 99.5696 72.8628C98.9798 72.9127 98.3943 72.7259 97.9416 72.3436Z" fill="#3F3D56"/>
<path d="M85.417 58.2343C85.2115 58.4788 85.1111 58.7951 85.1379 59.1137C85.1647 59.4322 85.3165 59.7272 85.56 59.9337L98.7782 71.1223C99.0222 71.3283 99.3377 71.4289 99.6555 71.4021C99.9734 71.3752 100.268 71.2231 100.474 70.979L102.907 68.0915C103.112 67.847 103.212 67.5308 103.186 67.2122C103.159 66.8936 103.007 66.5987 102.764 66.3922L89.5453 55.2036C89.3014 54.9976 88.9859 54.897 88.6681 54.9238C88.3502 54.9507 88.056 55.1028 87.8499 55.3468L85.417 58.2343Z" fill="white"/>
<path d="M93.177 62.5839C93.1311 62.6482 93.0709 62.701 93.0011 62.7379C92.9314 62.7749 92.854 62.7951 92.7751 62.7969L90.6983 62.8447C90.6315 62.8462 90.5652 62.8346 90.503 62.8104C90.4407 62.7862 90.3839 62.75 90.3356 62.7038C90.2873 62.6576 90.2486 62.6023 90.2217 62.5411C90.1947 62.4799 90.1801 62.414 90.1785 62.3471C90.177 62.2803 90.1886 62.2137 90.2128 62.1514C90.2369 62.089 90.273 62.032 90.3191 61.9836C90.3652 61.9353 90.4204 61.8965 90.4814 61.8694C90.5425 61.8424 90.6082 61.8277 90.675 61.8262L92.0337 61.7949L90.6956 58.256C90.6482 58.1298 90.6527 57.9899 90.7081 57.8669C90.7635 57.744 90.8653 57.6481 90.9912 57.6003C91.117 57.5525 91.2566 57.5567 91.3794 57.6119C91.5022 57.6672 91.5981 57.769 91.6461 57.895L93.2388 62.1071C93.2676 62.1833 93.2777 62.2653 93.2684 62.3463C93.259 62.4272 93.2304 62.5047 93.1851 62.5723L93.177 62.5839Z" fill="#E85C43"/>
<path d="M93.4434 63.4733C93.9443 63.547 94.423 63.7299 94.8458 64.0092C95.2686 64.2884 95.6251 64.6572 95.8903 65.0895C96.1555 65.5218 96.3229 66.0071 96.3807 66.5113C96.4386 67.0154 96.3854 67.5262 96.225 68.0075L105.975 75.5354L99.9275 77.6213L91.5959 70.1529C90.807 69.8292 90.164 69.2267 89.7887 68.4596C89.4134 67.6924 89.3319 66.8139 89.5596 65.9906C89.7873 65.1672 90.3085 64.4562 91.0243 63.9923C91.7401 63.5283 92.6008 63.3436 93.4434 63.4733Z" fill="#FFB6B6"/>
<path d="M144.204 67.1953L119.241 82.5792C119.241 82.5792 109.176 78.8465 111.143 77.1186C113.11 75.3906 106.848 74.2224 106.848 74.2224L99.9307 69.5577L95.9166 74.2336C95.9166 74.2336 96.648 81.8286 97.8924 80.5135C99.1369 79.1984 100.997 82.791 100.997 82.791C100.997 82.791 101.547 86.8023 105.089 85.7928C108.632 84.7834 118.138 95.3645 118.138 95.3645L148.86 83.8798L144.204 67.1953Z" fill="#3F3D56"/>
<path d="M99.1435 51.9243C98.8541 51.9243 98.5687 51.8568 98.3098 51.727C98.051 51.5973 97.8259 51.4089 97.6523 51.1768L93.0804 45.0666C92.9335 44.8703 92.8266 44.647 92.7659 44.4093C92.7051 44.1716 92.6917 43.9242 92.7263 43.6813C92.761 43.4384 92.843 43.2048 92.9677 42.9936C93.0924 42.7825 93.2574 42.5981 93.4533 42.4509C93.8488 42.1536 94.3459 42.0259 94.8354 42.096C95.0777 42.1307 95.3108 42.2129 95.5215 42.3379C95.7321 42.463 95.9161 42.6283 96.063 42.8246L99.0541 46.8217L106.736 35.2717C107.011 34.8594 107.437 34.5732 107.922 34.476C108.407 34.3788 108.91 34.4786 109.322 34.7535C109.733 35.0284 110.019 35.4558 110.115 35.9418C110.212 36.4277 110.113 36.9323 109.839 37.3446L100.695 51.0922C100.529 51.3409 100.307 51.5461 100.046 51.6908C99.7851 51.8355 99.4934 51.9154 99.1953 51.9237C99.1781 51.924 99.1608 51.9243 99.1435 51.9243Z" fill="white"/>
</g>
<defs>
<clipPath id="clip0_17_664">
<rect width="207" height="242" fill="white" transform="translate(0.5)"/>
</clipPath>
</defs>
</svg>
