<svg width="260" height="191" viewBox="0 0 260 191" fill="none" xmlns="http://www.w3.org/2000/svg">
<g clip-path="url(#clip0_17_501)">
<path d="M96.2492 117.683L42.634 128.98C41.0846 129.305 39.4696 129.002 38.1434 128.138C36.8172 127.273 35.888 125.919 35.5598 124.371L26.3595 80.7392C26.0347 79.1904 26.3378 77.5761 27.2023 76.2504C28.0667 74.9247 29.422 73.9959 30.9706 73.6678L84.5858 62.371C86.1352 62.0464 87.7502 62.3494 89.0764 63.2135C90.4026 64.0776 91.3318 65.4323 91.66 66.9804L100.86 110.612C101.185 112.161 100.882 113.775 100.018 115.101C99.1531 116.426 97.7979 117.355 96.2492 117.683ZM31.1155 74.3549C29.7491 74.6444 28.5533 75.4639 27.7905 76.6337C27.0278 77.8034 26.7603 79.2278 27.0469 80.5944L36.2472 124.226C36.5368 125.592 37.3566 126.787 38.5268 127.549C39.697 128.312 41.122 128.579 42.4891 128.293L96.1043 116.996C97.4707 116.707 98.6665 115.887 99.4293 114.717C100.192 113.548 100.46 112.123 100.173 110.757L90.9727 67.1252C90.683 65.7593 89.8632 64.5639 88.693 63.8015C87.5228 63.039 86.0978 62.7717 84.7307 63.0581L31.1155 74.3549Z" fill="#3F3D56"/>
<path d="M81.2546 76.7576L54.1957 82.4589C53.9589 82.5138 53.7101 82.4768 53.4995 82.3554C53.289 82.234 53.1324 82.0372 53.0614 81.8048C53.029 81.6836 53.0216 81.557 53.0397 81.4329C53.0578 81.3087 53.101 81.1895 53.1667 81.0826C53.2324 80.9757 53.3191 80.8833 53.4217 80.811C53.5243 80.7387 53.6406 80.6881 53.7634 80.6622L81.3077 74.8586C82.3832 75.4645 82.0433 76.5914 81.2542 76.7577L81.2546 76.7576Z" fill="#CCCCCC"/>
<path d="M82.255 81.5021L55.1961 87.2034C54.9593 87.2583 54.7105 87.2214 54.5 87.0999C54.2894 86.9785 54.1328 86.7817 54.0619 86.5493C54.0294 86.4281 54.022 86.3015 54.0401 86.1774C54.0582 86.0532 54.1014 85.9341 54.1671 85.8271C54.2328 85.7202 54.3196 85.6278 54.4222 85.5555C54.5248 85.4833 54.641 85.4326 54.7638 85.4068L82.3081 79.6031C83.3836 80.209 83.044 81.3358 82.255 81.5021Z" fill="#CCCCCC"/>
<path d="M49.9163 91.1373L41.6581 92.8773C41.3884 92.9338 41.1073 92.8811 40.8765 92.7307C40.6456 92.5803 40.4839 92.3445 40.4268 92.075L38.3727 82.3335C38.3161 82.0639 38.3689 81.7829 38.5193 81.5522C38.6698 81.3214 38.9057 81.1597 39.1753 81.1026L47.4334 79.3627C47.7031 79.3062 47.9842 79.359 48.215 79.5094C48.4458 79.6598 48.6075 79.8955 48.6647 80.165L50.7189 89.9064C50.7754 90.176 50.7227 90.457 50.5722 90.6878C50.4217 90.9186 50.1858 91.0802 49.9163 91.1373Z" fill="#CCCCCC"/>
<path d="M84.2247 91.233L42.9279 99.9343C42.6911 99.9892 42.4423 99.9522 42.2317 99.8308C42.0212 99.7094 41.8646 99.5125 41.7936 99.2801C41.7612 99.1589 41.7538 99.0324 41.7719 98.9082C41.79 98.7841 41.8332 98.6649 41.8989 98.558C41.9646 98.4511 42.0514 98.3587 42.154 98.2864C42.2566 98.2141 42.3728 98.1635 42.4956 98.1376L84.2782 89.334C85.3536 89.9398 85.0137 91.0667 84.2247 91.233Z" fill="#CCCCCC"/>
<path d="M85.2254 95.9788L43.9286 104.68C43.6918 104.735 43.443 104.698 43.2325 104.577C43.0219 104.455 42.8653 104.258 42.7944 104.026C42.7619 103.905 42.7545 103.778 42.7726 103.654C42.7907 103.53 42.8339 103.411 42.8996 103.304C42.9653 103.197 43.0521 103.105 43.1547 103.032C43.2573 102.96 43.3735 102.909 43.4964 102.883L85.2789 94.0798C86.3544 94.6857 86.0145 95.8126 85.2254 95.9788Z" fill="#CCCCCC"/>
<path d="M86.2255 100.722L44.9287 109.423C44.6919 109.478 44.4431 109.441 44.2325 109.319C44.022 109.198 43.8654 109.001 43.7944 108.769C43.762 108.648 43.7546 108.521 43.7727 108.397C43.7908 108.273 43.834 108.154 43.8997 108.047C43.9654 107.94 44.0522 107.847 44.1548 107.775C44.2574 107.703 44.3736 107.652 44.4964 107.626L86.279 98.8226C87.3544 99.4285 87.0145 100.555 86.2255 100.722Z" fill="#CCCCCC"/>
<path d="M87.2262 105.467L45.9294 114.168C45.6926 114.223 45.4438 114.186 45.2332 114.065C45.0227 113.943 44.8661 113.747 44.7951 113.514C44.7627 113.393 44.7553 113.267 44.7734 113.142C44.7914 113.018 44.8347 112.899 44.9003 112.792C44.966 112.685 45.0528 112.593 45.1554 112.521C45.258 112.448 45.3743 112.398 45.4971 112.372L87.2796 103.568C88.3551 104.174 88.0152 105.301 87.2262 105.467Z" fill="#CCCCCC"/>
<path d="M88.2263 110.21L46.9295 118.911C46.6927 118.966 46.4439 118.929 46.2333 118.808C46.0228 118.687 45.8662 118.49 45.7953 118.257C45.7628 118.136 45.7554 118.01 45.7735 117.885C45.7916 117.761 45.8348 117.642 45.9005 117.535C45.9662 117.428 46.053 117.336 46.1556 117.264C46.2582 117.191 46.3744 117.141 46.4972 117.115L88.2798 108.311C89.3553 108.917 89.0153 110.044 88.2263 110.21Z" fill="#CCCCCC"/>
<path d="M94.8136 88.4886C94.7198 88.6587 94.6396 88.836 94.5737 89.0188L77.6673 93.2125L74.7263 90.171L69.5543 94.008L74.2374 99.8981C74.6157 100.374 75.1383 100.714 75.7266 100.868C76.3149 101.022 76.9372 100.98 77.5001 100.751L95.845 93.2572C96.448 93.7009 97.1718 93.9505 97.9202 93.973C98.6686 93.9954 99.4061 93.7896 100.035 93.3828C100.663 92.976 101.153 92.3876 101.439 91.6959C101.724 91.0041 101.793 90.2418 101.634 89.5103C101.476 88.7787 101.099 88.1127 100.553 87.6007C100.007 87.0887 99.3176 86.7551 98.5771 86.6442C97.8367 86.5333 97.08 86.6504 96.4077 86.9798C95.7354 87.3093 95.1794 87.8355 94.8136 88.4886Z" fill="#FFB8B8"/>
<path d="M37.1063 125.808C37.6333 125.645 38.1183 125.369 38.527 124.999C38.9357 124.628 39.2582 124.173 39.4718 123.665C39.6854 123.156 39.7849 122.607 39.7632 122.056C39.7416 121.505 39.5994 120.966 39.3466 120.476L50.9811 88.1506L42.9013 86.7192L34.0056 118.944C33.2101 119.423 32.618 120.177 32.3416 121.063C32.0652 121.95 32.1236 122.907 32.5058 123.753C32.888 124.599 33.5675 125.275 34.4153 125.654C35.2632 126.033 36.2207 126.088 37.1063 125.808Z" fill="#FFB8B8"/>
<path d="M49.5035 93.8886L41.526 90.8281C41.299 90.741 41.0934 90.606 40.9234 90.4324C40.7533 90.2587 40.6226 90.0505 40.5403 89.8218C40.458 89.5931 40.4259 89.3494 40.4463 89.1073C40.4667 88.8651 40.5391 88.6301 40.6585 88.4185L44.8435 81.0012C45.2961 79.8433 46.1895 78.9119 47.3278 78.4113C48.4662 77.9107 49.7566 77.8816 50.9164 78.3305C52.0761 78.7793 53.0105 79.6694 53.5149 80.8058C54.0192 81.9421 54.0523 83.232 53.6069 84.3927L51.761 92.6778C51.708 92.915 51.6046 93.138 51.4577 93.3317C51.3108 93.5253 51.1238 93.685 50.9096 93.7999C50.6953 93.9148 50.4589 93.9822 50.2162 93.9975C49.9736 94.0128 49.7305 93.9757 49.5035 93.8886Z" fill="#E85C43"/>
<path d="M67.5098 186.497H71.8156L73.8644 169.894L67.5091 169.895L67.5098 186.497Z" fill="#FFB8B8"/>
<path d="M66.4113 185.092L74.8916 185.092H74.8919C75.6016 185.092 76.3044 185.231 76.9601 185.503C77.6157 185.774 78.2115 186.172 78.7134 186.674C79.2152 187.175 79.6133 187.771 79.8849 188.426C80.1565 189.082 80.2962 189.784 80.2962 190.494V190.669L66.4116 190.67L66.4113 185.092Z" fill="#2F2E41"/>
<path d="M43.2743 186.497H47.5802L49.6289 169.894L43.2736 169.895L43.2743 186.497Z" fill="#FFB8B8"/>
<path d="M42.1758 185.092L50.6561 185.092H50.6564C51.3661 185.092 52.0689 185.231 52.7246 185.503C53.3802 185.774 53.976 186.172 54.4778 186.674C54.9797 187.175 55.3778 187.771 55.6494 188.426C55.921 189.082 56.0607 189.784 56.0607 190.494V190.669L42.1761 190.67L42.1758 185.092Z" fill="#2F2E41"/>
<path d="M47.7885 179.815H42.3392C42.1253 179.815 41.9137 179.771 41.7171 179.687C41.5204 179.603 41.343 179.48 41.1954 179.325C41.0478 179.17 40.9331 178.987 40.8584 178.787C40.7836 178.587 40.7503 178.373 40.7604 178.16L43.3488 122.569L43.5119 122.564L69.8265 121.879L74.9758 177.501C74.9956 177.71 74.9737 177.92 74.9114 178.12C74.8492 178.32 74.7477 178.506 74.6131 178.666C74.4784 178.827 74.3131 178.959 74.1269 179.055C73.9407 179.151 73.7372 179.209 73.5284 179.226L67.4076 179.715C67.0231 179.746 66.6406 179.635 66.3323 179.403C66.0239 179.171 65.8108 178.835 65.7332 178.457L57.904 138.861C57.8826 138.741 57.8188 138.632 57.7241 138.555C57.6295 138.478 57.5102 138.437 57.388 138.44H57.3859C57.2633 138.437 57.1438 138.479 57.0492 138.557C56.9547 138.635 56.8913 138.744 56.8708 138.865L49.3394 178.54C49.268 178.899 49.0746 179.222 48.7918 179.454C48.5091 179.687 48.1546 179.814 47.7885 179.815Z" fill="#2F2E41"/>
<path d="M57.7707 72.9888C62.5351 72.9888 66.3974 69.128 66.3974 64.3654C66.3974 59.6028 62.5351 55.7419 57.7707 55.7419C53.0062 55.7419 49.1439 59.6028 49.1439 64.3654C49.1439 69.128 53.0062 72.9888 57.7707 72.9888Z" fill="#FFB8B8"/>
<path d="M54.878 129.083C50.7663 129.083 46.543 128.003 43.0419 124.809C42.8556 124.64 42.7118 124.43 42.6221 124.195C42.5324 123.96 42.4994 123.707 42.5258 123.457C42.9005 120.092 44.7183 102.714 43.6946 91.1054C43.4948 88.9371 43.8019 86.7521 44.5916 84.7228C45.3813 82.6935 46.632 80.8754 48.2451 79.412C49.8299 77.952 51.7324 76.8801 53.8026 76.2809C55.8727 75.6817 58.0539 75.5716 60.1739 75.9593C60.2814 75.9785 60.3888 75.9987 60.4963 76.0193C67.403 77.3555 72.2017 83.7449 71.6587 90.8818C70.8664 101.296 70.1561 115.382 71.2714 123.348C71.3176 123.673 71.2607 124.006 71.1086 124.298C70.9565 124.589 70.7168 124.827 70.4232 124.976C67.8856 126.257 61.5277 129.083 54.878 129.083Z" fill="#E85C43"/>
<path d="M66.1349 94.5092C65.9325 94.3745 65.7615 94.1978 65.6336 93.9911C65.5058 93.7844 65.424 93.5526 65.394 93.3114L64.343 84.8885C64.0093 83.6907 64.1645 82.4095 64.7744 81.3258C65.3843 80.2421 66.3992 79.4444 67.5965 79.1075C68.7939 78.7707 70.076 78.9222 71.1618 79.5288C72.2476 80.1355 73.0485 81.1477 73.3888 82.3437L76.8507 90.1245C76.9495 90.3466 76.9993 90.5873 76.9966 90.8304C76.9939 91.0734 76.9388 91.313 76.8352 91.5328C76.7315 91.7526 76.5817 91.9475 76.3959 92.1043C76.21 92.261 75.9926 92.3758 75.7584 92.441L67.5263 94.7309C67.2921 94.7962 67.0465 94.8101 66.8064 94.7719C66.5663 94.7336 66.3372 94.644 66.1349 94.5092Z" fill="#E85C43"/>
<path d="M54.7591 72.8671C53.9426 72.8822 53.1311 72.7355 52.3716 72.4353C52.0375 72.3066 51.6906 72.2008 51.357 72.072C48.4113 70.9343 46.4709 67.7984 46.4014 64.6425C46.3319 61.4865 47.9669 58.4234 50.3947 56.4047C52.8225 54.3861 55.9671 53.3497 59.1159 53.11C62.5077 52.8519 66.3269 53.7117 68.2222 56.5352C68.7267 57.2868 69.0795 58.1987 68.7806 59.1062C68.691 59.38 68.5311 59.6255 68.3168 59.8182C67.4704 60.571 66.6266 60.005 65.7638 59.955C64.5778 59.8862 63.5126 60.8458 63.1297 61.97C62.7469 63.0941 62.9154 64.3317 63.2245 65.4783C63.46 66.1682 63.6085 66.8849 63.6665 67.6115C63.6914 67.9759 63.6229 68.3407 63.4673 68.6711C63.3117 69.0016 63.0743 69.2869 62.7775 69.5C62.0364 69.9478 61.0632 69.6886 60.3217 69.2415C59.5802 68.7945 58.9394 68.1729 58.1385 67.8439C57.3375 67.5149 56.2614 67.5879 55.7952 68.3173C55.647 68.5828 55.5467 68.8722 55.4989 69.1724C55.081 71.0758 55.177 70.9637 54.7591 72.8671Z" fill="#2F2E41"/>
<path d="M174.25 61.0919H119.457C117.874 61.0901 116.356 60.4607 115.237 59.3417C114.117 58.2228 113.488 56.7056 113.486 55.1232V10.5331C113.488 8.95062 114.117 7.43348 115.237 6.3145C116.356 5.19553 117.874 4.56611 119.457 4.56433H174.25C175.833 4.56611 177.351 5.19553 178.47 6.3145C179.59 7.43348 180.219 8.95062 180.221 10.5331V55.1232C180.219 56.7056 179.59 58.2228 178.47 59.3417C177.351 60.4607 175.833 61.0901 174.25 61.0919ZM119.457 5.26654C118.06 5.26812 116.721 5.82349 115.733 6.81081C114.745 7.79814 114.19 9.13679 114.188 10.5331V55.1232C114.19 56.5194 114.745 57.8581 115.733 58.8454C116.721 59.8327 118.06 60.3881 119.457 60.3897H174.25C175.647 60.3881 176.986 59.8327 177.974 58.8454C178.962 57.8581 179.517 56.5194 179.519 55.1232V10.5331C179.517 9.13679 178.962 7.79814 177.974 6.81081C176.986 5.82349 175.647 5.26812 174.25 5.26654H119.457Z" fill="#3F3D56"/>
<path d="M168.022 17.9547H140.369C140.126 17.9596 139.89 17.8721 139.709 17.7099C139.528 17.5477 139.415 17.3228 139.394 17.0808C139.387 16.9555 139.406 16.8301 139.449 16.7124C139.493 16.5946 139.559 16.4869 139.646 16.3959C139.732 16.3048 139.836 16.2323 139.951 16.1827C140.067 16.1331 140.191 16.1075 140.316 16.1075H168.466C169.393 16.9221 168.829 17.9547 168.022 17.9547Z" fill="#CCCCCC"/>
<path d="M168.022 22.8034H140.369C140.126 22.8084 139.89 22.7209 139.709 22.5587C139.528 22.3964 139.415 22.1716 139.394 21.9295C139.387 21.8042 139.406 21.6789 139.449 21.5611C139.493 21.4434 139.559 21.3357 139.646 21.2446C139.732 21.1535 139.836 21.081 139.951 21.0314C140.067 20.9819 140.191 20.9563 140.316 20.9563H168.466C169.393 21.7709 168.829 22.8034 168.022 22.8034Z" fill="#CCCCCC"/>
<path d="M134.391 25.5641H125.951C125.676 25.5638 125.411 25.4543 125.217 25.2595C125.022 25.0647 124.912 24.8007 124.912 24.5252V14.5697C124.912 14.2942 125.022 14.0301 125.217 13.8354C125.411 13.6406 125.676 13.531 125.951 13.5308H134.391C134.666 13.5311 134.93 13.6407 135.125 13.8355C135.32 14.0302 135.43 14.2943 135.43 14.5697V24.5252C135.43 24.8007 135.32 25.0647 135.125 25.2595C134.93 25.4543 134.666 25.5638 134.391 25.5641Z" fill="#3F3D56"/>
<path d="M167.942 32.7312H125.738C125.494 32.7361 125.259 32.6486 125.078 32.4864C124.897 32.3242 124.784 32.0993 124.763 31.8573C124.756 31.732 124.775 31.6066 124.818 31.4889C124.861 31.3711 124.928 31.2634 125.015 31.1723C125.101 31.0813 125.205 31.0087 125.32 30.9592C125.436 30.9096 125.56 30.884 125.685 30.884H168.386C169.313 31.6986 168.748 32.7312 167.942 32.7312Z" fill="#CCCCCC"/>
<path d="M167.942 37.5814H125.738C125.494 37.5863 125.259 37.4988 125.078 37.3366C124.897 37.1744 124.784 36.9495 124.763 36.7075C124.756 36.5822 124.775 36.4569 124.818 36.3391C124.861 36.2213 124.928 36.1136 125.015 36.0226C125.101 35.9315 125.205 35.859 125.32 35.8094C125.436 35.7598 125.56 35.7343 125.685 35.7343H168.386C169.313 36.5488 168.748 37.5814 167.942 37.5814Z" fill="#CCCCCC"/>
<path d="M167.942 42.4283H125.738C125.494 42.4333 125.259 42.3458 125.078 42.1835C124.897 42.0213 124.784 41.7965 124.763 41.5544C124.756 41.4291 124.775 41.3038 124.818 41.186C124.861 41.0683 124.928 40.9606 125.015 40.8695C125.101 40.7784 125.205 40.7059 125.32 40.6563C125.436 40.6068 125.56 40.5812 125.685 40.5812H168.386C169.313 41.3957 168.748 42.4283 167.942 42.4283Z" fill="#CCCCCC"/>
<path d="M167.942 47.2782H125.738C125.494 47.2831 125.259 47.1956 125.078 47.0334C124.897 46.8712 124.784 46.6463 124.763 46.4043C124.756 46.279 124.775 46.1536 124.818 46.0359C124.861 45.9181 124.928 45.8104 125.015 45.7193C125.101 45.6283 125.205 45.5557 125.32 45.5062C125.436 45.4566 125.56 45.431 125.685 45.431H168.386C169.313 46.2456 168.748 47.2782 167.942 47.2782Z" fill="#CCCCCC"/>
<path d="M167.942 52.1255H125.738C125.494 52.1304 125.259 52.0429 125.078 51.8807C124.897 51.7185 124.784 51.4936 124.763 51.2516C124.756 51.1263 124.775 51.0009 124.818 50.8832C124.861 50.7654 124.928 50.6577 125.015 50.5666C125.101 50.4756 125.205 50.403 125.32 50.3535C125.436 50.3039 125.56 50.2783 125.685 50.2783H168.386C169.313 51.0929 168.748 52.1255 167.942 52.1255Z" fill="#CCCCCC"/>
<path d="M162.308 0C162.774 0.000532466 163.22 0.185659 163.549 0.514766C163.879 0.843874 164.064 1.29009 164.064 1.75551V7.37316C164.064 7.83859 163.879 8.2848 163.549 8.61391C163.22 8.94302 162.774 9.12814 162.308 9.12868H131.399C130.933 9.12814 130.487 8.94302 130.158 8.61391C129.829 8.2848 129.643 7.83859 129.643 7.37316V1.75551C129.643 1.29009 129.829 0.843874 130.158 0.514766C130.487 0.185659 130.933 0.000532466 131.399 0" fill="#E85C43"/>
<path d="M253.279 116.215H198.486C196.903 116.213 195.385 115.584 194.265 114.465C193.146 113.346 192.516 111.829 192.515 110.246V65.6562C192.516 64.0738 193.146 62.5567 194.265 61.4377C195.385 60.3187 196.903 59.6893 198.486 59.6875H253.279C254.862 59.6893 256.38 60.3187 257.499 61.4377C258.619 62.5567 259.248 64.0738 259.25 65.6562V110.246C259.248 111.829 258.619 113.346 257.499 114.465C256.38 115.584 254.862 116.213 253.279 116.215ZM198.486 60.3897C197.089 60.3913 195.75 60.9467 194.762 61.934C193.774 62.9213 193.219 64.26 193.217 65.6562V110.246C193.219 111.643 193.774 112.981 194.762 113.969C195.75 114.956 197.089 115.511 198.486 115.513H253.279C254.676 115.511 256.015 114.956 257.003 113.969C257.99 112.981 258.546 111.643 258.548 110.246V65.6562C258.546 64.26 257.99 62.9213 257.003 61.934C256.015 60.9467 254.676 60.3913 253.279 60.3897H198.486Z" fill="#3F3D56"/>
<path d="M247.051 73.0779H219.398C219.154 73.0828 218.919 72.9953 218.738 72.8331C218.557 72.6708 218.444 72.446 218.423 72.2039C218.416 72.0787 218.435 71.9533 218.478 71.8356C218.521 71.7178 218.588 71.6101 218.675 71.519C218.761 71.428 218.865 71.3554 218.98 71.3058C219.096 71.2563 219.22 71.2307 219.345 71.2307H247.495C248.422 72.0453 247.857 73.0779 247.051 73.0779Z" fill="#3F3D56"/>
<path d="M247.051 77.9266H219.398C219.154 77.9315 218.919 77.8441 218.738 77.6818C218.557 77.5196 218.444 77.2947 218.423 77.0527C218.416 76.9274 218.435 76.8021 218.478 76.6843C218.521 76.5666 218.588 76.4589 218.675 76.3678C218.761 76.2767 218.865 76.2042 218.98 76.1546C219.096 76.105 219.22 76.0795 219.345 76.0795H247.495C248.422 76.894 247.857 77.9266 247.051 77.9266Z" fill="#3F3D56"/>
<path d="M213.419 80.6873H204.98C204.704 80.687 204.44 80.5775 204.245 80.3827C204.05 80.1879 203.941 79.9238 203.941 79.6484V69.6928C203.941 69.4174 204.05 69.1533 204.245 68.9585C204.44 68.7638 204.704 68.6542 204.98 68.6539H213.419C213.695 68.6543 213.959 68.7639 214.154 68.9586C214.349 69.1534 214.458 69.4174 214.459 69.6928V79.6484C214.458 79.9238 214.349 80.1879 214.154 80.3827C213.959 80.5775 213.695 80.687 213.419 80.6873Z" fill="#CCCCCC"/>
<path d="M246.787 107.722H238.348C238.072 107.722 237.808 107.612 237.613 107.418C237.418 107.223 237.309 106.959 237.308 106.683V100.941C237.309 100.666 237.418 100.401 237.613 100.207C237.808 100.012 238.072 99.9024 238.348 99.9021H246.787C247.063 99.9025 247.327 100.012 247.522 100.207C247.716 100.402 247.826 100.666 247.826 100.941V106.683C247.826 106.959 247.717 107.223 247.522 107.418C247.327 107.612 247.063 107.722 246.787 107.722Z" fill="#3F3D56"/>
<path d="M246.971 87.8543H204.766C204.523 87.8593 204.287 87.7718 204.106 87.6095C203.925 87.4473 203.813 87.2225 203.791 86.9804C203.785 86.8551 203.803 86.7298 203.847 86.612C203.89 86.4943 203.957 86.3866 204.043 86.2955C204.13 86.2044 204.234 86.1319 204.349 86.0823C204.464 86.0328 204.588 86.0072 204.714 86.0072H247.415C248.342 86.8218 247.777 87.8543 246.971 87.8543Z" fill="#CCCCCC"/>
<path d="M246.971 92.7046H204.766C204.523 92.7095 204.287 92.622 204.106 92.4598C203.925 92.2976 203.813 92.0727 203.791 91.8307C203.785 91.7054 203.803 91.58 203.847 91.4623C203.89 91.3445 203.957 91.2368 204.043 91.1457C204.13 91.0547 204.234 90.9821 204.349 90.9326C204.464 90.883 204.588 90.8574 204.714 90.8574H247.415C248.342 91.672 247.777 92.7046 246.971 92.7046Z" fill="#CCCCCC"/>
<path d="M246.971 97.5515H204.766C204.523 97.5564 204.287 97.4689 204.106 97.3067C203.925 97.1445 203.813 96.9196 203.791 96.6776C203.785 96.5523 203.803 96.427 203.847 96.3092C203.89 96.1914 203.957 96.0837 204.043 95.9927C204.13 95.9016 204.234 95.8291 204.349 95.7795C204.464 95.7299 204.588 95.7043 204.714 95.7043H247.415C248.342 96.5189 247.777 97.5515 246.971 97.5515Z" fill="#CCCCCC"/>
<path d="M224.842 102.401H204.766C204.523 102.406 204.287 102.319 204.106 102.157C203.925 101.994 203.813 101.769 203.791 101.527C203.785 101.402 203.803 101.277 203.847 101.159C203.89 101.041 203.957 100.934 204.043 100.843C204.13 100.751 204.234 100.679 204.349 100.629C204.464 100.58 204.588 100.554 204.714 100.554H225.287C226.214 101.369 225.649 102.401 224.842 102.401Z" fill="#CCCCCC"/>
<path d="M224.842 107.249H204.766C204.523 107.254 204.287 107.166 204.106 107.004C203.925 106.842 203.813 106.617 203.791 106.375C203.785 106.249 203.803 106.124 203.847 106.006C203.89 105.889 203.957 105.781 204.043 105.69C204.13 105.599 204.234 105.526 204.349 105.477C204.464 105.427 204.588 105.401 204.714 105.401H225.287C226.214 106.216 225.649 107.249 224.842 107.249Z" fill="#CCCCCC"/>
<path d="M241.337 64.2518H210.428C209.962 64.2513 209.516 64.0662 209.187 63.7371C208.857 63.408 208.672 62.9618 208.672 62.4963V56.8787C208.672 56.4133 208.857 55.967 209.187 55.6379C209.516 55.3088 209.962 55.1237 210.428 55.1232H241.337C241.802 55.1237 242.249 55.3088 242.578 55.6379C242.907 55.967 243.093 56.4133 243.093 56.8787V62.4963C243.093 62.9618 242.907 63.408 242.578 63.7371C242.249 64.0662 241.802 64.2513 241.337 64.2518Z" fill="#E85C43"/>
<path d="M134.423 191H0.601239C0.508085 191 0.418745 190.963 0.352875 190.897C0.287005 190.831 0.25 190.742 0.25 190.649C0.25 190.556 0.287005 190.467 0.352875 190.401C0.418745 190.335 0.508085 190.298 0.601239 190.298H134.423C134.516 190.298 134.606 190.335 134.672 190.401C134.738 190.467 134.775 190.556 134.775 190.649C134.775 190.742 134.738 190.831 134.672 190.897C134.606 190.963 134.516 191 134.423 191Z" fill="#3F3D56"/>
<path d="M34.2372 10.4598C35.4917 10.4598 36.5086 9.44323 36.5086 8.18925C36.5086 6.93526 35.4917 5.9187 34.2372 5.9187C32.9827 5.9187 31.9658 6.93526 31.9658 8.18925C31.9658 9.44323 32.9827 10.4598 34.2372 10.4598Z" fill="#F2F2F2"/>
<path d="M34.2372 19.5089C35.4917 19.5089 36.5086 18.4923 36.5086 17.2383C36.5086 15.9843 35.4917 14.9678 34.2372 14.9678C32.9827 14.9678 31.9658 15.9843 31.9658 17.2383C31.9658 18.4923 32.9827 19.5089 34.2372 19.5089Z" fill="#F2F2F2"/>
<path d="M34.2372 28.5579C35.4917 28.5579 36.5086 27.5414 36.5086 26.2874C36.5086 25.0334 35.4917 24.0168 34.2372 24.0168C32.9827 24.0168 31.9658 25.0334 31.9658 26.2874C31.9658 27.5414 32.9827 28.5579 34.2372 28.5579Z" fill="#F2F2F2"/>
<path d="M34.2372 37.607C35.4917 37.607 36.5086 36.5905 36.5086 35.3365C36.5086 34.0825 35.4917 33.0659 34.2372 33.0659C32.9827 33.0659 31.9658 34.0825 31.9658 35.3365C31.9658 36.5905 32.9827 37.607 34.2372 37.607Z" fill="#F2F2F2"/>
<path d="M43.7206 10.4598C44.9751 10.4598 45.9921 9.44323 45.9921 8.18925C45.9921 6.93526 44.9751 5.9187 43.7206 5.9187C42.4662 5.9187 41.4492 6.93526 41.4492 8.18925C41.4492 9.44323 42.4662 10.4598 43.7206 10.4598Z" fill="#F2F2F2"/>
<path d="M43.7206 19.5089C44.9751 19.5089 45.9921 18.4923 45.9921 17.2383C45.9921 15.9843 44.9751 14.9678 43.7206 14.9678C42.4662 14.9678 41.4492 15.9843 41.4492 17.2383C41.4492 18.4923 42.4662 19.5089 43.7206 19.5089Z" fill="#F2F2F2"/>
<path d="M43.7206 28.5579C44.9751 28.5579 45.9921 27.5414 45.9921 26.2874C45.9921 25.0334 44.9751 24.0168 43.7206 24.0168C42.4662 24.0168 41.4492 25.0334 41.4492 26.2874C41.4492 27.5414 42.4662 28.5579 43.7206 28.5579Z" fill="#F2F2F2"/>
<path d="M43.7206 37.607C44.9751 37.607 45.9921 36.5905 45.9921 35.3365C45.9921 34.0825 44.9751 33.0659 43.7206 33.0659C42.4662 33.0659 41.4492 34.0825 41.4492 35.3365C41.4492 36.5905 42.4662 37.607 43.7206 37.607Z" fill="#F2F2F2"/>
<path d="M53.2041 10.4598C54.4586 10.4598 55.4755 9.44323 55.4755 8.18925C55.4755 6.93526 54.4586 5.9187 53.2041 5.9187C51.9496 5.9187 50.9327 6.93526 50.9327 8.18925C50.9327 9.44323 51.9496 10.4598 53.2041 10.4598Z" fill="#F2F2F2"/>
<path d="M53.2041 19.5089C54.4586 19.5089 55.4755 18.4923 55.4755 17.2383C55.4755 15.9843 54.4586 14.9678 53.2041 14.9678C51.9496 14.9678 50.9327 15.9843 50.9327 17.2383C50.9327 18.4923 51.9496 19.5089 53.2041 19.5089Z" fill="#F2F2F2"/>
<path d="M53.2041 28.5579C54.4586 28.5579 55.4755 27.5414 55.4755 26.2874C55.4755 25.0334 54.4586 24.0168 53.2041 24.0168C51.9496 24.0168 50.9327 25.0334 50.9327 26.2874C50.9327 27.5414 51.9496 28.5579 53.2041 28.5579Z" fill="#F2F2F2"/>
<path d="M53.2041 37.607C54.4586 37.607 55.4755 36.5905 55.4755 35.3365C55.4755 34.0825 54.4586 33.0659 53.2041 33.0659C51.9496 33.0659 50.9327 34.0825 50.9327 35.3365C50.9327 36.5905 51.9496 37.607 53.2041 37.607Z" fill="#F2F2F2"/>
<path d="M62.6876 10.4598C63.942 10.4598 64.959 9.44323 64.959 8.18925C64.959 6.93526 63.942 5.9187 62.6876 5.9187C61.4331 5.9187 60.4161 6.93526 60.4161 8.18925C60.4161 9.44323 61.4331 10.4598 62.6876 10.4598Z" fill="#F2F2F2"/>
<path d="M62.6876 19.5089C63.942 19.5089 64.959 18.4923 64.959 17.2383C64.959 15.9843 63.942 14.9678 62.6876 14.9678C61.4331 14.9678 60.4161 15.9843 60.4161 17.2383C60.4161 18.4923 61.4331 19.5089 62.6876 19.5089Z" fill="#F2F2F2"/>
<path d="M62.6876 28.5579C63.942 28.5579 64.959 27.5414 64.959 26.2874C64.959 25.0334 63.942 24.0168 62.6876 24.0168C61.4331 24.0168 60.4161 25.0334 60.4161 26.2874C60.4161 27.5414 61.4331 28.5579 62.6876 28.5579Z" fill="#F2F2F2"/>
<path d="M62.6876 37.607C63.942 37.607 64.959 36.5905 64.959 35.3365C64.959 34.0825 63.942 33.0659 62.6876 33.0659C61.4331 33.0659 60.4161 34.0825 60.4161 35.3365C60.4161 36.5905 61.4331 37.607 62.6876 37.607Z" fill="#F2F2F2"/>
<path d="M72.171 10.4598C73.4255 10.4598 74.4424 9.44323 74.4424 8.18925C74.4424 6.93526 73.4255 5.9187 72.171 5.9187C70.9165 5.9187 69.8996 6.93526 69.8996 8.18925C69.8996 9.44323 70.9165 10.4598 72.171 10.4598Z" fill="#F2F2F2"/>
<path d="M72.171 19.5089C73.4255 19.5089 74.4424 18.4923 74.4424 17.2383C74.4424 15.9843 73.4255 14.9678 72.171 14.9678C70.9165 14.9678 69.8996 15.9843 69.8996 17.2383C69.8996 18.4923 70.9165 19.5089 72.171 19.5089Z" fill="#F2F2F2"/>
<path d="M72.171 28.5579C73.4255 28.5579 74.4424 27.5414 74.4424 26.2874C74.4424 25.0334 73.4255 24.0168 72.171 24.0168C70.9165 24.0168 69.8996 25.0334 69.8996 26.2874C69.8996 27.5414 70.9165 28.5579 72.171 28.5579Z" fill="#F2F2F2"/>
<path d="M72.171 37.607C73.4255 37.607 74.4424 36.5905 74.4424 35.3365C74.4424 34.0825 73.4255 33.0659 72.171 33.0659C70.9165 33.0659 69.8996 34.0825 69.8996 35.3365C69.8996 36.5905 70.9165 37.607 72.171 37.607Z" fill="#F2F2F2"/>
<path d="M81.6545 10.4598C82.909 10.4598 83.9259 9.44323 83.9259 8.18925C83.9259 6.93526 82.909 5.9187 81.6545 5.9187C80.4 5.9187 79.3831 6.93526 79.3831 8.18925C79.3831 9.44323 80.4 10.4598 81.6545 10.4598Z" fill="#F2F2F2"/>
<path d="M81.6545 19.5089C82.909 19.5089 83.9259 18.4923 83.9259 17.2383C83.9259 15.9843 82.909 14.9678 81.6545 14.9678C80.4 14.9678 79.3831 15.9843 79.3831 17.2383C79.3831 18.4923 80.4 19.5089 81.6545 19.5089Z" fill="#F2F2F2"/>
<path d="M81.6545 28.5579C82.909 28.5579 83.9259 27.5414 83.9259 26.2874C83.9259 25.0334 82.909 24.0168 81.6545 24.0168C80.4 24.0168 79.3831 25.0334 79.3831 26.2874C79.3831 27.5414 80.4 28.5579 81.6545 28.5579Z" fill="#F2F2F2"/>
<path d="M81.6545 37.607C82.909 37.607 83.9259 36.5905 83.9259 35.3365C83.9259 34.0825 82.909 33.0659 81.6545 33.0659C80.4 33.0659 79.3831 34.0825 79.3831 35.3365C79.3831 36.5905 80.4 37.607 81.6545 37.607Z" fill="#F2F2F2"/>
<path d="M211.613 136.155C212.867 136.155 213.884 135.138 213.884 133.884C213.884 132.63 212.867 131.614 211.613 131.614C210.358 131.614 209.341 132.63 209.341 133.884C209.341 135.138 210.358 136.155 211.613 136.155Z" fill="#F2F2F2"/>
<path d="M211.613 145.204C212.867 145.204 213.884 144.187 213.884 142.933C213.884 141.679 212.867 140.663 211.613 140.663C210.358 140.663 209.341 141.679 209.341 142.933C209.341 144.187 210.358 145.204 211.613 145.204Z" fill="#F2F2F2"/>
<path d="M211.613 154.253C212.867 154.253 213.884 153.236 213.884 151.982C213.884 150.728 212.867 149.712 211.613 149.712C210.358 149.712 209.341 150.728 209.341 151.982C209.341 153.236 210.358 154.253 211.613 154.253Z" fill="#F2F2F2"/>
<path d="M221.096 136.155C222.351 136.155 223.368 135.138 223.368 133.884C223.368 132.63 222.351 131.614 221.096 131.614C219.842 131.614 218.825 132.63 218.825 133.884C218.825 135.138 219.842 136.155 221.096 136.155Z" fill="#F2F2F2"/>
<path d="M221.096 145.204C222.351 145.204 223.368 144.187 223.368 142.933C223.368 141.679 222.351 140.663 221.096 140.663C219.842 140.663 218.825 141.679 218.825 142.933C218.825 144.187 219.842 145.204 221.096 145.204Z" fill="#F2F2F2"/>
<path d="M221.096 154.253C222.351 154.253 223.368 153.236 223.368 151.982C223.368 150.728 222.351 149.712 221.096 149.712C219.842 149.712 218.825 150.728 218.825 151.982C218.825 153.236 219.842 154.253 221.096 154.253Z" fill="#F2F2F2"/>
<path d="M230.58 136.155C231.834 136.155 232.851 135.138 232.851 133.884C232.851 132.63 231.834 131.614 230.58 131.614C229.325 131.614 228.308 132.63 228.308 133.884C228.308 135.138 229.325 136.155 230.58 136.155Z" fill="#F2F2F2"/>
<path d="M230.58 145.204C231.834 145.204 232.851 144.187 232.851 142.933C232.851 141.679 231.834 140.663 230.58 140.663C229.325 140.663 228.308 141.679 228.308 142.933C228.308 144.187 229.325 145.204 230.58 145.204Z" fill="#F2F2F2"/>
<path d="M230.58 154.253C231.834 154.253 232.851 153.236 232.851 151.982C232.851 150.728 231.834 149.712 230.58 149.712C229.325 149.712 228.308 150.728 228.308 151.982C228.308 153.236 229.325 154.253 230.58 154.253Z" fill="#F2F2F2"/>
<path d="M240.063 136.155C241.318 136.155 242.335 135.138 242.335 133.884C242.335 132.63 241.318 131.614 240.063 131.614C238.809 131.614 237.792 132.63 237.792 133.884C237.792 135.138 238.809 136.155 240.063 136.155Z" fill="#F2F2F2"/>
<path d="M240.063 145.204C241.318 145.204 242.335 144.187 242.335 142.933C242.335 141.679 241.318 140.663 240.063 140.663C238.809 140.663 237.792 141.679 237.792 142.933C237.792 144.187 238.809 145.204 240.063 145.204Z" fill="#F2F2F2"/>
<path d="M240.063 154.253C241.318 154.253 242.335 153.236 242.335 151.982C242.335 150.728 241.318 149.712 240.063 149.712C238.809 149.712 237.792 150.728 237.792 151.982C237.792 153.236 238.809 154.253 240.063 154.253Z" fill="#F2F2F2"/>
</g>
<defs>
<clipPath id="clip0_17_501">
<rect width="259" height="191" fill="white" transform="translate(0.25)"/>
</clipPath>
</defs>
</svg>
