<svg width="260" height="231" viewBox="0 0 260 231" fill="none" xmlns="http://www.w3.org/2000/svg">
<g clip-path="url(#clip0_17_220)">
<path d="M231.326 0H31.769C27.1137 0 23.3397 3.79199 23.3397 8.46964V157.525C23.3397 162.203 27.1137 165.995 31.769 165.995H231.326C235.981 165.995 239.755 162.203 239.755 157.525V8.46964C239.755 3.79199 235.981 0 231.326 0Z" fill="#D7D7D8"/>
<path d="M31.769 1.94617C28.1897 1.94617 25.2766 4.87317 25.2766 8.46966V157.521C25.2766 161.118 28.1897 164.045 31.769 164.045H231.326C234.905 164.045 237.819 161.118 237.819 157.521V8.46966C237.819 4.87317 234.905 1.94617 231.326 1.94617H31.769Z" fill="white"/>
<path d="M132.317 0.992554H130.771V165.185H132.317V0.992554Z" fill="#D7D7D8"/>
<path d="M122.357 27.7248C123.566 27.7248 124.546 26.7402 124.546 25.5257C124.546 24.3111 123.566 23.3265 122.357 23.3265C121.148 23.3265 120.168 24.3111 120.168 25.5257C120.168 26.7402 121.148 27.7248 122.357 27.7248Z" fill="#D7D7D8"/>
<path d="M140.734 27.7248C141.943 27.7248 142.923 26.7402 142.923 25.5257C142.923 24.3111 141.943 23.3265 140.734 23.3265C139.525 23.3265 138.546 24.3111 138.546 25.5257C138.546 26.7402 139.525 27.7248 140.734 27.7248Z" fill="#D7D7D8"/>
<path d="M122.357 56.4617C123.566 56.4617 124.546 55.4771 124.546 54.2625C124.546 53.0479 123.566 52.0634 122.357 52.0634C121.148 52.0634 120.168 53.0479 120.168 54.2625C120.168 55.4771 121.148 56.4617 122.357 56.4617Z" fill="#D7D7D8"/>
<path d="M140.734 56.4617C141.943 56.4617 142.923 55.4771 142.923 54.2625C142.923 53.0479 141.943 52.0634 140.734 52.0634C139.525 52.0634 138.546 53.0479 138.546 54.2625C138.546 55.4771 139.525 56.4617 140.734 56.4617Z" fill="#D7D7D8"/>
<path d="M122.357 85.1946C123.566 85.1946 124.546 84.21 124.546 82.9954C124.546 81.7809 123.566 80.7963 122.357 80.7963C121.148 80.7963 120.168 81.7809 120.168 82.9954C120.168 84.21 121.148 85.1946 122.357 85.1946Z" fill="#D7D7D8"/>
<path d="M140.734 85.1946C141.943 85.1946 142.923 84.21 142.923 82.9954C142.923 81.7809 141.943 80.7963 140.734 80.7963C139.525 80.7963 138.546 81.7809 138.546 82.9954C138.546 84.21 139.525 85.1946 140.734 85.1946Z" fill="#D7D7D8"/>
<path d="M122.357 113.931C123.566 113.931 124.546 112.947 124.546 111.732C124.546 110.518 123.566 109.533 122.357 109.533C121.148 109.533 120.168 110.518 120.168 111.732C120.168 112.947 121.148 113.931 122.357 113.931Z" fill="#D7D7D8"/>
<path d="M140.734 113.931C141.943 113.931 142.923 112.947 142.923 111.732C142.923 110.518 141.943 109.533 140.734 109.533C139.525 109.533 138.546 110.518 138.546 111.732C138.546 112.947 139.525 113.931 140.734 113.931Z" fill="#D7D7D8"/>
<path d="M122.357 142.664C123.566 142.664 124.546 141.68 124.546 140.465C124.546 139.251 123.566 138.266 122.357 138.266C121.148 138.266 120.168 139.251 120.168 140.465C120.168 141.68 121.148 142.664 122.357 142.664Z" fill="#D7D7D8"/>
<path d="M140.734 142.664C141.943 142.664 142.923 141.68 142.923 140.465C142.923 139.251 141.943 138.266 140.734 138.266C139.525 138.266 138.546 139.251 138.546 140.465C138.546 141.68 139.525 142.664 140.734 142.664Z" fill="#D7D7D8"/>
<path d="M122.558 24.5098L122.152 23.8481C122.252 23.7859 132.262 17.71 140.955 23.8598L140.51 24.4982C132.235 18.6441 122.651 24.4515 122.558 24.5098Z" fill="#D7D7D8"/>
<path d="M122.558 27.2071L122.152 26.5454C122.252 26.4831 132.262 20.4073 140.955 26.5571L140.51 27.1954C132.235 21.3414 122.651 27.1487 122.558 27.2071Z" fill="#D7D7D8"/>
<path d="M122.558 53.3712L122.152 52.7095C122.252 52.6472 132.262 46.5713 140.955 52.7212L140.51 53.3595C132.235 47.5055 122.651 53.3128 122.558 53.3712Z" fill="#D7D7D8"/>
<path d="M122.558 56.0725L122.152 55.4108C122.252 55.3485 132.262 49.2726 140.955 55.4224L140.51 56.0608C132.235 50.2068 122.651 56.0141 122.558 56.0725Z" fill="#D7D7D8"/>
<path d="M122.558 82.2325L122.152 81.5708C122.252 81.5085 132.262 75.4327 140.955 81.5825L140.51 82.2208C132.235 76.3668 122.651 82.1741 122.558 82.2325Z" fill="#D7D7D8"/>
<path d="M122.558 84.9338L122.152 84.2721C122.252 84.2098 132.258 78.1339 140.955 84.2838L140.51 84.9221C132.235 79.0681 122.651 84.8754 122.558 84.9338Z" fill="#D7D7D8"/>
<path d="M122.558 111.094L122.152 110.432C122.252 110.37 132.262 104.294 140.955 110.444L140.51 111.082C132.235 105.232 122.651 111.036 122.558 111.094Z" fill="#D7D7D8"/>
<path d="M122.558 113.795L122.152 113.134C122.252 113.071 132.258 106.995 140.955 113.145L140.51 113.784C132.235 107.93 122.651 113.737 122.558 113.795Z" fill="#D7D7D8"/>
<path d="M122.558 139.955L122.152 139.294C122.252 139.231 132.262 133.155 140.955 139.305L140.51 139.94C132.235 134.086 122.651 139.893 122.558 139.951V139.955Z" fill="#D7D7D8"/>
<path d="M122.558 142.657L122.152 141.995C122.252 141.933 132.262 135.857 140.955 142.007L140.51 142.641C132.235 136.787 122.651 142.594 122.558 142.653V142.657Z" fill="#D7D7D8"/>
<path d="M180.572 43.5042C180.572 43.5042 172.6 44.4072 172.085 56.812C171.655 67.1499 170.779 72.9105 174.967 75.0669C176.462 75.8375 178.221 75.9037 179.821 75.3782L196.904 69.7344C196.904 69.7344 197.159 51.1292 191.244 46.6064C185.329 42.0835 180.572 43.5042 180.572 43.5042Z" fill="#2F2E43"/>
<path d="M189.989 72.0191L181.343 74.8761V62.3701H189.187L189.989 72.0191Z" fill="#F3A3A6"/>
<path d="M163.558 143.007C163.09 145.872 161.188 147.927 159.313 147.596C157.434 147.265 156.295 144.673 156.764 141.808C156.934 140.66 157.388 139.574 158.081 138.644L160.223 126.531L166.053 127.757L163.322 139.566C163.682 140.683 163.764 141.863 163.558 143.007Z" fill="#F3A3A6"/>
<path d="M183.353 223.546H175.257L170.562 180.073H183.078L183.353 223.546Z" fill="#F3A3A6"/>
<path d="M167.37 230.537C166.518 230.537 165.759 230.517 165.189 230.463C163.039 230.264 160.986 228.668 159.956 227.738C159.495 227.322 159.344 226.652 159.584 226.076C159.758 225.664 160.103 225.356 160.533 225.232L166.216 223.601L175.42 217.361L175.525 217.548C175.563 217.618 176.466 219.253 176.768 220.358C176.884 220.779 176.853 221.129 176.679 221.402C176.559 221.588 176.388 221.697 176.253 221.76C176.419 221.935 176.942 222.289 178.55 222.546C180.901 222.92 181.389 220.475 181.413 220.374L181.428 220.292L181.498 220.246C182.614 219.522 183.303 219.195 183.539 219.265C183.687 219.307 183.934 219.385 184.601 226.041C184.667 226.251 185.135 227.781 184.818 229.248C184.473 230.844 177.543 230.295 176.156 230.167C176.117 230.171 170.93 230.541 167.374 230.541L167.37 230.537Z" fill="#2F2E43"/>
<path d="M201.649 223.546H193.549L188.854 180.073H201.37L201.649 223.546Z" fill="#F3A3A6"/>
<path d="M185.666 230.537C184.814 230.537 184.055 230.517 183.485 230.463C181.335 230.264 179.282 228.668 178.252 227.738C177.791 227.322 177.64 226.652 177.88 226.076C178.054 225.664 178.399 225.356 178.829 225.232L184.512 223.601L193.716 217.361L193.82 217.548C193.859 217.618 194.762 219.253 195.064 220.358C195.18 220.779 195.149 221.129 194.975 221.402C194.855 221.588 194.684 221.697 194.549 221.76C194.715 221.935 195.238 222.289 196.846 222.546C199.197 222.92 199.685 220.475 199.708 220.374L199.724 220.292L199.794 220.246C200.913 219.522 201.599 219.195 201.835 219.265C201.982 219.307 202.23 219.385 202.897 226.041C202.962 226.251 203.431 227.781 203.113 229.248C202.769 230.844 195.839 230.295 194.452 230.167C194.413 230.171 189.226 230.541 185.67 230.541L185.666 230.537Z" fill="#2F2E43"/>
<path d="M203.977 116.765H164.631L178.775 69.9912H194.463L203.977 116.765Z" fill="#E85C43"/>
<path d="M181.25 69.999C181.25 69.999 171.476 69.7421 170.45 72.3266C169.419 74.9111 157.333 136.413 157.333 136.413H165.306L181.25 70.0029V69.999Z" fill="#E85C43"/>
<path d="M182.412 65.8304C187.17 65.8304 191.027 61.9548 191.027 57.1739C191.027 52.3931 187.17 48.5175 182.412 48.5175C177.654 48.5175 173.797 52.3931 173.797 57.1739C173.797 61.9548 177.654 65.8304 182.412 65.8304Z" fill="#F3A3A6"/>
<path d="M180.057 46.7349C180.057 46.7349 175.315 66.0796 180.588 75.1214L173.161 73.5372C173.161 73.5372 170.283 52.367 176.071 48.5175L180.057 46.7349Z" fill="#2F2E43"/>
<path d="M195.8 116.765H169.977L155.85 175.029C155.59 177.489 157.143 179.785 159.522 180.427C167.273 182.514 185.875 185.468 214.026 177.236C216.734 176.446 218.272 173.573 217.423 170.868L195.8 116.765Z" fill="#2F2E43"/>
<path d="M259.5 230.537C259.5 230.794 259.295 231 259.039 231H0.960978C0.70531 231 0.5 230.794 0.5 230.537C0.5 230.28 0.70531 230.074 0.960978 230.074H259.039C259.295 230.074 259.5 230.28 259.5 230.537Z" fill="#2F2E43"/>
<path d="M185.36 69.9913L193.39 69.6371C196.869 69.9018 200.014 71.8012 201.878 74.7632C207.553 83.7778 218.171 102.776 208.692 105.38C196.195 108.809 190.14 89.7174 190.14 89.7174L185.36 69.9913Z" fill="#E85C43"/>
<path d="M177.957 76.8573L197.62 62.4714C197.853 62.3001 198.178 62.3546 198.349 62.5881L198.825 63.2459C198.996 63.4795 198.941 63.8064 198.709 63.9777L179.05 78.3636H179.046L176.439 79.4924L176.241 79.2199L177.957 76.8573Z" fill="#2F2E43"/>
<path d="M182.606 75.6546C180.956 73.2725 180.897 70.4661 182.47 69.388C184.047 68.3098 186.662 69.3724 188.312 71.7545C188.986 72.6964 189.412 73.7941 189.559 74.9462L196.42 85.1362L191.388 88.3396L185.159 77.9549C184.124 77.4061 183.249 76.616 182.606 75.6546Z" fill="#F3A3A6"/>
<path d="M186.665 83.8945L192.333 78.6516L203.54 89.1375L193.119 96.2954L186.665 83.8945Z" fill="#E85C43"/>
<path d="M43.433 29.5425C51.3936 29.235 59.3619 29.1026 67.3302 29.1494C75.2986 29.1961 83.1352 29.4179 91.0261 29.8188C95.5196 30.0446 100.005 30.3287 104.491 30.6712C105.239 30.7296 105.235 29.558 104.491 29.5036C96.5462 28.9002 88.5895 28.476 80.625 28.2269C72.6605 27.9778 64.82 27.9155 56.9175 28.0206C52.4201 28.0829 47.9227 28.1996 43.4291 28.3748C42.6853 28.402 42.6815 29.5697 43.4291 29.5425H43.433Z" fill="#E85C43"/>
<path d="M43.433 42.7529C51.3936 42.4454 59.3619 42.3131 67.3302 42.3598C75.2986 42.4065 83.1352 42.6284 91.0261 43.0293C95.5196 43.255 100.005 43.5392 104.491 43.8817C105.239 43.9401 105.235 42.7685 104.491 42.714C96.5462 42.1107 88.5895 41.6864 80.625 41.4373C72.6605 41.1882 64.82 41.1259 56.9175 41.231C52.4201 41.2933 47.9227 41.4101 43.4291 41.5852C42.6853 41.6125 42.6815 42.7802 43.4291 42.7529H43.433Z" fill="#2F2E43"/>
<path d="M43.4329 55.9634C49.8944 55.7104 56.3597 55.4224 62.8289 55.3095C68.3606 55.2122 73.8924 55.3017 79.4164 55.5703C83.356 55.761 87.2917 56.0296 91.2275 56.3254C91.9751 56.3838 91.9712 55.2122 91.2275 55.1577C84.7815 54.6672 78.3278 54.2663 71.8625 54.1418C66.3308 54.0367 60.7952 54.1574 55.2673 54.3442C51.3238 54.4804 47.3803 54.64 43.4329 54.7957C42.6892 54.8229 42.6853 55.9906 43.4329 55.9634Z" fill="#2F2E43"/>
<path d="M43.433 69.1739C50.274 68.9093 57.119 68.629 63.9639 68.5278C70.0922 68.4344 76.2244 68.5161 82.3488 68.7964C86.4279 68.9832 90.5031 69.244 94.5783 69.5554C95.3259 69.6138 95.3221 68.4422 94.5783 68.3877C87.7527 67.87 80.9194 67.4847 74.0783 67.3679C67.9462 67.2589 61.814 67.3679 55.6857 67.5625C51.6027 67.691 47.5198 67.8506 43.4368 68.0101C42.6931 68.0374 42.6892 69.2051 43.4368 69.1778L43.433 69.1739Z" fill="#2F2E43"/>
<path d="M43.4329 82.3804C49.6542 82.1391 55.8677 81.7577 62.0851 81.4658C67.2217 81.2244 72.3583 81.1427 77.4988 81.314C81.3494 81.4424 85.196 81.6837 89.0349 81.9756C89.7825 82.034 89.7787 80.8625 89.0349 80.808C82.8369 80.337 76.6311 80.0061 70.4137 80.0529C65.2655 80.0918 60.1289 80.3915 54.9922 80.6678C51.1417 80.8741 47.2873 81.061 43.4329 81.2128C42.6892 81.24 42.6853 82.4116 43.4329 82.3804Z" fill="#2F2E43"/>
<path d="M43.433 95.5909C51.3936 95.2834 59.3619 95.1511 67.3302 95.1978C75.2986 95.2445 83.1352 95.4664 91.0261 95.8673C95.5196 96.093 100.005 96.3772 104.491 96.7197C105.239 96.7781 105.235 95.6065 104.491 95.552C96.5462 94.9487 88.5895 94.5244 80.625 94.2753C72.6605 94.0262 64.82 93.964 56.9175 94.069C52.4201 94.1313 47.9227 94.2481 43.4291 94.4232C42.6853 94.4505 42.6815 95.6182 43.4291 95.5909H43.433Z" fill="#2F2E43"/>
</g>
<defs>
<clipPath id="clip0_17_220">
<rect width="259" height="231" fill="white" transform="translate(0.5)"/>
</clipPath>
</defs>
</svg>
