<svg width="515" height="432" viewBox="0 0 515 432" fill="none" xmlns="http://www.w3.org/2000/svg">
<g clip-path="url(#clip0_24_816)">
<path d="M384.171 426.811C377.042 420.452 372.712 410.407 373.848 400.628C374.984 390.849 382.017 381.859 391.139 379.783C400.262 377.706 410.662 383.454 413.433 392.862C414.958 374.724 416.715 355.826 425.85 340.38C434.121 326.394 448.447 316.387 463.973 314.596C479.5 312.806 495.847 319.568 505.53 332.505C515.213 345.441 517.584 364.249 510.802 379.102C505.806 390.043 496.602 398.186 486.958 404.81C455.796 426.036 418.42 434.668 381.709 429.117" fill="#F2F2F2"/>
<path d="M490.176 319.943C477.365 330.958 465.612 343.279 455.088 356.725C438.617 377.697 425.289 401.21 415.567 426.445C414.855 428.286 417.687 429.087 418.391 427.267C434.297 386.254 459.69 350.106 492.247 322.129C493.709 320.872 491.626 318.696 490.176 319.943Z" fill="#212529"/>
<path d="M125.911 431.163H85.4834C84.1173 431.162 82.8076 430.588 81.8417 429.568C80.8757 428.549 80.3324 427.166 80.3308 425.724V337.019C80.3324 335.577 80.8757 334.195 81.8417 333.175C82.8076 332.155 84.1173 331.582 85.4834 331.58H125.911C127.277 331.582 128.587 332.155 129.553 333.175C130.519 334.195 131.062 335.577 131.064 337.019V425.724C131.062 427.166 130.519 428.549 129.553 429.568C128.587 430.588 127.277 431.162 125.911 431.163Z" fill="#212529"/>
<path d="M221.828 432H181.401C179.824 431.998 178.313 431.336 177.199 430.16C176.084 428.983 175.457 427.388 175.455 425.724V253.336C175.457 251.672 176.084 250.077 177.199 248.9C178.313 247.723 179.824 247.062 181.401 247.06H221.828C223.405 247.062 224.916 247.723 226.031 248.9C227.145 250.077 227.772 251.672 227.774 253.336V425.724C227.772 427.388 227.145 428.983 226.031 430.16C224.916 431.336 223.405 431.998 221.828 432ZM181.401 248.733C180.245 248.735 179.136 249.22 178.319 250.083C177.502 250.946 177.042 252.116 177.041 253.336V425.724C177.042 426.944 177.502 428.114 178.319 428.977C179.136 429.84 180.245 430.325 181.401 430.326H221.828C222.984 430.325 224.093 429.84 224.91 428.977C225.727 428.114 226.187 426.944 226.188 425.724V253.336C226.187 252.116 225.727 250.946 224.91 250.083C224.093 249.22 222.984 248.735 221.828 248.733H181.401Z" fill="#3F3D56"/>
<path d="M317.745 432H277.318C275.741 431.998 274.23 431.336 273.116 430.16C272.001 428.983 271.374 427.388 271.372 425.724V143.711C271.374 142.047 272.001 140.451 273.116 139.275C274.23 138.098 275.741 137.436 277.318 137.435H317.745C319.322 137.436 320.833 138.098 321.948 139.275C323.062 140.451 323.689 142.047 323.691 143.711V425.724C323.689 427.388 323.062 428.983 321.948 430.16C320.833 431.336 319.322 431.998 317.745 432ZM277.318 139.108C276.162 139.11 275.053 139.595 274.236 140.458C273.419 141.321 272.959 142.491 272.958 143.711V425.724C272.959 426.944 273.419 428.114 274.236 428.977C275.053 429.84 276.162 430.325 277.318 430.326H317.745C318.901 430.325 320.01 429.84 320.827 428.977C321.644 428.114 322.104 426.944 322.105 425.724V143.711C322.104 142.491 321.644 141.321 320.827 140.458C320.01 139.595 318.901 139.11 317.745 139.108H277.318Z" fill="#3F3D56"/>
<path d="M414.558 431.582H374.13C372.764 431.58 371.454 431.006 370.488 429.987C369.522 428.967 368.979 427.584 368.978 426.142V28.6462C368.979 27.2041 369.522 25.8215 370.488 24.8018C371.454 23.7821 372.764 23.2085 374.13 23.2068H414.558C415.924 23.2085 417.234 23.7821 418.2 24.8018C419.166 25.8215 419.709 27.2041 419.711 28.6462V426.142C419.709 427.584 419.166 428.967 418.2 429.987C417.234 431.006 415.924 431.58 414.558 431.582Z" fill="#212529"/>
<path d="M163.122 186.077C163.269 184.856 163.16 183.617 162.804 182.446C162.448 181.274 161.853 180.2 161.06 179.297C160.268 178.395 159.298 177.687 158.219 177.223C157.139 176.76 155.977 176.551 154.813 176.613L140.721 149.325L137.551 161.041L147.205 186.05C147.433 188.107 148.368 190.005 149.833 191.383C151.298 192.761 153.19 193.524 155.152 193.527C157.114 193.53 159.009 192.774 160.478 191.401C161.947 190.027 162.888 188.133 163.122 186.077Z" fill="#A0616A"/>
<path d="M54.5507 293.823L62.3992 299.873L88.2374 270.79L76.6528 261.862L54.5507 293.823Z" fill="#A0616A"/>
<path d="M72.2162 319.233L47.5473 300.221L54.5055 290.159L69.6433 301.826C72.1711 303.774 73.8623 306.703 74.3448 309.967C74.8273 313.232 74.0616 316.565 72.2162 319.233Z" fill="#2F2E41"/>
<path d="M96.0764 325.844L105.795 325.843L110.418 286.271L96.0748 286.272L96.0764 325.844Z" fill="#A0616A"/>
<path d="M124.538 335.369L93.9946 335.37L93.9941 322.913L112.737 322.912C115.866 322.912 118.868 324.224 121.081 326.56C123.295 328.896 124.538 332.065 124.538 335.369Z" fill="#2F2E41"/>
<path d="M125.264 171.501C125.264 171.501 130.02 220.038 118.129 253.511L109.41 317.11H94.3483L95.9337 241.795L90.3848 174.849C90.3848 174.849 101.483 144.723 125.264 171.501Z" fill="#2F2E41"/>
<path d="M73.7381 174.848L89.5922 232.59L58.6768 284.473L74.1345 298.281L109.41 240.121L99.1046 168.99L73.7381 174.848Z" fill="#2F2E41"/>
<path d="M114.169 45.3682C124.922 45.3682 133.639 36.1661 133.639 24.8147C133.639 13.4633 124.922 4.26123 114.169 4.26123C103.416 4.26123 94.6993 13.4633 94.6993 24.8147C94.6993 36.1661 103.416 45.3682 114.169 45.3682Z" fill="#A0616A"/>
<path d="M97.9155 53.0892C97.9155 53.0892 109.806 44.7209 123.282 63.1312L126.849 179.033C126.849 179.033 116.544 163.97 95.141 178.196C73.738 192.422 68.9818 176.522 68.9818 176.522C68.9818 176.522 53.9204 56.855 97.9155 53.0892Z" fill="#CCCCCC"/>
<path d="M122.323 62.839C125.743 63.0341 128.973 64.5574 131.393 67.1157C133.813 69.6741 135.252 73.0867 135.432 76.6972L137.947 127.149L154.594 174.848L145.081 183.217L114.166 126.312L107.836 79.5389C107.546 77.3951 107.71 75.21 108.316 73.141C108.922 71.072 109.954 69.1706 111.34 67.5735C112.725 65.9764 114.429 64.7234 116.328 63.9047C118.227 63.0861 120.275 62.7221 122.323 62.839Z" fill="#CCCCCC"/>
<path d="M99.8631 40.232C103.046 43.8112 108.957 41.8898 109.372 37C109.404 36.6204 109.402 36.2383 109.365 35.8592C109.151 33.6932 107.965 31.7268 108.249 29.4399C108.314 28.8707 108.514 28.3283 108.833 27.864C111.369 24.2785 117.323 29.4677 119.717 26.2219C121.185 24.2316 119.459 21.098 120.586 18.8735C122.072 15.9376 126.476 17.3859 129.237 15.778C132.309 13.9891 132.125 9.01285 130.103 5.98606C127.637 2.29479 123.312 0.325086 119.042 0.0411897C114.771 -0.242706 110.53 0.976007 106.543 2.61625C102.013 4.47988 97.5212 7.0555 94.7335 11.2604C91.3434 16.3741 91.0172 23.2489 92.7126 29.2283C93.744 32.8657 97.2639 37.3091 99.8631 40.232Z" fill="#2F2E41"/>
<path d="M514.056 431.645H0.944048C0.694194 431.644 0.454815 431.539 0.278397 431.352C0.101979 431.165 0.00292969 430.912 0.00292969 430.648C0.00292969 430.385 0.101979 430.132 0.278397 429.945C0.454815 429.758 0.694194 429.653 0.944048 429.652H514.056C514.306 429.653 514.546 429.758 514.722 429.945C514.898 430.132 514.997 430.385 514.997 430.648C514.997 430.912 514.898 431.165 514.722 431.352C514.546 431.539 514.306 431.644 514.056 431.645Z" fill="#3F3D56"/>
</g>
<defs>
<clipPath id="clip0_24_816">
<rect width="515" height="432" fill="white"/>
</clipPath>
</defs>
</svg>
