<svg width="260" height="210" viewBox="0 0 260 210" fill="none" xmlns="http://www.w3.org/2000/svg">
<g clip-path="url(#clip0_17_159)">
<path d="M258.889 205.855H155.632C155.536 205.855 155.445 205.814 155.377 205.741C155.31 205.669 155.272 205.57 155.272 205.468C155.272 205.365 155.31 205.267 155.377 205.194C155.445 205.122 155.536 205.081 155.632 205.081H258.889C258.985 205.081 259.076 205.121 259.144 205.194C259.212 205.267 259.25 205.365 259.25 205.468C259.25 205.57 259.212 205.669 259.144 205.742C259.076 205.814 258.985 205.855 258.889 205.855Z" fill="#3F3D56"/>
<path d="M210.153 158.903C215.684 158.903 220.167 154.098 220.167 148.172C220.167 142.245 215.684 137.44 210.153 137.44C204.623 137.44 200.14 142.245 200.14 148.172C200.14 154.098 204.623 158.903 210.153 158.903Z" fill="#2F2E41"/>
<path d="M210.357 159.851C214.473 159.851 217.809 156.275 217.809 151.864C217.809 147.453 214.473 143.877 210.357 143.877C206.241 143.877 202.904 147.453 202.904 151.864C202.904 156.275 206.241 159.851 210.357 159.851Z" fill="#A0616A"/>
<path d="M221.684 163.456C221.684 163.456 208.029 160.854 199.23 164.106L201.809 186.056L201.202 189.633L219.408 188.983L218.195 185.406L221.684 163.456Z" fill="#A0616A"/>
<path d="M212.195 187.142C209.052 187.102 205.912 186.889 202.789 186.503C202.148 186.428 201.556 186.097 201.131 185.576C200.706 185.056 200.479 184.383 200.495 183.692L200.716 173.427L200.742 173.387C203.38 169.291 202.095 166.3 201.107 164.69C200.898 164.35 200.787 163.952 200.787 163.544C200.636 163.318 200.601 163.676 200.696 163.421C200.742 163.295 200.818 163.183 200.915 163.095C201.012 163.008 201.128 162.948 201.253 162.921L202.759 162.598C202.94 162.56 203.128 162.593 203.287 162.692C203.447 162.79 203.567 162.948 203.626 163.135C204.132 164.754 206.105 169.961 210.625 169.96C214.402 169.959 215.811 164.233 215.895 162.91C215.909 162.705 215.995 162.513 216.135 162.373C216.275 162.233 216.46 162.155 216.651 162.155H218.533C218.652 162.152 218.77 162.178 218.879 162.23C218.987 162.283 219.083 162.361 219.16 162.459C219.254 162.583 219.311 162.735 219.324 162.894C219.337 163.053 219.306 163.213 219.234 163.353C217.087 167.584 220.225 174.278 220.257 174.345L220.277 174.388L219.391 184.239C219.338 184.816 219.117 185.362 218.759 185.798C218.401 186.234 217.924 186.539 217.397 186.67C216.027 187.015 214.177 187.142 212.195 187.142Z" fill="#CCCCCC"/>
<path d="M194.868 210C192.829 210 190.962 209.759 189.479 209.191C187.716 208.514 186.609 207.421 186.189 205.94C185.99 205.31 185.931 204.639 186.015 203.981C186.1 203.322 186.326 202.693 186.676 202.144C189.284 197.959 198.334 196.78 199.549 196.639L200.192 190.894C200.268 190.231 200.565 189.62 201.028 189.173C201.491 188.725 202.089 188.472 202.713 188.46L217.955 188.205C218.567 188.189 219.164 188.41 219.637 188.826C220.11 189.243 220.428 189.827 220.533 190.474L221.399 195.579L211.404 200.772L212.915 205.307L212.817 205.378C209.891 207.468 201.479 210 194.868 210Z" fill="#2F2E41"/>
<path d="M220.015 194.836C220.015 194.836 233.973 192.885 233.063 200.69C232.152 208.494 221.532 214.023 205.45 200.69L207.271 196.788C207.271 196.788 216.374 199.389 220.015 197.438V194.836Z" fill="#2F2E41"/>
<path d="M207.574 197.763C207.574 197.763 207.574 193.861 204.54 194.186C201.506 194.511 196.044 194.836 196.044 194.836C196.044 194.836 194.223 196.137 196.651 196.788C199.078 197.438 206.361 200.69 206.361 200.69L207.574 197.763Z" fill="#A0616A"/>
<path d="M212.733 197.113C212.733 197.113 212.733 193.21 215.767 193.536C218.801 193.861 224.263 194.186 224.263 194.186C224.263 194.186 226.084 195.487 223.656 196.137C221.229 196.788 213.946 200.039 213.946 200.039L212.733 197.113Z" fill="#A0616A"/>
<path d="M230.915 196.373L226.387 179.552C226.387 179.552 225.477 173.699 224.567 168.171C223.656 162.643 220.319 163.293 220.319 163.293L219.712 163.618V172.398L220.319 180.528L226.377 198.382C226.198 199.001 226.188 199.662 226.347 200.288C226.506 200.913 226.827 201.477 227.274 201.913C227.721 202.35 228.275 202.641 228.87 202.753C229.466 202.865 230.079 202.794 230.638 202.546C231.197 202.299 231.678 201.886 232.026 201.356C232.375 200.826 232.575 200.201 232.604 199.554C232.633 198.907 232.49 198.264 232.191 197.701C231.891 197.138 231.449 196.677 230.915 196.373Z" fill="#A0616A"/>
<path d="M200.292 163.943C200.292 163.943 196.954 163.293 196.044 168.821C195.134 174.349 194.223 180.203 194.223 180.203L189.696 197.024C189.162 197.328 188.72 197.788 188.422 198.351C188.123 198.914 187.98 199.556 188.009 200.203C188.038 200.85 188.239 201.474 188.587 202.003C188.935 202.533 189.416 202.945 189.974 203.192C190.533 203.439 191.145 203.511 191.74 203.399C192.336 203.288 192.889 202.997 193.335 202.56C193.782 202.124 194.103 201.561 194.263 200.936C194.422 200.312 194.412 199.652 194.234 199.033L200.292 181.178L200.899 173.049V164.996C200.899 164.777 200.842 164.563 200.735 164.377C200.628 164.191 200.474 164.041 200.292 163.943Z" fill="#A0616A"/>
<path d="M202.979 146.957C205.89 148.861 209.171 150.02 212.568 150.343L211.557 149.045C212.293 149.337 213.067 149.502 213.851 149.533C214.244 149.546 214.633 149.459 214.989 149.281C215.345 149.102 215.657 148.837 215.899 148.506C216.097 148.163 216.215 147.773 216.242 147.37C216.27 146.967 216.206 146.563 216.056 146.192C215.748 145.453 215.268 144.811 214.663 144.326C213.59 143.417 212.325 142.806 210.978 142.548C209.632 142.29 208.247 142.393 206.947 142.848C206.055 143.134 205.256 143.683 204.642 144.433C204.34 144.81 204.13 145.262 204.032 145.748C203.933 146.234 203.948 146.739 204.077 147.217" fill="#2F2E41"/>
<path d="M211.096 138.631C208.745 136.077 205.901 134.106 202.763 132.856C200.748 132.057 198.556 131.562 196.45 132.017C194.344 132.471 192.352 134.032 191.765 136.247C191.284 138.057 191.78 140.007 192.526 141.712C193.271 143.416 194.267 144.997 194.87 146.765C195.485 148.569 195.67 150.509 195.408 152.41C195.146 154.31 194.445 156.11 193.37 157.646C192.294 159.183 190.877 160.407 189.248 161.208C187.619 162.008 185.829 162.361 184.041 162.232C186.11 162.529 188.017 163.571 190.04 164.126C192.062 164.681 194.449 164.643 195.952 163.09C197.543 161.447 197.575 158.776 197.498 156.41C197.383 152.893 197.269 149.376 197.155 145.859C197.097 144.066 197.047 142.215 197.65 140.541C198.254 138.867 199.688 137.401 201.363 137.416C202.632 137.427 203.755 138.251 204.773 139.064C205.791 139.877 206.868 140.743 208.132 140.864C209.396 140.985 210.84 139.983 210.745 138.626" fill="#2F2E41"/>
<path d="M144.533 198.041H11.0219C8.16602 198.037 5.42802 196.82 3.40859 194.656C1.38916 192.492 0.253229 189.557 0.25 186.497V11.5443C0.253229 8.48359 1.38916 5.54928 3.40859 3.38506C5.42802 1.22084 8.16602 0.00346001 11.0219 0H144.533C147.389 0.00346688 150.127 1.22085 152.146 3.38506C154.166 5.54928 155.302 8.48359 155.305 11.5443V186.497C155.302 189.557 154.166 192.492 152.146 194.656C150.127 196.82 147.389 198.037 144.533 198.041Z" fill="#E6E6E6"/>
<path d="M140.588 190.236H14.9666C13.6392 190.235 12.3666 189.669 11.428 188.663C10.4894 187.657 9.9614 186.293 9.9599 184.871V23.5763C9.9614 22.1538 10.4894 20.7899 11.428 19.784C12.3666 18.7781 13.6392 18.2123 14.9666 18.2107H140.588C141.916 18.2123 143.188 18.7781 144.127 19.784C145.066 20.7899 145.594 22.1538 145.595 23.5763V184.871C145.594 186.293 145.066 187.657 144.127 188.663C143.188 189.669 141.916 190.235 140.588 190.236Z" fill="white"/>
<path d="M100.756 75.5956C98.7156 70.3597 95.5458 65.9922 90.9448 63.0973C86.1108 60.0558 80.5925 57.5232 75.033 56.6096C69.4678 55.7284 63.7935 56.0687 58.3548 57.6099C55.7331 58.3377 52.8429 59.183 50.6318 60.9253C48.5179 62.5909 47.07 65.3309 45.8912 67.7924C44.7618 70.1505 44.0577 72.7473 44.669 75.3884C45.2323 77.8224 46.8074 79.8494 48.6089 81.3747C50.2183 82.7372 52.469 84.5409 54.6216 83.6965C54.7439 83.6485 54.8605 83.5854 54.9692 83.5085C58.6867 84.7207 62.3827 82.9578 66.1988 81.5775C68.518 80.7385 70.8499 80.3144 73.179 81.3614C75.4738 82.393 77.3417 84.4199 78.7107 86.6043C80.0132 88.6824 80.8705 91.0416 82.2993 93.0336C83.01 94.0591 83.9134 94.9135 84.9513 95.5416C85.9892 96.1697 87.1385 96.5576 88.3249 96.6801C92.936 97.2331 99.0558 96.7238 101.712 92.045C104.543 87.0592 102.691 80.5582 100.756 75.5956ZM53.6886 67.9385C54.3726 68.0217 55.0565 68.1048 55.7405 68.1878C54.4374 68.4392 53.2183 69.0518 52.2045 69.9646C51.8189 70.3134 51.4613 70.6962 51.1355 71.1091C51.1449 71.0757 51.1504 71.0438 51.1604 71.01C51.3616 70.339 51.69 69.7197 52.1251 69.1911C52.5601 68.6626 53.0925 68.2361 53.6886 67.9385ZM76.6488 72.619C76.8004 72.7411 76.9773 72.822 77.1645 72.8548C77.1864 72.8587 77.2082 72.8631 77.2302 72.867C77.3573 72.9452 77.4848 73.0227 77.6127 73.0995C77.5982 73.121 77.5874 73.1448 77.5736 73.1669C77.261 73.1322 76.9481 73.099 76.6353 73.0653C76.6574 72.9178 76.6619 72.7678 76.6488 72.619ZM84.925 83.1075C84.8559 83.1859 84.795 83.2721 84.7434 83.3648C84.7126 83.3171 84.6819 83.2694 84.6513 83.2216C84.7361 83.1678 84.8286 83.1293 84.925 83.1075ZM90.2703 89.3075C90.5802 89.3511 90.8901 89.3948 91.2 89.4384C91.1423 89.5463 91.0998 89.6627 91.0739 89.7839C90.8543 89.7916 90.6328 89.7956 90.4112 89.7965L90.2703 89.3075ZM94.7594 86.4802C94.8842 86.4573 95.0089 86.4343 95.1335 86.4114C95.3295 86.3774 95.5161 86.2979 95.6804 86.1785C95.6811 86.202 95.6829 86.2258 95.6838 86.2492C95.6865 86.3293 95.6936 86.4292 95.7029 86.5429C95.6724 86.6003 95.6414 86.6574 95.6087 86.714C95.3255 86.6361 95.0424 86.5582 94.7594 86.4802ZM78.8178 68.812C78.6689 68.679 78.5007 68.573 78.3199 68.498C77.4421 68.1346 76.5431 67.8333 75.6285 67.596C75.4915 67.4581 75.3577 67.3164 75.2273 67.1712C75.9995 67.3344 76.7629 67.5426 77.514 67.7948C78.4772 68.1257 79.4221 68.5151 80.3439 68.9611C79.8348 68.9003 79.3261 68.8506 78.8178 68.812ZM87.4053 69.4286C86.9572 69.1285 86.5063 68.8339 86.0526 68.5448C86.5176 68.8257 86.9762 69.1201 87.4281 69.4281L87.4053 69.4286ZM96.6645 73.9574C95.4627 72.3821 94.1337 70.9233 92.6928 69.5981C92.8041 69.3242 92.8602 69.0281 92.8572 68.7294C94.3668 70.2546 95.6507 72.0175 96.6645 73.9574ZM79.3964 61.0663C79.2066 61.0193 79.0167 60.9719 78.8266 60.9259C77.0214 60.4892 75.1824 60.0188 73.3268 59.6196C73.4264 59.6323 73.526 59.6424 73.6254 59.656C75.5855 59.9343 77.5175 60.4064 79.3964 61.0663Z" fill="#E85C43"/>
<path d="M77.7774 12.5198C79.7884 12.5198 81.4187 10.7727 81.4187 8.61749C81.4187 6.46232 79.7884 4.71521 77.7774 4.71521C75.7665 4.71521 74.1362 6.46232 74.1362 8.61749C74.1362 10.7727 75.7665 12.5198 77.7774 12.5198Z" fill="white"/>
<path d="M40.7458 162.079C40.7445 162.079 40.7431 162.079 40.7416 162.079C40.6077 162.08 40.4783 162.131 40.3766 162.225L36.8448 165.728V162.311C36.8448 162.281 36.8392 162.251 36.8284 162.222C36.8175 162.194 36.8016 162.169 36.7815 162.147C36.7614 162.126 36.7375 162.108 36.7113 162.097C36.685 162.085 36.6569 162.079 36.6284 162.079H35.754C35.7256 162.079 35.6974 162.085 35.6711 162.097C35.6449 162.108 35.621 162.126 35.6009 162.147C35.5808 162.169 35.5649 162.194 35.554 162.222C35.5432 162.251 35.5376 162.281 35.5376 162.311V170.5C35.5376 170.53 35.5432 170.56 35.554 170.588C35.5649 170.617 35.5808 170.642 35.6009 170.664C35.621 170.685 35.6449 170.702 35.6711 170.714C35.6974 170.726 35.7256 170.732 35.754 170.732H36.6241C36.6815 170.732 36.7366 170.707 36.7772 170.664C36.8178 170.62 36.8407 170.561 36.8407 170.5V167.106L40.3723 170.591C40.4745 170.683 40.604 170.733 40.7375 170.732C40.8894 170.734 41.036 170.672 41.145 170.558C41.2541 170.445 41.3166 170.289 41.3189 170.127V162.702C41.3194 162.621 41.3051 162.541 41.2766 162.465C41.2481 162.39 41.206 162.321 41.1528 162.263C41.0996 162.206 41.0362 162.16 40.9664 162.128C40.8966 162.096 40.8216 162.08 40.7458 162.079Z" fill="#E85C43"/>
<path d="M120.629 162.102L120.624 162.102H119.775C119.747 162.102 119.719 162.108 119.693 162.119C119.666 162.131 119.643 162.148 119.622 162.17C119.602 162.191 119.586 162.217 119.575 162.245C119.565 162.273 119.559 162.303 119.559 162.334V165.732L116.027 162.247C115.924 162.153 115.793 162.102 115.658 162.102V162.079C115.582 162.079 115.507 162.094 115.437 162.124C115.367 162.155 115.303 162.2 115.249 162.257C115.195 162.314 115.152 162.382 115.122 162.457C115.093 162.532 115.077 162.612 115.077 162.693C115.076 162.696 115.076 162.699 115.077 162.702V170.136C115.077 170.3 115.137 170.457 115.246 170.573C115.354 170.689 115.501 170.754 115.654 170.754L115.658 170.754C115.793 170.756 115.924 170.706 116.027 170.613L119.559 167.106V170.522C119.559 170.553 119.565 170.583 119.575 170.611C119.586 170.639 119.602 170.665 119.622 170.686C119.642 170.708 119.666 170.725 119.693 170.737C119.719 170.748 119.747 170.754 119.775 170.754H120.624C120.653 170.755 120.681 170.75 120.708 170.738C120.734 170.727 120.758 170.711 120.779 170.69C120.799 170.669 120.816 170.643 120.827 170.615C120.838 170.587 120.845 170.557 120.845 170.527V162.334C120.845 162.303 120.84 162.273 120.829 162.245C120.818 162.217 120.802 162.191 120.782 162.17C120.762 162.148 120.738 162.131 120.712 162.119C120.685 162.108 120.657 162.102 120.629 162.102Z" fill="#E85C43"/>
<path d="M76.7459 162.261H75.0183C74.5495 162.261 74.1694 162.668 74.1694 163.171V169.967C74.1694 170.47 74.5495 170.877 75.0183 170.877H76.7459C77.2148 170.877 77.5948 170.47 77.5948 169.967V163.171C77.5948 162.668 77.2148 162.261 76.7459 162.261Z" fill="#E85C43"/>
<path d="M81.3855 162.261H79.6451C79.4199 162.261 79.204 162.357 79.0448 162.527C78.8856 162.698 78.7961 162.93 78.7961 163.171V169.967C78.7961 170.209 78.8856 170.44 79.0448 170.611C79.204 170.781 79.4199 170.877 79.6451 170.877H81.3855C81.6107 170.877 81.8266 170.781 81.9858 170.611C82.145 170.44 82.2345 170.209 82.2345 169.967V163.171C82.2345 162.93 82.145 162.698 81.9858 162.527C81.8266 162.357 81.6107 162.261 81.3855 162.261Z" fill="#E85C43"/>
<path d="M128.573 152.685H27.8311C27.6252 152.684 27.4282 152.595 27.2831 152.439C27.138 152.282 27.0565 152.071 27.0565 151.85C27.0565 151.63 27.138 151.418 27.2831 151.262C27.4282 151.105 27.6252 151.017 27.8311 151.016H128.573C128.675 151.015 128.777 151.036 128.872 151.078C128.967 151.119 129.054 151.181 129.126 151.258C129.199 151.336 129.257 151.428 129.296 151.53C129.336 151.631 129.356 151.74 129.356 151.85C129.356 151.96 129.336 152.069 129.296 152.171C129.257 152.272 129.199 152.365 129.126 152.442C129.054 152.52 128.967 152.581 128.872 152.623C128.777 152.665 128.675 152.686 128.573 152.685Z" fill="#E85C43"/>
<path d="M57.7739 154.505C57.2836 154.506 56.8041 154.351 56.3959 154.059C55.9878 153.768 55.6694 153.354 55.481 152.869C55.2926 152.384 55.2427 151.85 55.3375 151.334C55.4323 150.819 55.6677 150.345 56.0137 149.973C56.3598 149.6 56.8012 149.347 57.2819 149.243C57.7626 149.14 58.2611 149.192 58.7144 149.392C59.1677 149.592 59.5554 149.932 59.8285 150.368C60.1016 150.805 60.2478 151.318 60.2486 151.843V151.848C60.2486 152.552 59.988 153.227 59.524 153.725C59.0601 154.223 58.4306 154.503 57.7739 154.505Z" fill="#CCCCCC"/>
<path d="M57.0377 153.126H27.3934C27.0781 153.125 26.7758 152.991 26.553 152.752C26.3301 152.513 26.205 152.188 26.205 151.85C26.205 151.512 26.3301 151.188 26.553 150.949C26.7758 150.71 27.0781 150.575 27.3934 150.575H57.0377C57.2031 150.575 57.3616 150.645 57.4785 150.771C57.5954 150.896 57.6611 151.066 57.6613 151.243V152.458C57.6611 152.635 57.5954 152.805 57.4785 152.93C57.3616 153.055 57.2031 153.126 57.0377 153.126Z" fill="#CCCCCC"/>
<path d="M80.9657 116.348C79.2475 116.296 77.1092 116.232 75.4628 114.943C74.9723 114.543 74.5693 114.033 74.282 113.449C73.9948 112.865 73.8302 112.22 73.7998 111.561C73.77 111.092 73.8418 110.622 74.0095 110.188C74.1772 109.754 74.4363 109.368 74.7665 109.059C75.6268 108.28 76.883 108.096 78.2369 108.523L76.8342 97.5375L77.8639 97.3864L79.5129 110.301L78.6532 109.879C77.6562 109.389 76.2878 109.139 75.4374 109.909C75.2286 110.111 75.066 110.361 74.9621 110.64C74.8582 110.92 74.8159 111.221 74.8384 111.521C74.8636 112.012 74.9872 112.492 75.2007 112.927C75.4142 113.362 75.7127 113.743 76.0758 114.043C77.3571 115.047 79.0615 115.176 80.9949 115.234L80.9657 116.348Z" fill="#3F3D56"/>
<path d="M71.7421 98.485H66.1445V99.5988H71.7421V98.485Z" fill="#3F3D56"/>
<path d="M89.4104 98.485H83.8128V99.5988H89.4104V98.485Z" fill="#3F3D56"/>
<path d="M56.4195 83.1043C51.9119 82.5535 48.4209 77.9249 48.0374 73.2286C47.5813 67.6415 50.6173 62.3351 54.7825 59.1999C59.1384 55.9212 64.5654 54.552 69.8162 54.2506C80.0594 53.7044 90.1261 57.2603 98.0586 64.227C101.993 67.7292 105.668 72.1903 107.06 77.5787C108.27 82.2584 107.286 87.5598 103.774 90.8373C102.905 91.6405 101.89 92.242 100.794 92.6038C99.6972 92.9656 98.5426 93.08 97.4028 92.9395C94.6777 92.6363 92.1635 91.1007 89.9871 89.4049C85.7535 86.106 82.278 81.5104 77.1201 79.7866C73.3382 78.5226 68.4304 79.6352 66.1193 83.3004C65.5949 84.1394 65.2551 85.0951 65.1254 86.0954C65.0777 86.3087 65.1073 86.5335 65.2084 86.7243C65.3095 86.9151 65.4744 87.0576 65.6698 87.123C65.8692 87.1805 66.0816 87.1515 66.2611 87.0423C66.4406 86.9331 66.5727 86.7524 66.6287 86.5395C67.2354 81.923 72.5321 80.2004 76.2489 81.2547C81.6681 82.7919 85.306 87.9745 89.7523 91.2672C92.09 92.9984 94.7488 94.3826 97.616 94.631C100.088 94.8388 102.541 94.0312 104.477 92.3721C108.276 89.1576 109.728 83.6288 108.888 78.6511C107.916 72.8868 104.295 67.9465 100.323 64.1216C92.2708 56.4495 81.8165 52.3106 71.0438 52.5298C65.5492 52.665 59.8161 53.8806 55.0825 56.993C50.4909 60.012 46.942 65.0627 46.4782 70.9337C46.0699 76.1013 48.657 81.5063 53.0978 83.7702C54.1449 84.3017 55.2677 84.6414 56.4195 84.7751C57.4146 84.8967 57.4065 83.225 56.4195 83.1043Z" fill="#3F3D56"/>
</g>
<defs>
<clipPath id="clip0_17_159">
<rect width="259" height="210" fill="white" transform="translate(0.25)"/>
</clipPath>
</defs>
</svg>
