<svg width="259" height="175" viewBox="0 0 259 175" fill="none" xmlns="http://www.w3.org/2000/svg">
<g clip-path="url(#clip0_17_401)">
<path d="M256.479 3.28255e-09H81.2256C80.5581 0.000582597 79.9181 0.26602 79.4461 0.73804C78.9741 1.21006 78.7086 1.85009 78.7081 2.51761V65.865H121.121C122.269 65.8664 123.37 66.3231 124.182 67.135C124.994 67.9469 125.451 69.0476 125.452 70.1958V123.79H256.479C256.843 123.79 257.203 123.711 257.534 123.559C257.864 123.406 258.158 123.184 258.394 122.907C258.414 122.885 258.432 122.862 258.449 122.838C258.599 122.654 258.721 122.448 258.81 122.228C258.936 121.926 259.001 121.601 259 121.273V2.51761C258.999 1.84962 258.733 1.20925 258.261 0.737181C257.788 0.265112 257.147 -3.40646e-05 256.479 3.28255e-09Z" fill="#F2F2F2"/>
<path d="M258.638 10.0909H79.0663V10.8107H258.638V10.0909Z" fill="#CCCCCC"/>
<path d="M85.1839 7.55756C86.3764 7.55756 87.3431 6.59088 87.3431 5.39841C87.3431 4.20594 86.3764 3.23926 85.1839 3.23926C83.9915 3.23926 83.0247 4.20594 83.0247 5.39841C83.0247 6.59088 83.9915 7.55756 85.1839 7.55756Z" fill="#CCCCCC"/>
<path d="M91.3916 7.55756C92.5841 7.55756 93.5508 6.59088 93.5508 5.39841C93.5508 4.20594 92.5841 3.23926 91.3916 3.23926C90.1991 3.23926 89.2324 4.20594 89.2324 5.39841C89.2324 6.59088 90.1991 7.55756 91.3916 7.55756Z" fill="#CCCCCC"/>
<path d="M97.5992 7.55756C98.7917 7.55756 99.7584 6.59088 99.7584 5.39841C99.7584 4.20594 98.7917 3.23926 97.5992 3.23926C96.4068 3.23926 95.4401 4.20594 95.4401 5.39841C95.4401 6.59088 96.4068 7.55756 97.5992 7.55756Z" fill="#CCCCCC"/>
<path d="M213.893 25.8055H123.812C122.817 25.8055 121.862 26.201 121.158 26.9049C120.454 27.6087 120.059 28.5634 120.059 29.5589C120.059 30.5543 120.454 31.509 121.158 32.2129C121.862 32.9167 122.817 33.3122 123.812 33.3122H213.893C214.889 33.3122 215.843 32.9167 216.547 32.2129C217.251 31.509 217.646 30.5543 217.646 29.5589C217.646 28.5634 217.251 27.6087 216.547 26.9049C215.843 26.201 214.889 25.8055 213.893 25.8055ZM213.893 32.7347H123.812C122.97 32.7347 122.162 32.4001 121.566 31.8046C120.971 31.209 120.636 30.4012 120.636 29.5589C120.636 28.7166 120.971 27.9088 121.566 27.3132C122.162 26.7176 122.97 26.383 123.812 26.383H213.893C214.735 26.383 215.543 26.7176 216.139 27.3132C216.734 27.9088 217.069 28.7166 217.069 29.5589C217.069 30.4012 216.734 31.209 216.139 31.8046C215.543 32.4001 214.735 32.7347 213.893 32.7347Z" fill="#CCCCCC"/>
<path d="M241.457 55.7079H151.376C150.381 55.7079 149.426 56.1033 148.722 56.8072C148.018 57.5111 147.623 58.4658 147.623 59.4612C147.623 60.4566 148.018 61.4113 148.722 62.1152C149.426 62.8191 150.381 63.2145 151.376 63.2145H241.457C242.453 63.2145 243.408 62.8191 244.111 62.1152C244.815 61.4113 245.211 60.4566 245.211 59.4612C245.211 58.4658 244.815 57.5111 244.111 56.8072C243.408 56.1033 242.453 55.7079 241.457 55.7079Z" fill="white"/>
<path d="M241.457 69.5664H151.376C150.381 69.5664 149.426 69.9618 148.722 70.6657C148.018 71.3696 147.623 72.3243 147.623 73.3197C147.623 74.3152 148.018 75.2698 148.722 75.9737C149.426 76.6776 150.381 77.073 151.376 77.073H241.457C242.453 77.073 243.408 76.6776 244.111 75.9737C244.815 75.2698 245.211 74.3152 245.211 73.3197C245.211 72.3243 244.815 71.3696 244.111 70.6657C243.408 69.9618 242.453 69.5664 241.457 69.5664Z" fill="white"/>
<path d="M241.457 83.4248H151.376C150.381 83.4248 149.426 83.8202 148.722 84.5241C148.018 85.228 147.623 86.1827 147.623 87.1781C147.623 88.1736 148.018 89.1282 148.722 89.8321C149.426 90.536 150.381 90.9314 151.376 90.9314H241.457C242.453 90.9314 243.408 90.536 244.111 89.8321C244.815 89.1282 245.211 88.1736 245.211 87.1781C245.211 86.1827 244.815 85.228 244.111 84.5241C243.408 83.8202 242.453 83.4248 241.457 83.4248Z" fill="white"/>
<path d="M136.819 49.5005H95.8148C94.9353 49.5015 94.0921 49.8514 93.4702 50.4733C92.8483 51.0952 92.4984 51.9383 92.4973 52.8178V65.865H93.0748V52.8178C93.0759 52.0915 93.3649 51.3952 93.8786 50.8816C94.3922 50.368 95.0885 50.079 95.8148 50.0779H136.819C137.546 50.0785 138.242 50.3674 138.756 50.8811C139.269 51.3948 139.558 52.0914 139.559 52.8178V93.8214C139.558 94.5479 139.269 95.2444 138.756 95.7582C138.242 96.2719 137.546 96.5607 136.819 96.5613H125.452V97.1388H136.819C137.699 97.1382 138.542 96.7885 139.164 96.1665C139.786 95.5445 140.136 94.7011 140.136 93.8214V52.8178C140.136 51.9382 139.786 51.0948 139.164 50.4727C138.542 49.8507 137.699 49.5011 136.819 49.5005Z" fill="#CCCCCC"/>
<path d="M30.4958 91.6871C30.3507 91.693 24.1698 91.2644 24.012 91.2591L24.5673 85.7165L28.0877 85.6105L34.8149 73.1508C33.8819 71.3718 35.03 69.0111 37.0093 68.6473C40.9977 67.7408 42.3677 74.0155 38.3672 74.8504L32.8029 90.0755C32.6283 90.5471 32.3138 90.9542 31.9015 91.2423C31.4892 91.5303 30.9987 91.6855 30.4958 91.6871Z" fill="#FFB8B8"/>
<path d="M14.2006 94.5419C8.31885 94.5563 7.80252 85.6674 13.6973 85.041C29.2849 84.0992 27.3123 80.1843 28.4961 91.7321C28.5324 92.0746 28.4314 92.4176 28.2152 92.6857C27.999 92.9539 27.6852 93.1253 27.3427 93.1623L14.7111 94.5146C14.5415 94.5327 14.3711 94.5419 14.2006 94.5419Z" fill="#E85C43"/>
<path d="M12.8582 66.438C20.961 71.0488 14.309 83.2143 6.05512 78.8823C-2.04745 74.2717 4.60457 62.1062 12.8582 66.438Z" fill="#FFB8B8"/>
<path d="M20.2246 171.158L23.7641 171.158L25.4482 157.505L20.2241 157.505L20.2246 171.158Z" fill="#FFB8B8"/>
<path d="M19.4662 174.445L30.5908 174.444C30.5483 168.704 23.1077 170.358 19.466 170.147L19.4662 174.445Z" fill="#2F2E41"/>
<path d="M4.92241 171.158L8.46184 171.158L10.146 157.505L4.92183 157.505L4.92241 171.158Z" fill="#FFB8B8"/>
<path d="M4.16396 174.445L15.2886 174.444C15.2461 168.704 7.80547 170.358 4.16376 170.147L4.16396 174.445Z" fill="#2F2E41"/>
<path d="M8.94515 166.39C8.08967 166.155 3.44102 166.865 2.8924 165.933C0.976443 146.73 1.40234 127.937 5.65538 117.611L20.2786 116.715C23.5486 122.685 31.0653 162.296 26.5311 164.705L20.7005 164.913C20.3681 164.924 20.042 164.82 19.777 164.619C19.5121 164.417 19.3244 164.131 19.2456 163.808L14.3677 136.057C13.153 134.359 10.7652 165.283 10.3709 165.167C10.3195 165.508 10.1472 165.819 9.88547 166.044C9.62373 166.268 9.28999 166.391 8.94515 166.39Z" fill="#2F2E41"/>
<path d="M5.19093 120.038C-2.19213 112.314 2.51726 91.6054 2.27891 92.0458C2.29914 91.5386 3.97139 83.7262 8.29715 82.444C11.7291 81.3114 15.5277 84.6994 15.9962 88.1261L21.1373 118.486C21.1639 118.651 21.1513 118.82 21.1004 118.98C21.0496 119.139 20.962 119.284 20.8446 119.404C21.0974 120.191 5.55237 119.88 5.19093 120.038Z" fill="#E85C43"/>
<path d="M7.58702 71.8713C8.2354 71.4614 8.55497 70.7584 8.93237 70.118C10.9203 68.9851 13.2057 71.7259 15.3083 70.703C21.2539 64.9953 15.1425 63.3114 9.66657 63.0104C8.37299 62.851 7.27257 63.3099 6.29457 64.0677C-4.64384 63.2324 0.602066 77.7768 7.50553 79.6978C8.72439 80.2317 9.63873 79.1511 8.56384 78.1689C7.07666 76.6098 5.23441 73.4715 7.58702 71.8713Z" fill="#2F2E41"/>
<path d="M121.121 65.2876H42.0116C40.7104 65.2894 39.463 65.8071 38.5429 66.7272C37.6229 67.6473 37.1052 68.8946 37.1033 70.1958V170.092C37.1052 171.393 37.6229 172.64 38.5429 173.56C39.463 174.48 40.7104 174.998 42.0116 175H121.121C122.422 174.998 123.67 174.48 124.59 173.56C125.51 172.64 126.028 171.393 126.029 170.092V70.1958C126.028 68.8946 125.51 67.6473 124.59 66.7272C123.67 65.8071 122.422 65.2894 121.121 65.2876ZM125.452 170.092C125.451 171.24 124.994 172.341 124.182 173.153C123.37 173.964 122.269 174.421 121.121 174.423H42.0116C40.8634 174.421 39.7626 173.964 38.9508 173.153C38.1389 172.341 37.6821 171.24 37.6808 170.092V70.1958C37.6821 69.0476 38.1389 67.9469 38.9508 67.135C39.7626 66.3232 40.8634 65.8664 42.0116 65.865H121.121C122.269 65.8664 123.37 66.3232 124.182 67.135C124.994 67.9469 125.451 69.0476 125.452 70.1958V170.092Z" fill="#3F3D56"/>
<path d="M19.7216 107.324C17.1143 107.619 15.9696 101.552 14.9727 100.006L20.1653 97.9899L21.8549 101.08L36.0104 101.432C36.0945 101.318 36.1864 101.21 36.2853 101.109C39.0926 98.1692 43.6643 102.573 40.8677 105.506C40.5591 105.834 40.1846 106.093 39.7688 106.265C39.353 106.438 38.9053 106.521 38.4553 106.507C38.0052 106.494 37.5631 106.386 37.1579 106.19C36.7528 105.994 36.3938 105.714 36.1048 105.369C35.7552 105.393 20.0634 107.333 19.7216 107.324Z" fill="#FFB8B8"/>
<path d="M15.8762 104.428C15.008 105.264 8.3432 93.5221 7.85629 93.1902C4.48855 87.9558 12.4168 82.7877 15.8426 87.9938L22.7711 98.6414C22.9586 98.9303 23.0239 99.2818 22.9526 99.6188C22.8813 99.9557 22.6792 100.251 22.3907 100.439C22.0749 100.587 16.099 104.746 15.8762 104.428Z" fill="#E85C43"/>
<path d="M105.53 134.435H57.6026C52.7068 134.412 52.6864 126.954 57.6029 126.929H105.53C110.423 126.952 110.449 134.41 105.53 134.435Z" fill="#CCCCCC"/>
<path d="M105.53 148.294H57.6026C52.7068 148.27 52.6864 140.813 57.6029 140.787H105.53C110.423 140.81 110.449 148.268 105.53 148.294Z" fill="#CCCCCC"/>
<path d="M105.53 162.152H57.6026C52.7068 162.129 52.6864 154.671 57.6029 154.646H105.53C110.423 154.668 110.449 162.127 105.53 162.152Z" fill="#CCCCCC"/>
<path d="M123.431 74.5265C121.946 74.5265 120.495 74.0862 119.26 73.2614C118.026 72.4365 117.064 71.2642 116.496 69.8925C115.927 68.5208 115.779 67.0115 116.068 65.5554C116.358 64.0992 117.073 62.7617 118.123 61.7118C119.173 60.662 120.51 59.9471 121.966 59.6574C123.423 59.3678 124.932 59.5164 126.304 60.0846C127.675 60.6528 128.848 61.6149 129.673 62.8494C130.497 64.0838 130.938 65.5352 130.938 67.0198C130.935 69.01 130.144 70.9181 128.737 72.3253C127.329 73.7326 125.421 74.5242 123.431 74.5265Z" fill="#E85C43"/>
<path d="M126.896 66.7312H123.72V63.1222C123.72 63.0456 123.689 62.9722 123.635 62.9181C123.581 62.8639 123.508 62.8335 123.431 62.8335C123.354 62.8335 123.281 62.8639 123.227 62.9181C123.173 62.9722 123.142 63.0456 123.142 63.1222V66.7312H119.966C119.89 66.7312 119.816 66.7616 119.762 66.8157C119.708 66.8699 119.678 66.9433 119.678 67.0199C119.678 67.0965 119.708 67.1699 119.762 67.224C119.816 67.2782 119.89 67.3086 119.966 67.3086H123.142V70.9176C123.142 70.9941 123.173 71.0676 123.227 71.1217C123.281 71.1759 123.354 71.2063 123.431 71.2063C123.508 71.2063 123.581 71.1759 123.635 71.1217C123.689 71.0676 123.72 70.9941 123.72 70.9176V67.3086H126.896C126.972 67.3086 127.046 67.2782 127.1 67.224C127.154 67.1699 127.184 67.0965 127.184 67.0199C127.184 66.9433 127.154 66.8699 127.1 66.8157C127.046 66.7616 126.972 66.7312 126.896 66.7312Z" fill="white"/>
<path d="M104.664 117.921H58.4687C57.2057 117.919 55.9948 117.417 55.1017 116.524C54.2086 115.631 53.7062 114.42 53.7048 113.157V87.2879C53.7062 86.0249 54.2086 84.814 55.1017 83.9209C55.9948 83.0278 57.2057 82.5255 58.4687 82.524H104.664C105.927 82.5255 107.138 83.0278 108.031 83.9209C108.924 84.814 109.427 86.0249 109.428 87.2879V113.157C109.427 114.42 108.924 115.631 108.031 116.524C107.138 117.417 105.927 117.919 104.664 117.921Z" fill="#E85C43"/>
</g>
<defs>
<clipPath id="clip0_17_401">
<rect width="259" height="175" fill="white"/>
</clipPath>
</defs>
</svg>
