<svg width="259" height="191" viewBox="0 0 259 191" fill="none" xmlns="http://www.w3.org/2000/svg">
<g clip-path="url(#clip0_17_57)">
<path d="M25.4704 50.7628C39.5373 50.7628 50.9408 39.3991 50.9408 25.3814C50.9408 11.3636 39.5373 0 25.4704 0C11.4035 0 0 11.3636 0 25.3814C0 39.3991 11.4035 50.7628 25.4704 50.7628Z" fill="#F0F0F0"/>
<path d="M233.53 107.642C247.597 107.642 259 96.2779 259 82.2602C259 68.2424 247.597 56.8788 233.53 56.8788C219.463 56.8788 208.059 68.2424 208.059 82.2602C208.059 96.2779 219.463 107.642 233.53 107.642Z" fill="#F0F0F0"/>
<path d="M153.963 188.945L149.485 187.066L146.413 164.696H105.505L102.176 186.975L98.1694 188.971C97.9777 189.066 97.824 189.223 97.7332 189.417C97.6424 189.61 97.6197 189.829 97.669 190.036C97.7182 190.244 97.8364 190.429 98.0045 190.562C98.1726 190.695 98.3806 190.767 98.5949 190.767H153.594C153.813 190.767 154.026 190.691 154.196 190.552C154.366 190.414 154.483 190.221 154.526 190.006C154.57 189.792 154.537 189.569 154.435 189.375C154.332 189.182 154.165 189.03 153.963 188.945Z" fill="#E6E6E6"/>
<path d="M226.658 167.673H25.7092C24.6549 167.67 23.6445 167.251 22.8999 166.507C22.1552 165.764 21.737 164.756 21.7369 163.705V135.468H230.63V163.705C230.63 164.756 230.212 165.764 229.467 166.507C228.723 167.251 227.712 167.67 226.658 167.673Z" fill="#CCCCCC"/>
<path d="M230.84 148.814H21.5535V27.9917C21.555 26.7237 22.0611 25.5081 22.9609 24.6115C23.8606 23.715 25.0805 23.2106 26.3529 23.2092H226.041C227.313 23.2106 228.533 23.715 229.433 24.6115C230.333 25.5081 230.839 26.7237 230.84 27.9917V148.814Z" fill="#3F3D56"/>
<path d="M218.34 140.044H34.0534C33.0725 140.043 32.132 139.654 31.4384 138.963C30.7447 138.272 30.3545 137.335 30.3534 136.357V35.6654C30.3545 34.6879 30.7447 33.7507 31.4383 33.0595C32.132 32.3682 33.0724 31.9794 34.0534 31.9783H218.34C219.321 31.9794 220.262 32.3682 220.955 33.0595C221.649 33.7507 222.039 34.6879 222.04 35.6654V136.357C222.039 137.335 221.649 138.272 220.955 138.963C220.262 139.654 219.321 140.043 218.34 140.044Z" fill="white"/>
<path d="M177.88 191H74.3269C74.2208 191.002 74.1169 190.97 74.0315 190.907C73.9461 190.844 73.8839 190.755 73.8546 190.653C73.8363 190.584 73.8341 190.512 73.8483 190.442C73.8625 190.372 73.8927 190.306 73.9365 190.249C73.9803 190.192 74.0365 190.146 74.1009 190.115C74.1653 190.083 74.2361 190.067 74.3079 190.067H177.842C177.954 190.063 178.064 190.097 178.154 190.163C178.244 190.229 178.309 190.324 178.338 190.432C178.353 190.5 178.353 190.571 178.337 190.639C178.321 190.707 178.29 190.771 178.246 190.825C178.202 190.88 178.146 190.924 178.083 190.954C178.02 190.984 177.95 191 177.88 191Z" fill="#CCCCCC"/>
<path d="M197.452 122.119H158.624C158.528 122.127 158.432 122.097 158.357 122.036C158.282 121.974 158.235 121.886 158.225 121.79V90.5799C158.235 90.4837 158.282 90.3953 158.357 90.3337C158.432 90.2721 158.528 90.2421 158.624 90.2502H197.452C197.548 90.2421 197.644 90.2721 197.719 90.3337C197.794 90.3953 197.841 90.4837 197.852 90.5799V121.79C197.841 121.886 197.794 121.974 197.719 122.036C197.644 122.097 197.548 122.127 197.452 122.119Z" fill="#F0F0F0"/>
<path d="M193.231 93.7032H162.845C162.739 93.7034 162.637 93.7454 162.562 93.8201C162.487 93.8948 162.445 93.9961 162.445 94.1017V117.565C162.445 117.67 162.487 117.771 162.562 117.846C162.637 117.921 162.739 117.963 162.845 117.963H193.231C193.337 117.963 193.439 117.921 193.514 117.846C193.589 117.771 193.631 117.67 193.631 117.565V94.1017C193.631 93.9961 193.589 93.8948 193.514 93.8201C193.439 93.7454 193.337 93.7034 193.231 93.7032Z" fill="white"/>
<path d="M177.287 109.602C179.421 109.602 181.151 107.878 181.151 105.752C181.151 103.626 179.421 101.902 177.287 101.902C175.154 101.902 173.424 103.626 173.424 105.752C173.424 107.878 175.154 109.602 177.287 109.602Z" fill="#FFB8B8"/>
<path d="M182.94 117.963H174.374L174.654 111.687L174.72 111.618L175.682 110.605H178.741L179.875 111.7L179.966 111.788L182.38 114.094L182.94 117.963Z" fill="#E85C43"/>
<path d="M175.847 117.963H169.366C169.35 116.546 169.341 115.698 169.341 115.698L169.716 115.471L169.718 115.47H169.719L173.849 112.971L174.716 111.568L174.72 111.617L174.975 114.576C174.975 114.576 175.397 115.932 175.847 117.963Z" fill="#2F2E41"/>
<path d="M186.739 117.963H179.875C179.978 113.832 179.419 111.568 179.707 111.568L179.875 111.7L181.898 113.292L184.564 114.267H184.566L186.404 114.939L186.727 115.056V115.208C186.728 115.571 186.729 116.563 186.739 117.963Z" fill="#2F2E41"/>
<path d="M173.632 106.957C173.632 106.957 173.96 106.382 173.884 104.463C173.808 102.544 176.74 103.629 179.191 103.446C181.641 103.263 181.123 106.65 181.123 106.65C181.123 106.65 181.299 106.449 181.678 104.814C182.056 103.18 181.197 101.551 181.197 101.551C180.944 99.8329 179.58 100.383 179.58 100.383C179.752 100.427 179.902 100.533 180 100.681C180.098 100.829 180.138 101.008 180.111 101.183C179.554 100.212 178.19 100.762 178.19 100.762C176.371 99.6246 174.527 101.123 174.527 101.123C172.33 101.62 173.619 103.361 173.619 103.361C171.408 104.474 173.632 106.957 173.632 106.957Z" fill="#2F2E41"/>
<path d="M170.232 117.963H167.569C167.59 117.636 167.59 117.308 167.571 116.981C167.412 116.35 169.649 115.496 169.716 115.471L169.718 115.47H169.719L170.145 115.698L170.232 117.963Z" fill="#2F2E41"/>
<path d="M187.22 117.963H184.423L184.074 114.528L184.465 114.243C184.465 114.243 184.501 114.251 184.564 114.267H184.566C185.205 114.411 185.823 114.637 186.404 114.939C186.527 115.008 186.637 115.099 186.727 115.208C186.782 115.274 186.809 115.358 186.803 115.443C186.789 115.572 186.952 116.517 187.22 117.963Z" fill="#2F2E41"/>
<path d="M197.325 82.2985H158.498C158.401 82.3066 158.305 82.2766 158.23 82.2149C158.156 82.1533 158.108 82.0649 158.098 81.9687V50.748C158.108 50.6518 158.156 50.5634 158.23 50.5017C158.305 50.4401 158.401 50.4101 158.498 50.4182H197.325C197.422 50.4101 197.518 50.4401 197.593 50.5017C197.667 50.5634 197.715 50.6518 197.725 50.748V81.9687C197.715 82.0649 197.667 82.1533 197.593 82.215C197.518 82.2766 197.422 82.3066 197.325 82.2985Z" fill="#F0F0F0"/>
<path d="M193.105 53.8713H162.718C162.612 53.8715 162.511 53.9135 162.436 53.9882C162.361 54.0629 162.319 54.1641 162.318 54.2698V77.7327C162.319 77.8383 162.361 77.9396 162.436 78.0142C162.511 78.0889 162.612 78.131 162.718 78.1311H193.105C193.211 78.131 193.312 78.0889 193.387 78.0142C193.462 77.9396 193.505 77.8383 193.505 77.7327V54.2698C193.505 54.1641 193.462 54.0629 193.387 53.9882C193.312 53.9135 193.211 53.8715 193.105 53.8713Z" fill="white"/>
<path d="M185.391 78.131C185.562 77.5157 185.696 76.9853 185.764 76.6099C185.785 76.4942 185.787 76.3758 185.77 76.2593C185.514 74.4451 180.892 72.9117 180.3 72.7222L180.157 71.1426L174.339 70.5184L173.602 72.5389L171.514 73.3189C171.439 73.3467 171.367 73.3836 171.3 73.4287C171.125 73.5466 170.99 73.715 170.914 73.9115C170.838 74.108 170.824 74.3229 170.875 74.5275L171.764 78.131L185.391 78.131Z" fill="#E85C43"/>
<path d="M173.33 78.1311H168.816C168.978 77.1271 169.123 76.239 169.217 75.6741C169.561 73.6182 171.065 73.4429 171.3 73.4288C171.319 73.427 171.33 73.427 171.331 73.427H172.281L173.33 78.1311Z" fill="#E85C43"/>
<path d="M185.391 78.1311H186.486C186.432 77.4517 186.184 76.8019 185.77 76.2594C185.563 75.9861 185.295 75.7641 184.988 75.6104L184.905 75.575L183.943 78.1311H185.391Z" fill="#E85C43"/>
<path d="M177.021 69.5187C179.334 69.5187 181.21 67.6498 181.21 65.3444C181.21 63.039 179.334 61.17 177.021 61.17C174.707 61.17 172.832 63.039 172.832 65.3444C172.832 67.6498 174.707 69.5187 177.021 69.5187Z" fill="#A0616A"/>
<path d="M174.209 63.3106C174.643 63.822 175.376 63.9662 176.053 64.0249C177.636 64.112 179.223 63.9829 180.771 63.6411C180.867 64.5672 180.605 65.5658 181.153 66.3278C181.409 65.4054 181.558 64.4567 181.597 63.5003C181.638 63.09 181.584 62.6758 181.44 62.2893C181.363 62.0956 181.233 61.9274 181.065 61.8038C180.896 61.6801 180.696 61.606 180.488 61.5898C180.8 61.354 181.166 61.1983 181.552 61.1365L180.222 60.4705L180.564 60.121L178.156 59.9742L178.853 59.5327C177.803 59.389 176.741 59.3557 175.684 59.4334C175.19 59.4336 174.706 59.5678 174.282 59.8216C173.885 60.1049 173.655 60.668 173.902 61.0839C173.593 61.1345 173.302 61.2629 173.057 61.4568C172.811 61.6508 172.62 61.904 172.5 62.1923C172.349 62.6507 172.312 63.139 172.394 63.6147C172.485 64.3779 172.663 65.1283 172.924 65.8511" fill="#2F2E41"/>
<path d="M54.5423 121.246V50.649C54.5671 50.43 54.677 50.2293 54.8484 50.0899C55.0198 49.9505 55.2392 49.8835 55.4595 49.9033H144.536C144.757 49.8836 144.976 49.9505 145.147 50.0899C145.319 50.2293 145.429 50.43 145.454 50.649V121.246C145.429 121.465 145.319 121.666 145.147 121.805C144.976 121.945 144.757 122.012 144.536 121.992H55.4595C55.2392 122.012 55.0198 121.945 54.8484 121.805C54.677 121.666 54.5671 121.465 54.5423 121.246Z" fill="#E4E4E4"/>
<path d="M64.2245 58.7394V112.567C64.2248 112.81 64.3216 113.042 64.4935 113.213C64.6655 113.385 64.8986 113.481 65.1417 113.482H134.854C135.097 113.481 135.33 113.385 135.502 113.213C135.674 113.042 135.771 112.81 135.771 112.567V58.7394C135.771 58.4971 135.674 58.2648 135.502 58.0934C135.33 57.9221 135.097 57.8257 134.854 57.8253H65.1417C64.8986 57.8257 64.6655 57.9221 64.4935 58.0934C64.3216 58.2648 64.2248 58.4971 64.2245 58.7394Z" fill="white"/>
<path d="M93.1388 113.482H107.169L106.294 100.404L101.233 101.568L96.3105 99.6812L96.18 99.6325L96.1718 99.6284C96.1701 99.6323 96.1687 99.6364 96.1677 99.6406C96.0903 99.9514 94.5452 106.116 93.1388 113.482Z" fill="#E85C43"/>
<path d="M84.6835 102.539L85.9941 113.481H97.8188L96.3106 99.6812L96.2961 99.547L96.1801 99.6323L96.1679 99.6406L93.2507 101.761L84.6835 102.539Z" fill="#2F2E41"/>
<path d="M105.094 113.481H115.683L115.836 104.867L108.043 102.291L106.294 100.404C106.294 100.404 105.742 106.082 105.094 113.481Z" fill="#2F2E41"/>
<path d="M79.5856 113.482H88.3608L87.7982 105.643L84.6836 102.539C84.6836 102.539 82.2192 107.69 79.5856 113.482Z" fill="#2F2E41"/>
<path d="M113.186 113.481H117.815C117.795 110.971 117.783 109.236 117.783 108.747C117.806 107.99 117.64 107.239 117.3 106.562C116.961 105.885 116.457 105.302 115.836 104.867L113.498 105.643L113.186 113.481Z" fill="#2F2E41"/>
<path d="M113.908 96.2892H89.379V85.9869C89.379 82.4562 91.8751 78.2112 94.9433 76.5241C99.2498 74.1565 103.958 74.1149 107.86 76.4106C109.697 77.4943 111.22 79.0347 112.28 80.8809C113.34 82.7272 113.901 84.816 113.908 86.9431V96.2892Z" fill="#2F2E41"/>
<path d="M109.903 91.4413C112.25 87.1628 110.673 81.7984 106.379 79.4596C102.086 77.1207 96.7023 78.6931 94.3553 82.9716C92.0083 87.2501 93.5862 92.6145 97.8797 94.9533C102.173 97.2922 107.556 95.7198 109.903 91.4413Z" fill="#FFB8B8"/>
<path d="M110.551 87.6622H97.9109L97.881 87.5191C97.7347 86.7683 97.5457 86.0264 97.3148 85.297C96.8129 86.0298 96.35 86.7884 95.9281 87.5697L95.8766 87.6622H93.4193C93.2685 87.662 93.1194 87.6306 92.9815 87.5698C92.8436 87.509 92.72 87.4203 92.6184 87.3092C92.5516 87.2358 92.3952 87.0642 93.0424 79.1912C93.0602 79.0037 93.1266 78.8241 93.235 78.6698C93.3435 78.5156 93.4902 78.3921 93.661 78.3113C99.2069 75.7314 104.827 75.7996 110.367 78.5153H110.465L110.5 78.6522C111.593 87.0319 111.436 87.2128 111.369 87.2901C111.267 87.4069 111.141 87.5006 111 87.5648C110.859 87.629 110.706 87.6622 110.551 87.6622Z" fill="#2F2E41"/>
</g>
<defs>
<clipPath id="clip0_17_57">
<rect width="259" height="191" fill="white"/>
</clipPath>
</defs>
</svg>
