<svg width="260" height="197" viewBox="0 0 260 197" fill="none" xmlns="http://www.w3.org/2000/svg">
<g clip-path="url(#clip0_17_267)">
<path d="M157.799 59.3642C158.121 59.379 158.44 59.2945 158.713 59.1221C158.985 58.9497 159.198 58.6978 159.323 58.4005C159.447 58.1031 159.477 57.7748 159.409 57.4599C159.34 57.145 159.176 56.8587 158.939 56.64C158.9 56.4825 158.871 56.3693 158.831 56.2118C158.846 56.1775 158.86 56.1433 158.874 56.109C160.323 52.6586 165.231 52.6824 166.668 56.138C167.942 59.2049 169.565 62.2771 169.965 65.5199C170.141 66.9533 170.066 68.4063 169.745 69.8144C172.739 63.2901 174.293 56.199 174.303 49.0219C174.304 47.2209 174.204 45.4212 174.003 43.6314C173.838 42.1641 173.608 40.7072 173.314 39.2608C171.709 31.4128 168.264 24.0569 163.261 17.7973C160.84 16.4775 158.882 14.4478 157.651 11.9819C157.205 11.0955 156.89 10.1492 156.715 9.17256C156.988 9.20835 157.745 5.0525 157.539 4.79752C157.92 4.22046 158.601 3.93361 159.017 3.37052C161.084 0.570043 163.933 1.05902 165.42 4.86465C168.596 6.4664 168.627 9.12281 166.678 11.6777C165.438 13.3031 165.267 15.5024 164.179 17.2426C164.291 17.3857 164.408 17.5244 164.52 17.6676C166.566 20.2964 168.35 23.1192 169.845 26.0956C169.422 22.7945 170.046 18.8176 171.111 16.254C172.323 13.3331 174.594 10.8731 176.595 8.34793C178.998 5.31485 183.925 6.63855 184.348 10.4834C184.352 10.5207 184.356 10.5579 184.36 10.5951C184.063 10.7626 183.772 10.9403 183.488 11.1283C183.13 11.367 182.853 11.7079 182.693 12.1065C182.533 12.5052 182.497 12.9428 182.59 13.3622C182.683 13.7816 182.9 14.1631 183.214 14.4568C183.528 14.7505 183.923 14.9427 184.348 15.0081L184.392 15.0148C184.286 16.0847 184.099 17.145 183.832 18.1865C186.398 28.1017 180.858 31.713 172.947 31.8752C172.772 31.9647 172.602 32.0541 172.427 32.1392C173.929 36.3921 174.872 40.8222 175.23 45.3179C175.433 47.9702 175.421 50.6346 175.194 53.285L175.208 53.1911C175.781 50.2439 177.355 47.5846 179.663 45.6623C183.092 42.8485 187.936 41.8124 191.635 39.5506C193.415 38.4619 195.697 39.8688 195.386 41.9311C195.381 41.9641 195.376 41.997 195.371 42.0299C194.82 42.2543 194.283 42.5127 193.763 42.8038C193.466 42.9713 193.175 43.149 192.891 43.337C192.533 43.5757 192.256 43.9166 192.096 44.3153C191.936 44.7139 191.9 45.1515 191.993 45.5709C192.086 45.9903 192.304 46.3718 192.617 46.6655C192.931 46.9592 193.326 47.1514 193.751 47.2169L193.795 47.2235C193.826 47.228 193.853 47.2325 193.884 47.237C192.942 49.4844 191.62 51.553 189.975 53.3522C188.371 62.0077 181.479 62.8289 174.106 60.3083H174.102C173.293 63.82 172.121 67.2382 170.605 70.5078H158.112C158.067 70.3691 158.027 70.2259 157.987 70.0872C159.143 70.1599 160.304 70.0908 161.444 69.8815C160.517 68.7452 159.59 67.6 158.663 66.4638C158.642 66.4425 158.623 66.4201 158.605 66.3967C158.135 65.8152 157.66 65.2381 157.19 64.6565L157.189 64.6558C157.164 62.8732 157.369 61.0948 157.799 59.3644L157.799 59.3642Z" fill="#F2F2F2"/>
<path d="M197.909 27.423C195.586 18.9621 214.322 11.7066 219.241 18.5203C219.926 17.5516 222.454 16.9632 223.614 17.2603C224.774 17.5575 225.749 18.3004 226.701 19.0195C228.01 20.0239 229.366 21.0639 230.169 22.5081C230.978 23.9463 231.103 25.9075 230.015 27.1556C229.152 28.1481 226.606 28.7899 225.309 29.0514C224.405 29.2357 223.644 29.3842 222.989 29.4912C222.395 28.6357 222.121 27.5984 222.216 26.5613C221.775 26.8581 221.406 27.2486 221.135 27.7048C220.863 28.1611 220.696 28.6717 220.645 29.2C220.628 29.4199 227.956 56.3599 227.956 56.3599C227.076 56.8606 226.15 57.2765 225.19 57.602C223.292 54.7042 221.839 51.5392 220.877 48.2119C220.656 50.4368 220.684 52.6793 220.961 54.8979C221.108 56.142 221.318 57.3778 221.591 58.6004C212.882 60.4785 199.783 59.8604 194.084 51.8729C194.083 51.8399 194.082 51.8068 194.081 51.7737C194.077 51.4584 193.963 51.1545 193.759 50.914C193.555 50.6734 193.273 50.5113 192.963 50.4552C192.652 50.3992 192.332 50.4529 192.056 50.6069C191.781 50.761 191.568 51.0059 191.453 51.2997C191.315 51.6521 191.188 51.9571 191.074 52.1998C189.414 46.2685 191.562 39.4043 197.909 27.423Z" fill="#2F2E41"/>
<path d="M183.089 169.274V169.551C183.078 169.459 183.078 169.366 183.089 169.274Z" fill="#2F2E41"/>
<path d="M191.618 121.39C191.839 121.33 192.065 121.287 192.293 121.259C192.031 121.302 191.806 121.346 191.618 121.39Z" fill="#2F2E41"/>
<path d="M191.421 121.441C191.481 121.424 191.547 121.407 191.618 121.39C191.552 121.408 191.488 121.42 191.421 121.441Z" fill="#2F2E41"/>
<path d="M254.431 196.999H222.508C222.053 196.636 221.737 196.127 221.612 195.558C221.488 194.99 221.563 194.395 221.825 193.876C222.697 191.877 220.988 190.052 220.988 190.052C220.408 189.373 220.005 188.561 219.814 187.689C219.623 186.817 219.651 185.911 219.894 185.052C220.74 182.101 217.425 173.771 217.425 173.771C217.425 173.771 215.639 184.527 213.449 196.999H183.089C182.581 196.133 182.313 195.148 182.313 194.144C182.313 193.141 182.581 192.155 183.089 191.29C184.859 188.293 183.089 187.718 183.089 187.718C183.089 187.718 181.32 184.364 183.089 181.929C184.859 179.494 183.089 169.551 183.089 169.551C183.156 169.99 183.66 169.191 184.436 167.515C185.618 164.965 187.423 160.38 189.247 155.057C190.551 151.257 191.866 147.077 192.965 142.99H192.967C193.255 141.916 193.528 140.852 193.786 139.798C194.29 137.73 194.722 135.722 195.05 133.835C195.762 129.772 195.997 126.282 195.45 124.012C194.997 122.123 194.005 121.081 192.293 121.259C193.21 121.108 194.554 120.964 196.21 120.828C196.509 120.804 196.818 120.78 197.138 120.753C209.491 119.821 235.995 119.285 235.995 119.285L244.113 133.808L254.394 152.206C254.394 152.206 254.114 176.886 254.431 196.999Z" fill="#2F2E41"/>
<path d="M220.358 56.5127L201.655 52.5491L197.942 60.0169L185.436 67.2501C185.436 67.2501 193.497 100.178 193.451 104.809C193.334 116.567 174.503 142.925 188.727 140.897C202.951 138.87 205.84 130.376 210.406 131.719C214.524 132.93 219.553 138.318 222.919 134.465C226.285 130.611 227.471 135.061 229.6 135.215C230.611 135.288 230.002 130.349 232.547 135.368C235.093 140.388 248.589 133.631 244.015 129.061C236.396 121.45 234.848 65.3417 234.848 65.3417L226.367 62.7346L220.358 56.5127Z" fill="#E6E6E6"/>
<path d="M185.082 176.094C185.834 175.199 186.206 174.046 186.12 172.881C186.033 171.715 185.495 170.63 184.62 169.855C184.44 169.7 184.247 169.561 184.043 169.438L187.17 154.105L179.941 149.783L177.93 171.249C177.486 172.131 177.346 173.136 177.532 174.106C177.719 175.076 178.222 175.957 178.962 176.612C179.387 176.98 179.881 177.261 180.414 177.439C180.948 177.617 181.512 177.688 182.073 177.648C182.634 177.609 183.182 177.459 183.686 177.208C184.189 176.956 184.638 176.608 185.006 176.184C185.032 176.154 185.057 176.124 185.082 176.094Z" fill="#A0616A"/>
<path d="M207.529 95.274C207.483 94.7811 206.854 94.5573 205.982 94.2482C205.106 93.9787 204.273 93.5848 203.51 93.0786C201.579 91.6851 202.339 90.2277 203.39 88.2135C203.595 87.8218 203.808 87.4142 204.008 86.9906C204.603 85.7356 203.656 80.5588 201.189 71.6013C200.429 68.8437 200.432 66.8961 199.907 65.6038C199.384 64.3116 198.336 63.6748 195.48 63.5416C192.027 63.3675 188.647 64.568 186.079 66.8801C186.01 66.9413 185.938 67.008 185.868 67.0719C185.738 67.1945 185.609 67.3197 185.484 67.4476C183.11 69.8342 181.751 73.0458 181.692 76.4104L181.679 76.9833L181.089 104.351L179.433 128.368L177.15 161.451L178.841 161.534L185.588 161.869L186.407 161.909L188.348 153.772L190.685 143.981L191.543 140.384L194.208 129.226L195.45 124.012L196.21 120.828L196.52 119.528L198.029 113.208C198.064 113.075 201.536 99.3878 205.539 97.0991C207.033 96.2465 207.571 95.7509 207.529 95.274Z" fill="#E6E6E6"/>
<path d="M252.442 175.931C251.599 175.121 251.105 174.015 251.065 172.848C251.026 171.68 251.444 170.543 252.231 169.678C252.394 169.505 252.57 169.346 252.76 169.202L248.002 154.293L254.725 149.22L259.032 170.347C259.569 171.176 259.816 172.16 259.735 173.144C259.653 174.129 259.248 175.059 258.582 175.789C258.199 176.201 257.739 176.533 257.227 176.767C256.716 177.002 256.163 177.133 255.601 177.153C255.039 177.174 254.478 177.084 253.95 176.888C253.423 176.692 252.939 176.395 252.527 176.012C252.498 175.985 252.47 175.958 252.442 175.931Z" fill="#A0616A"/>
<path d="M255.731 143.581C255.731 143.581 250.488 125.151 252.087 123.156C253.686 121.161 248.963 120.771 250.998 117.055C253.033 113.339 250.224 112.718 250.224 112.718L248.7 104.175L245.975 83.1897L245.892 82.5657L245.1 76.4605C244.878 74.7167 244.307 73.0355 243.421 71.5172C242.534 69.999 241.35 68.675 239.94 67.6243C239.867 67.5692 239.794 67.5163 239.72 67.4634C239.385 67.2221 239.042 66.9985 238.692 66.7927C236.076 65.251 233.005 64.6681 230.005 65.1442C224.354 66.0236 226.113 68.1292 225.196 73.7699C223.707 82.9415 223.32 88.1887 224.046 89.3743C224.291 89.7735 224.548 90.1554 224.793 90.5221C226.055 92.4146 226.967 93.7798 225.196 95.3755C224.491 95.9586 223.706 96.4385 222.865 96.8008C222.032 97.2035 221.43 97.4924 221.438 97.9873C221.447 98.4668 222.036 98.8998 223.611 99.5865C225.52 100.421 227.571 103.577 229.25 106.801C230.583 109.399 231.771 112.069 232.81 114.798L247.245 155.357L249.599 161.972L250.412 161.843L257.081 160.787L258.754 160.522L255.731 143.581Z" fill="#E6E6E6"/>
<path d="M212.467 52.2689C220.895 52.2689 227.726 45.4438 227.726 37.0246C227.726 28.6054 220.895 21.7803 212.467 21.7803C204.04 21.7803 197.208 28.6054 197.208 37.0246C197.208 45.4438 204.04 52.2689 212.467 52.2689Z" fill="#A0616A"/>
<path d="M189.581 28.6116C187.258 20.1507 205.993 12.8952 210.913 19.7089C211.597 18.7402 214.125 18.1518 215.286 18.4489C216.446 18.7461 217.421 19.489 218.373 20.2081C219.682 21.2125 221.038 22.2525 221.841 23.6967C222.65 25.1349 222.775 27.0961 221.686 28.3442C220.824 29.3367 218.278 29.9785 216.981 30.24C216.077 30.4243 215.315 30.5728 214.661 30.6798C214.067 29.8243 213.793 28.787 213.888 27.7499C213.447 28.0467 213.078 28.4372 212.806 28.8934C212.535 29.3496 212.368 29.8602 212.317 30.3886C212.299 30.6085 219.628 57.5485 219.628 57.5485C218.748 58.0492 217.821 58.4651 216.862 58.7906C214.964 55.8928 213.51 52.7278 212.549 49.4005C212.328 51.6254 212.356 53.8679 212.632 56.0865C212.779 57.3306 212.99 58.5664 213.263 59.789C204.554 61.6671 191.455 61.049 185.756 53.0615C185.755 53.0285 185.754 52.9954 185.753 52.9623C185.749 52.647 185.635 52.3431 185.431 52.1026C185.226 51.862 184.945 51.6999 184.634 51.6439C184.324 51.5879 184.003 51.6415 183.728 51.7955C183.453 51.9496 183.239 52.1945 183.125 52.4883C182.987 52.8407 182.859 53.1457 182.746 53.3884C181.086 47.4571 183.234 40.5929 189.581 28.6116Z" fill="#2F2E41"/>
<path d="M113.907 81.2873C113.585 81.3021 113.265 81.2176 112.993 81.0452C112.72 80.8728 112.507 80.6208 112.383 80.3235C112.259 80.0262 112.229 79.6978 112.297 79.3829C112.366 79.068 112.53 78.7818 112.767 78.563C112.806 78.4055 112.835 78.2924 112.874 78.1349C112.86 78.1006 112.846 78.0663 112.832 78.0321C111.383 74.5817 106.474 74.6055 105.038 78.061C103.764 81.128 102.141 84.2002 101.741 87.443C101.565 88.8764 101.64 90.3294 101.961 91.7374C98.9669 85.2132 97.4124 78.1221 97.4024 70.945C97.4017 69.144 97.5019 67.3443 97.7024 65.5545C97.8681 64.0872 98.0979 62.6303 98.392 61.1839C99.9966 53.3359 103.442 45.98 108.444 39.7204C110.866 38.4006 112.824 36.3709 114.055 33.905C114.501 33.0186 114.816 32.0723 114.991 31.0957C114.718 31.1314 113.961 26.9756 114.167 26.7206C113.786 26.1436 113.105 25.8567 112.689 25.2936C110.622 22.4931 107.773 22.9821 106.286 26.7877C103.109 28.3895 103.079 31.0459 105.028 33.6008C106.268 35.2262 106.438 37.4255 107.526 39.1657C107.414 39.3088 107.298 39.4475 107.186 39.5907C105.14 42.2195 103.356 45.0423 101.861 48.0187C102.284 44.7176 101.66 40.7407 100.595 38.1771C99.383 35.2562 97.1114 32.7962 95.111 30.271C92.7081 27.2379 87.7809 28.5616 87.3575 32.4065C87.3534 32.4438 87.3494 32.481 87.3455 32.5182C87.6427 32.6856 87.9335 32.8634 88.2181 33.0514C88.5756 33.2901 88.8526 33.631 89.0128 34.0296C89.1731 34.4283 89.209 34.8659 89.116 35.2853C89.023 35.7047 88.8054 36.0862 88.4916 36.3799C88.1779 36.6736 87.7826 36.8658 87.3577 36.9312L87.3142 36.9379C87.42 38.0078 87.6071 39.0681 87.8739 40.1096C85.3076 50.0248 90.8481 53.6361 98.7591 53.7983C98.9337 53.8878 99.1039 53.9772 99.2786 54.0623C97.7764 58.3152 96.8342 62.7453 96.4755 67.241C96.2725 69.8933 96.2845 72.5577 96.5114 75.2081L96.4979 75.1142C95.9247 72.167 94.351 69.5077 92.0426 67.5854C88.614 64.7716 83.77 63.7355 80.0712 61.4737C78.2907 60.385 76.009 61.7919 76.3198 63.8542C76.3247 63.8872 76.3298 63.9201 76.3349 63.953C76.8863 64.1774 77.4232 64.4358 77.9424 64.7269C78.2395 64.8944 78.5304 65.0721 78.815 65.2601C79.1725 65.4988 79.4495 65.8397 79.6097 66.2383C79.7699 66.637 79.8059 67.0746 79.7129 67.494C79.6199 67.9134 79.4023 68.2949 79.0885 68.5886C78.7747 68.8823 78.3795 69.0745 77.9546 69.14L77.911 69.1466C77.8797 69.1511 77.8528 69.1556 77.8215 69.1601C78.7636 71.4075 80.0859 73.4761 81.7305 75.2752C83.3351 83.9308 90.2271 84.752 97.5994 82.2314H97.6039C98.4128 85.7431 99.5848 89.1613 101.101 92.4308H113.594C113.638 92.2922 113.679 92.149 113.719 92.0103C112.563 92.0829 111.402 92.0139 110.262 91.8046C111.189 90.6683 112.116 89.5231 113.043 88.3869C113.064 88.3656 113.083 88.3432 113.101 88.3198C113.571 87.7382 114.046 87.1612 114.516 86.5796L114.516 86.5789C114.541 84.7963 114.337 83.0179 113.907 81.2875L113.907 81.2873Z" fill="#F2F2F2"/>
<path d="M55.6148 18.5205C55.3312 19.1806 46.5887 19.1099 46.1882 19.6977C43.1011 24.2358 54.2298 43.5443 51.1426 48.0883L50.7125 48.6004C51.7197 48.1367 52.6871 47.5914 53.6053 46.9699C53.6877 45.11 53.7702 43.2441 53.8586 41.3842C54.7833 42.566 55.5296 43.8768 56.0738 45.2748C56.7926 44.7686 57.3822 43.8302 60.4631 41.9845C61.7103 40.6157 63.1482 39.4332 64.7324 38.4734L55.6148 18.5205Z" fill="#2F2E41"/>
<path d="M61.9632 55.7128C60.9984 55.0849 59.8977 54.696 58.7523 54.5782C57.607 54.4604 56.45 54.6172 55.3774 55.0356C54.3049 55.454 53.3477 56.1218 52.5852 56.9838C51.8227 57.8458 51.277 58.877 50.9934 59.9918L37.7077 94.5758L14.8713 81.6233C14.771 80.1345 14.2014 78.7156 13.2441 77.5702C12.2868 76.4249 10.991 75.6118 9.54256 75.2477C8.09412 74.8835 6.56747 74.987 5.18154 75.5433C3.79562 76.0996 2.62164 77.0801 1.82798 78.3441C1.03431 79.6082 0.661735 81.0909 0.763688 82.5796C0.865641 84.0683 1.43689 85.4865 2.39549 86.6308C3.35409 87.7751 4.6508 88.5867 6.09965 88.9492C7.54849 89.3117 9.07503 89.2065 10.4603 88.6486C15.2695 93.7765 36.1189 114.801 44.7504 106.586C52.0057 99.6813 62.4758 72.9206 64.9962 63.6796C65.3999 62.2019 65.3237 60.6343 64.7787 59.2026C64.2336 57.7709 63.2478 56.549 61.9632 55.7128Z" fill="#FFB6B6"/>
<path d="M37.0165 108.035L41.209 126.967L71.8662 129.737L74.6837 113.253L37.0165 108.035Z" fill="#FFB6B6"/>
<path d="M83.8459 156.583C83.8319 156.854 83.8151 157.123 83.7955 157.395C83.5014 161.317 83.1654 165.841 82.8013 170.799C82.2272 178.667 81.5859 187.626 80.9389 196.999H16.6353L29.1063 159.55C29.1063 159.55 34.1418 156.78 31.5781 152.127C29.0145 147.474 34.0588 151.182 34.1057 144.537C34.1527 137.892 38.6729 130.823 38.6729 130.823L39.415 120.762L39.8379 120.77L73.3018 121.327L73.9123 121.338L74.9401 129.975C81.1807 137.394 84.3644 146.906 83.8459 156.583Z" fill="#2F2E41"/>
<path d="M56.1506 46.538L71.4102 45.7527L78.4978 56.9414C78.4978 56.9414 91.8334 59.1688 90.909 74.8682C89.9847 90.5677 74.6836 104.344 74.6836 104.344L75.3377 102.104L74.2017 105.346L74.3474 107.167L75.8971 109.096L76.0566 111.09L74.6836 114.245C74.8621 114.531 74.9569 114.861 74.9571 115.198C74.9573 115.535 74.863 115.865 74.6848 116.152C74.5067 116.438 74.2518 116.668 73.9492 116.817C73.6465 116.966 73.3082 117.027 72.9725 116.993L50.9237 114.786C50.4217 113.406 50.0189 111.755 48.0067 114.503L45.9297 114.302L37.2954 113.467L36.7872 111.617C36.4984 110.566 36.4534 109.463 36.6556 108.392C36.8578 107.321 37.3018 106.311 37.9539 105.437C37.204 103.091 37.4004 100.545 38.5014 98.341L38.5427 98.2584L39.4596 97.4948C39.4596 97.4948 29.4283 82.4384 40.944 71.0981L45.5658 63.2484L50.7373 56.945L56.1506 46.538Z" fill="#E85C43"/>
<path d="M59.9485 39.9333C67.9402 39.9333 74.4188 33.4609 74.4188 25.4768C74.4188 17.4927 67.9402 11.0203 59.9485 11.0203C51.9568 11.0203 45.4783 17.4927 45.4783 25.4768C45.4783 33.4609 51.9568 39.9333 59.9485 39.9333Z" fill="#FFB6B6"/>
<path d="M70.9388 46.3024C69.7604 45.3187 68.9402 43.9737 68.6057 42.4765C68.338 44.2944 68.408 46.146 68.8119 47.9387C68.0283 48.5272 67.2683 49.0864 66.5495 49.5926C66.0053 48.1946 65.259 46.8838 64.3343 45.702C64.2459 47.5619 64.1634 49.4278 64.0809 51.2878C63.1628 51.9092 62.1954 52.4545 61.1882 52.9182L61.6183 52.4061C64.7054 47.8621 56.7165 39.4982 59.8037 34.9601C60.6697 33.6887 56.7577 23.6413 53.7766 23.1881C51.1254 22.7879 51.2373 23.553 48.6686 24.1122C48.4018 23.0007 47.9877 21.9298 47.4372 20.9279C47.5838 22.0444 47.55 23.1771 47.3371 24.2829C46.4239 24.3182 45.7054 23.7369 44.733 23.5884C38.5292 22.6407 39.1596 15.9366 40.8858 13.8117C42.6179 11.6928 48.3681 11.0571 51.0193 10.3684C51.2609 10.133 51.8088 10.2801 52.0504 10.0565C57.1313 5.41095 63.9266 4.64161 70.0418 6.70062C76.5632 8.89639 80.6292 13.1462 82.716 19.6977L83.3145 24.9406C83.8515 26.6264 83.176 34.4701 82.716 36.1785C80.9279 42.8191 77.1198 39.5041 70.9388 46.3024Z" fill="#2F2E41"/>
<path d="M92.0377 114.794L91.468 70.468C91.4383 68.5902 90.6708 66.7993 89.3311 65.4818C87.9913 64.1643 86.1868 63.4259 84.307 63.4259C83.3345 63.4259 82.3721 63.6238 81.4787 64.0075C80.5852 64.3911 79.7793 64.9526 79.1101 65.6576C78.4409 66.3626 77.9225 67.1963 77.5864 68.108C77.2502 69.0197 77.1035 69.9903 77.155 70.9605L79.1597 116.986L79.1977 145.004C78.0162 145.504 77.0176 146.356 76.3376 147.444C75.6575 148.531 75.329 149.801 75.3966 151.081C75.4643 152.362 75.9248 153.59 76.7156 154.6C77.5065 155.61 78.5893 156.352 79.8169 156.725C81.0446 157.099 82.3576 157.086 83.5776 156.688C84.7976 156.29 85.8653 155.526 86.6358 154.501C87.4063 153.476 87.8422 152.238 87.8843 150.957C87.9263 149.675 87.5725 148.412 86.8709 147.339L92.0377 114.794Z" fill="#FFB6B6"/>
<path d="M166.72 172.141C166.72 172.141 165.839 187.971 165.434 197H135.102C134.478 188.784 134.268 182.747 134.268 182.747L132.608 197H101.949L100.048 170.603L109.233 147.855C109.233 147.855 159.012 144.406 163.629 148.782C168.244 153.154 166.72 172.141 166.72 172.141Z" fill="#2F2E41"/>
<path d="M139.898 38.9693C149.048 38.9693 156.466 31.5585 156.466 22.4168C156.466 13.2751 149.048 5.86426 139.898 5.86426C130.747 5.86426 123.33 13.2751 123.33 22.4168C123.33 31.5585 130.747 38.9693 139.898 38.9693Z" fill="#FFB6B6"/>
<path d="M159.21 17.0382C157.508 17.8135 156.405 23.4282 155.068 22.1229C153.73 20.8176 153.82 19.1189 152.016 18.6372C150.56 18.2465 148.993 18.693 147.664 19.3972C147.427 19.5214 147.197 19.6565 146.973 19.7909C146.825 19.6921 146.678 19.5992 146.52 19.5135C145.332 18.8783 143.945 18.7224 142.645 19.0781C143.672 19.4218 144.565 20.0793 145.198 20.9577C144.753 21.2553 144.303 21.5537 143.842 21.8181C139.994 24.0366 134.519 19.2126 130.468 17.4003C133.005 22.1567 131.756 24.1266 129.553 29.0457L129.477 29.3258C129.602 28.0929 125.784 27.1741 126.005 28.9096C126.162 30.1418 127.23 32.8807 127.828 33.9687C123.569 29.0494 120.659 23.0294 121.273 16.8194C121.407 15.5149 121.367 14.1384 122.04 13.0062C122.714 11.8798 124.12 11.0893 125.363 11.5188C125.258 9.5384 125.692 7.56644 126.619 5.81262C127.545 4.0588 128.931 2.58867 130.627 1.55852C132.323 0.528376 134.267 -0.0232764 136.252 -0.0377919C138.238 -0.0523074 140.189 0.47086 141.901 1.47609C143.491 2.40824 144.818 3.7266 146.276 4.86379C147.733 6.00097 149.413 6.99221 151.261 7.08609C152.433 7.14257 153.709 6.85663 154.716 7.46325C155.883 8.16713 156.083 9.64084 156.258 11.0589C155.217 11.1614 154.231 11.5715 153.425 12.2369C154.501 12.1272 155.585 12.3594 156.522 12.9007C156.54 12.9087 156.557 12.9183 156.573 12.9295C157.19 15.2731 157.127 15.7926 159.21 17.0382Z" fill="#2F2E41"/>
<path d="M102.022 155.863C116.131 139.364 111.366 118.378 105.766 97.1938L106.831 65.8982C106.884 64.363 107.305 62.863 108.06 61.5247C108.814 60.1864 109.88 59.0492 111.167 58.2091L125.571 48.8081L131.177 40.7102L146.631 42.2541L155.2 51.308L164.686 58.5426C167.067 60.3591 168.879 62.818 169.909 65.6294C170.938 68.4409 171.141 71.4877 170.494 74.4106L161.416 115.422C161.416 115.422 165.213 136.683 162.896 139.031C160.58 141.379 154.611 139.032 159.344 141.668C165.025 144.832 170.19 144.248 167.315 147.12C164.441 149.992 168.079 153.985 168.079 153.985L102.022 155.863Z" fill="#E85C43"/>
<path d="M108.054 179.843L110.407 163.101L101.021 160.424L99.1645 178.213C98.3878 178.925 97.8251 179.838 97.5398 180.852C97.2544 181.865 97.2577 182.938 97.5492 183.95C97.8408 184.962 98.409 185.872 99.1901 186.579C99.9711 187.286 100.934 187.761 101.971 187.951C103.007 188.141 104.076 188.038 105.057 187.655C106.039 187.271 106.894 186.621 107.526 185.779C108.158 184.937 108.542 183.935 108.636 182.886C108.729 181.837 108.528 180.783 108.054 179.843Z" fill="#FFB6B6"/>
<path d="M125.923 51.826C125.923 51.826 99.2076 60.5128 98.5706 66.8688C97.9336 73.2248 98.1448 77.1157 95.3252 102.55L95.4737 171.062C95.4737 171.062 113.385 174.893 111.548 170.797C109.711 166.7 110.352 164.773 110.352 164.773C110.352 164.773 114.192 163.259 113.231 158.45C112.27 153.64 117.09 129.805 117.09 129.805L120.133 87.0587L125.923 51.826Z" fill="#E85C43"/>
<path d="M158.864 178.956L157.612 162.096L167.153 160.038L167.841 177.91C168.57 178.671 169.072 179.62 169.29 180.65C169.508 181.68 169.435 182.75 169.078 183.741C168.721 184.731 168.094 185.603 167.268 186.257C166.443 186.911 165.451 187.322 164.404 187.444C163.357 187.566 162.297 187.394 161.343 186.947C160.389 186.5 159.579 185.796 159.003 184.914C158.427 184.032 158.109 183.007 158.085 181.955C158.06 180.902 158.33 179.864 158.864 178.956Z" fill="#FFB6B6"/>
<path d="M149.409 50.0464C149.409 50.0464 175.499 60.4591 175.719 66.8431C175.939 73.2271 175.473 77.0959 176.623 102.66L171.992 171.015C171.992 171.015 153.869 173.669 155.97 169.701C158.071 165.734 157.557 163.769 157.557 163.769C157.557 163.769 153.824 162.007 155.098 157.271C156.372 152.534 153.121 128.436 153.121 128.436L152.882 85.5818L149.409 50.0464Z" fill="#E85C43"/>
</g>
<defs>
<clipPath id="clip0_17_267">
<rect width="259" height="197" fill="white" transform="translate(0.75)"/>
</clipPath>
</defs>
</svg>
